<?xml version="1.0" encoding="UTF-8"?>
<svg width="164px" height="35px" viewBox="0 0 164 35" version="1.1" xmlns="http://www.w3.org/2000/svg" xmlns:xlink="http://www.w3.org/1999/xlink">
    <!-- Generator: Sketch 47.1 (45422) - http://www.bohemiancoding.com/sketch -->
    <title>madmaniak</title>
    <desc>Created with Sketch.</desc>
    <defs></defs>
    <g id="Page-2.4-(venue+photos)" stroke="none" stroke-width="1" fill="none" fill-rule="evenodd">
        <g id="home" transform="translate(-808.000000, -5822.000000)" fill="#151515">
            <g id="partners" transform="translate(231.000000, 5703.000000)">
                <path d="M591.654089,127.859551 C593.704196,126.720968 595.645739,126.151685 597.478776,126.151685 C599.215337,126.151685 600.590094,126.697248 601.603088,127.78839 C602.616082,128.879531 603.122572,130.267158 603.122572,131.951311 L603.122572,144.262172 L601.132772,144.262172 L601.132772,132.058052 C601.132772,130.990631 600.903646,130.124847 600.445387,129.460674 C599.987127,128.796501 599.432401,128.381399 598.78119,128.215356 C598.12998,128.049313 597.605402,127.966292 597.20744,127.966292 C596.809478,127.966292 596.363285,127.984082 595.868847,128.019663 C595.37441,128.055244 594.717179,128.227214 593.897136,128.535581 L592.558544,129.17603 C592.968565,129.982526 593.173573,130.90761 593.173573,131.951311 L593.173573,144.262172 L591.183773,144.262172 L591.183773,132.058052 C591.183773,130.824588 590.882291,129.863924 590.279319,129.17603 C589.555751,128.369534 588.452328,127.966292 586.969015,127.966292 C585.485703,127.966292 584.020501,128.357674 582.573367,129.140449 L582.573367,144.262172 L580.547389,144.262172 L580.547389,126.43633 L582.573367,126.43633 L582.392476,127.574906 C584.05668,126.649808 585.738949,126.187266 587.439332,126.187266 C589.139715,126.187266 590.54462,126.744689 591.654089,127.859551 Z M613.578065,144.617978 C608.296025,144.617978 605.655044,142.495027 605.655044,138.249064 L605.655044,135.29588 C605.655044,132.947554 606.487134,131.370166 608.151339,130.56367 C609.019619,130.160422 609.875828,129.958801 610.719989,129.958801 C613.56602,129.958801 615.845223,130.622965 617.557665,131.951311 C617.557665,130.646685 617.171768,129.60893 616.399963,128.838015 C615.628158,128.0671 614.144868,127.681648 611.950047,127.681648 L612.058582,126.151685 C614.012213,126.151685 615.459326,126.377026 616.399963,126.827715 C616.90646,127.088641 617.352653,127.349562 617.738556,127.610487 C618.124458,127.871412 618.42594,128.215354 618.64301,128.642322 C618.86008,129.069291 619.040969,129.442882 619.185683,129.763109 C619.330396,130.083335 619.426871,130.516227 619.475108,131.061798 C619.547465,131.892014 619.583643,132.757798 619.583643,133.659176 L619.583643,144.262172 C617.075277,144.499377 615.073437,144.617978 613.578065,144.617978 Z M617.557665,142.625468 L617.557665,133.481273 C615.555796,132.532455 613.505719,131.975032 611.407375,131.808989 C611.262661,131.785268 611.11795,131.773408 610.973236,131.773408 C610.056718,131.773408 609.272865,132.05212 608.621655,132.609551 C607.970444,133.166982 607.644844,134.097996 607.644844,135.402622 L607.644844,138.498127 C607.644844,140.466926 608.513112,141.747812 610.249673,142.340824 C611.262667,142.696631 612.408298,142.874532 613.6866,142.874532 C614.964902,142.874532 616.255244,142.791511 617.557665,142.625468 Z M629.684971,126.151685 C631.68684,126.151685 633.278664,126.566787 634.46049,127.397004 L634.46049,119.355805 L636.486468,119.355805 L636.486468,144.262172 C634.412243,144.546818 632.494818,144.689139 630.734138,144.689139 C628.973458,144.689139 627.381634,144.333337 625.958619,143.621723 C624.077344,142.672904 623.136721,141.024356 623.136721,138.67603 L623.136721,131.951311 C623.136721,129.460662 624.161759,127.752814 626.211866,126.827715 C627.200741,126.377026 628.358431,126.151685 629.684971,126.151685 Z M634.46049,129.140449 C632.989237,128.333954 631.385354,127.930712 629.648793,127.930712 C628.129302,127.930712 626.99573,128.310233 626.248044,129.069288 C625.500358,129.828343 625.126521,130.824588 625.126521,132.058052 L625.126521,138.71161 C625.126521,141.486905 627.019826,142.874532 630.806494,142.874532 C631.891845,142.874532 633.109832,142.767791 634.46049,142.554307 L634.46049,129.140449 Z M651.037712,127.859551 C653.087819,126.720968 655.029362,126.151685 656.862399,126.151685 C658.59896,126.151685 659.973717,126.697248 660.986711,127.78839 C661.999705,128.879531 662.506195,130.267158 662.506195,131.951311 L662.506195,144.262172 L660.516395,144.262172 L660.516395,132.058052 C660.516395,130.990631 660.287269,130.124847 659.82901,129.460674 C659.370751,128.796501 658.816024,128.381399 658.164814,128.215356 C657.513603,128.049313 656.989025,127.966292 656.591063,127.966292 C656.193101,127.966292 655.746908,127.984082 655.25247,128.019663 C654.758033,128.055244 654.100802,128.227214 653.280759,128.535581 L651.942167,129.17603 C652.352188,129.982526 652.557196,130.90761 652.557196,131.951311 L652.557196,144.262172 L650.567396,144.262172 L650.567396,132.058052 C650.567396,130.824588 650.265914,129.863924 649.662942,129.17603 C648.939375,128.369534 647.835951,127.966292 646.352638,127.966292 C644.869326,127.966292 643.404124,128.357674 641.95699,129.140449 L641.95699,144.262172 L639.931012,144.262172 L639.931012,126.43633 L641.95699,126.43633 L641.776099,127.574906 C643.440303,126.649808 645.122572,126.187266 646.822955,126.187266 C648.523338,126.187266 649.928243,126.744689 651.037712,127.859551 Z M672.390454,144.617978 C667.108414,144.617978 664.467433,142.495027 664.467433,138.249064 L664.467433,135.29588 C664.467433,132.947554 665.299523,131.370166 666.963727,130.56367 C667.832008,130.160422 668.688216,129.958801 669.532378,129.958801 C672.378409,129.958801 674.657611,130.622965 676.370054,131.951311 C676.370054,130.646685 675.984157,129.60893 675.212352,128.838015 C674.440547,128.0671 672.957256,127.681648 670.762436,127.681648 L670.87097,126.151685 C672.824602,126.151685 674.271714,126.377026 675.212352,126.827715 C675.718849,127.088641 676.165042,127.349562 676.550944,127.610487 C676.936847,127.871412 677.238329,128.215354 677.455399,128.642322 C677.672469,129.069291 677.853358,129.442882 677.998072,129.763109 C678.142785,130.083335 678.239259,130.516227 678.287497,131.061798 C678.359854,131.892014 678.396031,132.757798 678.396031,133.659176 L678.396031,144.262172 C675.887665,144.499377 673.885826,144.617978 672.390454,144.617978 Z M676.370054,142.625468 L676.370054,133.481273 C674.368184,132.532455 672.318108,131.975032 670.219763,131.808989 C670.07505,131.785268 669.930339,131.773408 669.785625,131.773408 C668.869107,131.773408 668.085254,132.05212 667.434044,132.609551 C666.782833,133.166982 666.457233,134.097996 666.457233,135.402622 L666.457233,138.498127 C666.457233,140.466926 667.3255,141.747812 669.062062,142.340824 C670.075056,142.696631 671.220686,142.874532 672.498988,142.874532 C673.77729,142.874532 675.067633,142.791511 676.370054,142.625468 Z M683.514292,127.646067 C684.744356,126.626087 686.468832,126.116105 688.687771,126.116105 C689.941954,126.116105 691.015229,126.341446 691.907629,126.792135 C693.957736,127.717233 694.982774,129.436941 694.982774,131.951311 L694.982774,144.262172 L692.992974,144.262172 L692.992974,132.058052 C692.992974,130.824588 692.655315,129.863924 691.979985,129.17603 C691.159942,128.345814 689.935926,127.930712 688.3079,127.930712 C686.679874,127.930712 685.130258,128.333954 683.659004,129.140449 L683.659004,144.262172 L681.633026,144.262172 L681.633026,126.43633 L683.659004,126.43633 L683.514292,127.646067 Z M702.271725,120.209738 C702.271725,120.518104 702.151132,120.790885 701.909943,121.02809 C701.668754,121.265295 701.385361,121.383895 701.059756,121.383895 C700.734151,121.383895 700.450758,121.259365 700.209569,121.0103 C699.96838,120.761235 699.847787,120.482523 699.847787,120.174157 C699.847787,119.865791 699.96838,119.59301 700.209569,119.355805 C700.450758,119.118601 700.74018,119 701.077845,119 C701.41551,119 701.698903,119.118601 701.928032,119.355805 C702.157162,119.59301 702.271725,119.877651 702.271725,120.209738 Z M702.054656,144.262172 L700.028678,144.262172 L700.028678,126.43633 L702.054656,126.43633 L702.054656,144.262172 Z M714.237181,144.617978 C708.955141,144.617978 706.31416,142.495027 706.31416,138.249064 L706.31416,135.29588 C706.31416,132.947554 707.14625,131.370166 708.810455,130.56367 C709.678735,130.160422 710.534943,129.958801 711.379105,129.958801 C714.225136,129.958801 716.504338,130.622965 718.216781,131.951311 C718.216781,130.646685 717.830884,129.60893 717.059079,128.838015 C716.287274,128.0671 714.803984,127.681648 712.609163,127.681648 L712.717698,126.151685 C714.671329,126.151685 716.118442,126.377026 717.059079,126.827715 C717.565576,127.088641 718.011769,127.349562 718.397672,127.610487 C718.783574,127.871412 719.085056,128.215354 719.302126,128.642322 C719.519196,129.069291 719.700085,129.442882 719.844799,129.763109 C719.989512,130.083335 720.085986,130.516227 720.134224,131.061798 C720.206581,131.892014 720.242759,132.757798 720.242759,133.659176 L720.242759,144.262172 C717.734393,144.499377 715.732553,144.617978 714.237181,144.617978 Z M718.216781,142.625468 L718.216781,133.481273 C716.214912,132.532455 714.164835,131.975032 712.066491,131.808989 C711.921777,131.785268 711.777066,131.773408 711.632352,131.773408 C710.715834,131.773408 709.931981,132.05212 709.280771,132.609551 C708.62956,133.166982 708.30396,134.097996 708.30396,135.402622 L708.30396,138.498127 C708.30396,140.466926 709.172228,141.747812 710.908789,142.340824 C711.921783,142.696631 713.067414,142.874532 714.345716,142.874532 C715.624018,142.874532 716.91436,142.791511 718.216781,142.625468 Z M736.675268,144.262172 L734.25133,144.262172 L727.30512,132.983146 L725.423855,134.58427 L725.423855,144.262172 L723.397877,144.262172 L723.397877,119.355805 L725.423855,119.355805 L725.423855,132.342697 L732.65949,125.7603 L734.106617,127.14794 L728.752247,131.737828 C730.392333,134.418241 733.033313,138.59298 736.675268,144.262172 Z M577,152.501873 L741,152.501873 L741,154 L577,154 L577,152.501873 Z" id="madmaniak"></path>
            </g>
        </g>
    </g>
</svg>