<svg xmlns="http://www.w3.org/2000/svg" viewBox="0 0 260 344"><style>.st0{opacity:0}.st1{fill:none;stroke:#000;stroke-width:2;stroke-miterlimit:10}</style><path class="st0" d="M0 0h260v344H0z" id="bg"/><g id="Layer_2"><path class="st1" d="M58.1 151.7c0 11.9-2.4 25-.5 36.8 1 6 3.2 11.6 4 17.7.8 5.8 1.8 13.4 4.4 18.6 3 6.2 7.7 15.1 9.3 21.7 2.1 8.7 5.7 15.1 11.5 22.1m5.7-1.4c5.9 6.1 12.3 12.6 17.2 19.5m2.7-6.3c6 7.2 21.6 10.9 30.5 9.1 4.9-1 10.4-.2 15-1.6 6.5-1.9 10.9-8.3 16.8-11.1 3-1.4 3.2-5.2 4.9-8.1 2-3.3 4.5-5.7 7-8.7 4.3-5.3 5.6-11.8 8.9-17.7M54.9 168.6c-1.4-3.9-.5-9.7-.4-13.8m143.7 90.3c3-15.3 13.5-28.2 12.8-44.2M51.4 154.4c-.3-4.9-3.8-6.1-4-10.6-.1-3.9.6-7.9.2-11.9-.8-7.9-3.9-15.5-1.6-23.4m168.1 94.6c3.5-14.4-2.9-29.9-.4-44.7.7-4.4 9.9-23.7 12.3-11.1 1.4 7.3-4 15.1-4.8 22.1-.5 4.2-1.1 8.3-2 12.4-.9 3.9-.4 9.3-2.4 12.8m-156-40.2c0-6.4-1-13.7.6-19.9 1.1-4.4 3.6-4.6 5.9-7.6 2.2-2.9 1-6.3 1.8-9.7m13.2-.8c4.3-8.6 11.9-21.5 22.1-23.9m-11.9 18.6c5.3-8.3 13.6-14.1 22.6-17.7m-44.7 18.1c1.2-6.1 13.1-14.9 19.5-15.5m11.9-15c7.6 6.7 14.6 11.3 25.2 10.6 11.2-.8 17.2-8 26.5-12.8M62.9 63.3c12 3 24.6-3.3 34.7-8.7 10.9-5.8 20.2-8.5 32.5-8.1M81 66.4c5.2 5.1 23.2-.9 29.2-2.9 10.1-3.3 20.4-8.7 31.4-8.2M108 72.6c3.7 4 16.4.8 20.8-.4 8.8-2.5 16.8-5.7 26-7.1m-7 31c12.5-2.4 23.3-8.8 28.7-20.8m-18.1 10.1c6.7-4 11.2-12.3 14.6-19m-2.2 35c8.3-1.4 15.7-10.6 19-17.7m-.9 11.9c3 5.4 4.6 12 7.1 17.7 2.8 6.3 7.9 12.4 8.6 21.9m-.7-52.4c4.4 11.5.6 23.1 1.3 34.9m2.3 11.4c-.4 3.2.4 8.2.8 11.6.3 3.5.4 7.1.6 10.6.3 6.8-1.8 15.3-.5 21.7m14.2-29.7c.5-7.1-2.5-15.2-3.6-22m-180-6.7c3-4 .4-11.4 4-16.4"/><path class="st1" d="M36.4 100.5c-6.7-8.8 7.8-28.5 11-36.6 2.5-6.4 7.6-12.5 13.3-16.3 6.5-4.4 13.8-4.8 20.8-7.6m-6.7-5c8.9-2.6 16.5-2.7 25.6-2.7m-6.6-6.1c4.3-1.9 37 2.1 36.3 4.9m-.4-7.6c7.9 1.2 16.4 3.4 19.9 11.5m1.3 5.8c7.2-10.9 21.7-16.9 34-12.4M169 35.5c9.4-2 26.3 5.7 34 11 9.7 6.7 14.4 23.7 13.7 35"/><path class="st1" d="M192 47c3.5 3.8 8.7 6.2 11.7 10.5 2.7 3.9 3.4 9.3 4.2 13.8m12 12.4c6.4 12.6 2.6 24.1 0 37.1m-7.1-30.9c5.2 4.9 2 14 1.8 19.9M47.4 142.5c-8.3-1.6-6.7 9.1-6.2 13.7.3 2.7-.8 5.9-.5 8.4.5 3.9 3.6 5.3 5.4 8.4 2.8 4.9 2.7 37 14.6 28.8m161.4-52.2c-.8 3.7-.5 7.7-1.3 11.5M61.6 172.5c1.1 3.2-.4 8.6.4 12.4.7 3.9 2.2 8.4 1.9 12.4m3.4 4.9c0 2.7 2.4 6.8 4 8.8 0 5.9 2.5 11.8 2.7 17.7m12.3-2.7c2.4 4.3 3.1 9.9 1.3 14.6m8.9 0c1.6 2.8 1.4 8.2.4 11.1m9.3-1.3c1 3.7.2 7.5.9 11.1m-24.3-18.6c2.3 4.5.6 9.9 4.9 13.7m5.7-.9c.7 2.2.8 4.5 1.8 6.6m19.4 0c.6 4.3 1.5 8.5 1.3 12.8m-11-10.1c2.6 2.2 1.7 6.8 3.5 9.7m15.5-2.2c1.1 2.6.3 5.5 1.8 8m11.9-37.6c-.1 3.4.2 6.7 0 10.2m22.6-3.6c11.8 1.7 8.4 17.7 4.4 24.8m-7.5-3.2c1.8 3.7-2.2 9.7-5.3 11.1m-4.9-7.5c-.5 3.1-2 5.6-4 8m-7-4.5c.9 2.2.2 4.5-.4 6.6m40.6-48.1c3.2 4.4 2.2 11 .9 15.9m9.3-24.8c1.2 4.5.9 10.1 0 14.6m11.9-41.1c1.5 5.8-.8 13.1-2.7 18.6m10.2-23c0 4.3-.5 8.1-1.3 12.4m-4 10.6c-.5 4.4-1.8 8.5-2.7 12.8m-5.7 0c.7 2.2.6 4.4 0 6.6m-8.8 10.6c1 2.9.2 6.1-.9 8.8m-7.5 2.7c-.9 3.6-.9 7.2-2.7 10.6m35.8-92.4c1.2 4.2.4 9.9-.4 14.1M79.7 229.1c1.4 2.6.9 5.5.9 8.4m19-32.2c-6.1 1-8 8.5-1.8 11.1m71.7-28.4c8.2 6.6 19 15.5 11.9 26.1M73.2 145.2c.7-3 7-8.4 9.6-10.1 3-2 6.4-3.6 10.1-3.8 6.9-.3 13.7.2 20.6-.5 4.2-.4 7.7-.5 10.1 3.6 2.7 4.6-2.1 5.6-6 6-6.8.8-13.8-1.5-20.6-1.5-3.8 0-7.9-.5-11.5.7-4.1 1.4-7.7 4.8-11.7 5.9-.4.1-.7 0-.6-.3zm74.1-9.1c-.7 0-1.4-.5-1.7-1.2-1.6-3.7-1.2-6.4 3.4-8.2 3.3-1.3 6.9-1.1 10.3-.6 7 1 14.4.8 21.3 2.2 4 .8 6.9 3.1 10.1 5.5 1.9 1.4 3.9 2.7 5.3 4.6.4.5 1.5 1.8 1.4 2.4-.4 2.1-1.6.5-2.5.1-1.7-.7-3.1-2.2-4.8-3.1-1.9-.9-3.7-1.2-5.8-1.5-3.4-.6-6.9-.5-10.4-.5-4.4-.1-11.5 0-15.9.4-3.5.5-7.1 0-10.7-.1zm-59 17c4.9-1.2 12 .5 17 .9 5.5.5 12.6 1.1 18-.5-2.9-5.8-11.8-8.5-17.7-7.3-3 .6-6.2 1.6-9.1 2.7-3.2 1.2-6 3.2-9.1 4.4m62.3-1.2c1.8-2.1 5.9-.6 8.2-.3 2.7.4 5.5.4 8.3.2 5.9-.3 13-.9 18.8-2.1-3.8-4.4-12.6-6.4-18-6.9-3-.3-6.6-.5-9.4.8-3.1 1.6-6 5.3-8.1 8m-27.2-8.3c3.6.5 4.7 4.3 4.6 7.4m-7.9 48.7c-1 2.1-1.9 4-2.6 6.2m-3.6-5c-1.4 2.9-2.6 5.6-3.6 8.6m-2.7-8.1c-1.6 2.3-2.8 4.7-3.4 7.4m23.8-10.1c-1.2 2.5-2.2 6.8-2.2 9.6m8.2-8.4c.1 2.7-1.1 5.2-1.2 7.9m8.1-8.4c.6 2.3-.4 4.4 0 6.7m5.3-8.1c1.1 3.1.3 7 1.9 9.8m3.6-9.6c1.6 1.8 2.8 4 2.6 6.5m5.6-8.4c1.1 2.9 2.9 5.2 3.4 8.4m3.3-5.5c1.4 1 3.6 4.7 4.6 6.2m2.6-5.2c.9.8 3 5.3 4.1 6.7M87.6 161c2.4 3 10.5 2.9 14 3.2 5 .4 12.8.4 16.6-3.4m30.5-3.6c1.1 5.6 17.2 6.8 21.1 5.5m4.3 46.5c-4.9 1-10.6 1.2-15.6 1.7-8.9.9-17.4 2.6-26.4 2.6h-13.2c-3.9 0-9.1 1.7-12.7-.2.7 4.3 8.2 7.3 11.7 8.8 4.1 1.7 8.1 2.8 12.5 3.6 9.6 1.8 19.8.8 28.6-3.7 6.7-3.5 10.7-7.2 15.1-12.8z"/><path class="st1" d="M112 224.8c1.4 2.6 9.6 6.7 12.2 7.7 4.4 1.7 8.7 2.3 13.4 2.4 10.4.1 20.2-3.6 29.3-8.4m-66.6-78.7c-1.6 1-1.4 5.1.5 5.6m7.4.9c4.9 1 5.7-7.6 1.6-8.3m51.5-3.2c-3.5 2.2-2.8 8.8 1.7 9.4m3.1-.1c6.8 0 6.7-7.5 4-8.6M132.7 214c-.2 2.6-.4 4-.4 5.9 0 2.9 1.6 3 4.2 2.7 2.7-.3 4-.1 4.1-3.1.1-1.4.1-5.6.2-6.4m7.4-.1c.2 1.8.1 5.4.2 7 .2 1.9 4.7.9 6.8.2"/><path class="st1" d="M125.2 214.2c-.3 2.1-.9 6.1.3 7.4 1.5 1.7 5 .7 7.4.4m7.1-.4c2.2.7 7.1-.1 9.2-.8m5.3-9.5c.1 2.2.1 5.9.2 7.7.2 2.4 4.1 1 6.2.4 2.1-.7 1.8-4 1.4-8M119 214c-.2 1.7-.9 5.6 0 7.2.9 1.6 4.2.5 6.5.5m-11.8-7.7c-.2 1.9-.4 4-.6 5.9m54.8-9c.3 1.6 0 3.4.2 4.9M120.8 179c-5.6 2.6-5.1 10.9-1.3 13.5 2.4 1.7 4.4 1.8 6.7 0 2.9-2.3 3.5-1.3 6.5.3 2 1.1 4.6 1.8 6.8 1.3 2.7-.6 3.7-3.5 6.2-4.4 2.2-.8 4.6.7 6.8.9 2.5.2 4.5-.2 6.4-2 2-1.9 2-5 1-7.8-.9-2.5-3.4-4.3-6.7-4.3m-81.3 60.4c2.1 4.2 2.1 12.1 2 16.7-.1 5.3-1.4 10.3-1.2 15.6.2 5.8 2.4 11.6 4.7 16.9 3.1 7.2 7 13.7 12.6 19.3 6 6 12.9 9.9 21.1 12.1 6.7 1.8 13.9 4.1 20.8 4.3 13.5.3 26.7-2.1 39.1-7.7 7.4-3.3 13.7-6.6 20.7-10.7 2.9-1.7 6.3-4.3 9-6.4 2.6-2.1 6-7.1 7.5-12.5m-15.3-36.6c-.9 2.1-.3 6.1-.5 8.4-.3 3.2-.6 7 .2 10.1.9 3.3 4.1 5.5 7.1 6.9 2.3 1.1 6 2.5 8.6 2.5M70.6 234.2c-1.2 1.1-3.3 2.3-4.4 2.9-1.4.8-2.8 1.8-4 3-3.5 3.4-6.2 6.1-10.4 8.7-5.5 3.3-7.3 9.9-7.9 16-.8 8.6.5 16.2 2 24.7"/><path class="st1" d="M73.4 259c-1 2.1-6.2 2.8-8.2 3.3-2.4.6-4.8 1-7.2 1.7m141.8-23.5c1.6 1.7 5.1 2.2 7.1 3.4 3.3 2 6.2 4.6 8.1 7.9 2.3 4 3.9 7.9 5 12.4.7 2.8 1.2 5.6 1.7 8.4.3 2 .4 4.5 1.2 6.4M206 264.6c2.9 4.8 2.7 10.2 2.4 15.7-.2 3.9-.4 8-.9 11.9-.5 4-2.2 7.8-2.8 11.7-1.2 7-2.9 15.1-5.3 21.6-.7 2-6.1 16.7-7.1 18"/><path class="st1" d="M217.2 255.2c5.8.6 11.1 3.8 14.3 8.9 3.6 5.8 7.6 10 13.5 13.7 2.5 1.6 2.3 1.8 5.1 2.7 1.8.6 6.6.9 7.8 2.2 2.7 3.1-1 11.2-2.5 13.7-2.4 4-4.7 7.9-7.2 11.7-1.5 2.3-3.2 4.5-4.8 6.8-.7 1-9.2 12.6-12.5 16.4-2.6 3.1-6.4 8.1-8.9 11.2"/><path class="st1" d="M228 268c2.3 3 5.1 5.1 7.1 8.6 3.3 6 3 12.7 2.3 19.3-.7 7.1-2.7 14.5-6.2 20.8-2.2 3.9-5.2 7.3-8 10.8-1.2 1.5-5.5 6-7.2 7.7M58.2 260.6c-.5 9.7.1 19.6-.3 29.3-.3 6.2-.6 12.4-.9 18.5-.2 5.2-.4 11.5.8 16.5m-8-75c-4.6-1.2-11.3 2.8-14.9 5.2-2.1 1.4-3.7 2.8-5.6 4.6-1.7 1.6-4.6 3.1-5.6 5.2"/><path class="st1" d="M57.3 302.7c.4 3.5 3.2 8.5 4.5 11.7 2.2 5.6 3.6 11.4 5.6 17 1.8 5 2.2 7.3 3.8 12.1m-47.5-78.6c-1.4 1.1-3.6-.3-5.2.3-2.4 1-3.9 3-5.8 4.6-3.9 3.5-8.2 3-12.9 3.9m2.9 14.7c2.6 4 6.3 7.4 9.2 11.3 2.2 3.1 4.2 6.2 6.5 9.2 2.3 3 3.7 6.5 6 9.5 2 2.6 3.9 5.3 6 7.8 2.2 2.5 3.8 5.2 6 7.6 2 2.2 4.5 6 5.1 8.9m-17.8-77.8c-3.2 9.9.9 20.7 4 30.2 4.2 13.2 8.2 26.3 13.6 39.1m21.3-70.7c.1 5.3-.2 10.5.3 15.9.6 6.4 1.8 12.2 4 18.2 5.1 14.1 16.9 23.1 29.9 29.6 5.4 2.7 11.4 3.7 17.3 4.5 5.4.7 11 1.6 16.4 2 11.3.9 22.6-1.5 33.4-5.2 4.6-1.6 9.4-3 13.9-5 5.2-2.3 10.2-5.2 15.2-7.9 2.1-1.1 9.1-5.6 11.2-9"/></g></svg>