<svg id="Layer_1" xmlns="http://www.w3.org/2000/svg" viewBox="0 0 260 344"><style>.st0{fill-opacity:0}.st1{fill:none;stroke:#000;stroke-width:2;stroke-miterlimit:10}</style><path class="st0" d="M0 0h260v344H0z" id="Layer_3"/><g id="Layer_2_1_"><path class="st1" d="M195.3 159.3c1.3-3 5.2-9.9 9.3-7.7 1.6.9 2.4 3.7 3.1 5.2 1.4 3.5 2.5 6.8 3.1 10.5 1 6.3 1.9 13.7.9 20-.9 5.7-3.5 11.4-6 16.7-1.8 3.7-3.1 6.3-7.3 7.6-3.3 1-4.2.4-7-.8m-116.7-33c1.7 1.6 3.2 2.7 5.1 3.5 2.3.9 4.6 1.1 7.1 1.2 5.4.3 11.1-1.2 16.1-2.4-3.4-3-7.7-7.2-12.5-7.7-3-.3-6 .2-8.7 1.4-2.5 1.1-4.7 2.3-7.1 4zm56.7-.4c4.3-.1 9 0 13.4.2s8.2-1.7 11.9-3.9c1.8-1.1 4.7-2.6 6.4-3.9-2.1-.7-4.6-1.9-6.9-2.2-4.2-.6-9.1-.1-13 1.3-2.2.8-4.4 2.1-6.4 3.5-1.7 1.2-4.5 3-5.4 5z"/><path class="st1" d="M68.6 174.2c3.3-1.4 6-2.9 8.5-3.7 2.4-.8 5.2-1.4 7.8-1.6 5.1-.3 9.9.2 14.5 2.5 2.9 1.4 5.1 3.5 7.3 5.6m24.7-7.6c3.2-1.8 6.7-3.4 9.2-4.3 2.4-.9 5-1.5 7.6-1.6 5.5-.2 10.1 0 15.1 2m35.3 29.6c2.4-2.1 2.7-6.5 1.8-9.4-1.3-4.3-4.4-5.8-2.3-10.5 1.7-3.8 3.6-7.4 5.1-11.2.7-1.8 1.4-4.2 2.5-5.7m-154 50c-.3-2.9-3.2-5.2-4.2-7.9-.6-1.8-.9-4-.5-5.9.4-1.5 1.2-2.3 1.2-4 .2-4.9-3.1-13.6-6.7-17-1.3-1.2-2-1-3.3.4s-2 3.3-2.2 5.2c-.2 2 0 4 0 6 0 2.3-.6 5.6.2 7.5M84 172.9c-3.6 2.2-1.9 9 2.8 9.6"/><path class="st1" d="M91.3 172.6c1 .7 1.5 1.4 1.6 2.6.1.9.1 2 0 3-.1 1.6-1.1 3.6-2.6 4.1m53.3-13.5c-1.3 1.2-1.9 3.8-1 5.6 1 2 2.7 2.6 4.8 3m2.1-9.8c1.6.8 3.1 2.3 3.2 4.1.1 1.8 0 3.1-1.8 4.8m36 58.3c0 7.2 0 16.5-.6 23.7-1.2 14.1 1.1 28.1 1.1 42.1m-98.6-11.4c-4.3 2.4-12.1 7-15.1 11-3 4.2-7 7-10.9 10.4-3 2.6-6.1 5.6-8.4 8.9-2.8 3.9-4.5 8.5-6.6 12.8-1.4 2.9-3.9 8.1-5.3 11.1m46.9-52c1.5 13-15.1 27.8-16.5 29.9-1.6 2.4-3.4 4.6-4.8 7.1-1.4 2.6-2.2 5.4-3.6 8-1.6 3.1-2.1 3.2-3.3 6.8"/><path class="st1" d="M186.5 273.5c6.5 6.7 11 13.5 13.1 22.8.9 3.9 2.5 7.5 3.4 11.4.7 3 .7 6.2.7 9.3 0 4.7-.2 9.4-.5 14.1-.3 3.9-1.3 8.1-1 12M49.1 328.4c-6 1.7-11.7 5.8-17.2 8.7-5.9 3.2-12.6 4.2-19 6.2"/><path class="st1" d="M185.9 272.6c2.5 1.5 6.3 2.5 8.7 4.2 2.7 1.9 6 4.2 7.8 7 1.3 2 2.1 3.7 3.9 5.4 1.6 1.5 3.5 3 5.3 4.3 1.8 1.4 2.8 1.9 3.7 3.8.7 1.6 1.3 3 2.1 4.5 2.1 3.8 3.2 7.1 3.3 11.6 0 2.4.1 4.8.3 7.2.6 7.5.5 15.2.5 22.8m-18.2-13.5c-1.6 3.9-5.3 7-8 8.8-4.3 2.8-11.5 3.4-16.4 4.8m-101.7-27c-.2 5.5 1.7 11.8 4.1 16.8 1 2 2 4.2 3.4 6 1.2 1.7 3.2 2.4 4.5 4m-21-14.8c-.7 6.3 6 10.7 8.9 14.8m17.3-35.4c.1 1.4.8 2.6 1.2 3.9.9 3 1.6 6.2 2.3 9.2.7 3.2.6 6.6.6 9.8M41.8 126.9c.3 7.3.5 15.1.2 22.4-.3 6.5-.8 13.8 2.5 19.6m62.5 54.8c-2.9-.4-5.4-3.3-5-6.3.3-2.5 2.1-4.8 2.8-7.1m27.5 13.7c2.5-1.5 4.7-3.3 4.8-6.4.1-3.4-2.1-7.9-3.5-10.8m-27 13.7c1.7-.3 4-.1 5.5 1.1 1.2.9 1.8 2.4 3.2 3.2 1.9 1 4.4 1.3 6.1-.2 1.4-1.2 2.2-2.7 4-3.4 2.2-1 4-1.3 6.5-1.3m-11.4-43.7c0 4.6.8 9.2.8 13.9 0 4.8-.7 10.5.8 15M96.2 246c3.6 1 7.1 1 10.9 1 3.3 0 6 .8 9.2 1.1 3.4.3 7.2.2 10.5-.3s6.5-.3 9.8-.5c4.3-.2 7-1.1 11-2.6M108 226.8c-3.5.7-7 2.7-9.6 5.3m11.4-2c-1.7 1.5-4.3 4.1-4.8 6.5"/><path class="st1" d="M148.6 244.2c-3.2.3-6.7-.4-9.9-.5-3.9-.1-8.2-1.3-12.1-.6-2.9.6-5.6 1.4-8.6 1.2-3.3-.2-5.9-.6-9.2 0-4.3.8-8.4 1.1-12.7 1.1 3.8 5.4 10 11 16.6 12.1 5.1.8 11.1 1.4 16.1.1 3.1-.8 7-2.7 9.8-4.2 2-1.1 3.6-2.9 5.3-4.3 1.4-1 3.3-3.4 4.7-4.9M124.5 228c.9 1.5 1.9 3.2 2.4 5 .6 2.2.1 4.2.2 6.4m-6.1-7.5c.6 2.2.3 4.9-.2 7.1m-3.7-6.1c-.6 1.8-1 3.6-1.3 5.5m14.8-11.9c1.4 1.7 2.6 3.5 3.4 5.5.8 1.8.7 3.8 1.2 5.4m.7-10.1c2.3 2.9 4.8 5.9 5.8 9.6m1.2-6.1c1.8 1.7 4.4 2.5 6.4 4.3 1.6 1.5 2.6 3.2 3.2 5.3m-.5-7.3c2.3 2.2 4.9 4.2 7 6.7 1.4 1.7 1.8 4.4 3.1 5.9m-68.7-11.6c-2.3 2.2-5.6 6.3-6.1 9.6m12.6-6c-1.6.2-3.6 2.7-4 4.1m-6 7.8c-.2 2.3-1.7 4.4-2.3 6.6m-5.8-8.9c-.8 2.8-.7 5.6-.5 8.4m.9 6.5c1.8 5 3.6 10.5 4.6 15.7m25 19.4c1.5 1.6 2 4.2 3.6 5.6m-7.1-22.2c-.4 2.4-2.5 4.2-2.5 6.8m10.6-25.5c.1 6.2-4.2 11.6-2.5 18m6.8-11.2c-1.6 6.2-1.7 14.3.3 20.3m-4.8-2.6c.7 2.7 1.7 7.2 3.8 9.1M103.8 265c-.5 4.6-4.8 8.6-4.5 13.1M91.8 263c-.2 3.6 0 8 .5 11.6.6 3.8 3.5 9 6.7 11m27.5-11.8c-.1 3.1.1 6.2.3 9.3.2 5-.5 10.9.9 15.7m3.6-34.1c2.1 3.4 3.5 7.7 4.4 11.6.5 2.5.8 5 .8 7.6 0 .8-.1 1.6.2 2.4m-4.3-2.1c.1 3 .4 5.9.2 8.9-.1 1.9-.8 5 0 6.8m9.9-27.6c-.1 4.7 0 9.5 0 14.2m2-27.4c1.8 2.7 3.5 5.3 4.3 8.5.6 2.2-.4 7.4.6 8.8m.7-20.6c.9 3.4 2 6.7 2.3 10.3m1-14.8c2.2 1.4 4 5.2 4.8 7.6 1.5 4.6 1.3 9.8 1.3 14.7m3.5-21.8c1.2 4.6 3.1 9.9 3 14.6m13.5-42.5c0 4.5 1 9.6.2 14.1m-2.8.6c-.7 2.1-.4 4.6-.5 6.8-.1 2.6-.8 5.3-1 7.9m-2.6-.4c0 4.1-.3 8-.5 12.1M120.5 97.1c-2.4-.6-5-.6-7.4-1.4-3.1-1-4.6-3-5.7-6-2.9-7.5-2.6-18.9-10.5-23.4s-16.5-6.7-23.2-13.2c-5-4.9-7.4-11.5-6.3-18.4m38.1 63.9c-5.4-3.8-14-3.2-19.9-.8-5.2 2.1-8.3 5.2-11.4 9.8-2.7 3.9-3.8 9-8.9 10.5m61.4-21.6c-2.2-1.9-4.9-3.2-7-5.4-2.3-2.2-3-4.1-3.2-7.3-.3-4.6.9-9.3.5-13.9-.4-5-6.8-8.3-10.5-11-7.2-5.2-18-11.6-16.6-21.9.6-4.5 4.3-10.3 8.6-12.2"/><path class="st1" d="M94.2 58.1c-3.7-3.3-8-5.3-10.8-9.6-2.6-4-4.6-8.7-4.4-13.4.1-4.7 3.5-8.2 8.1-8.6m49.1 67.3c-2.3-.5-6.2-2.4-7-4.7-.7-2-.2-4.7-.2-6.8 0-7.8-1.4-13.5-7-19.4-2.9-3.1-5.4-6.4-8.9-8.8-3.5-2.4-7.3-4.4-10-7.8-2.9-3.6-4.2-9.5-3.1-14 1.2-5 4.5-7.9 9.1-9.5M142 91.5c2.1-3.8 4.6-7.2 5-11.7.3-3.2.6-7.1-1.3-9.9-1.2-1.8-3-3.2-4.5-4.7-2.8-2.9-5.5-6-8.2-9.1-4.1-4.7-8.6-8.9-12.7-13.6-2.5-2.9-4.7-6.9-4.7-10.9 0-2.1 1.2-3.6 2.5-5.2 2.7-3.3 5.7-6.2 10.1-6.3"/><path class="st1" d="M148.2 89.5c2.9-1.9 5.8-3.9 7-7.4 1.3-4 .4-7.8-1.7-11.3-4.3-7-7.9-14.5-11.6-21.9-2.7-5.5-5.3-13.9-2.7-19.9 1.1-2.6 3.7-6.6 6.9-6.4"/><path class="st1" d="M153.9 89c2.8-2.1 5.1-3.3 6.7-6.6 1.7-3.6 1.5-8.9.6-12.7-.7-2.9-2.5-5.3-3.7-8-1.5-3.3-2.7-7.4-3.3-11-.9-6-1.6-13.3 3.8-17.4"/><path class="st1" d="M157.6 89.9c5.4-3.4 10.2-8.4 12-14.8 1.8-6.6-.9-12.5-2.5-18.8-1.6-6.2-2.8-12.2.6-17.8"/><path class="st1" d="M162.9 91c4.8-1.3 10.6-1.1 13.2-5.8 3.1-5.6 3.6-12.4 2.8-18.7-.9-6.6-3.6-13-6-19.2"/><path class="st1" d="M170.6 95.3c7.3.2 12.5-9.2 14.1-15.2 1.2-4.3.8-9.8-1.7-13.6m-77.4 27.7c-2-2.6-4.5-4.6-6.8-6.9-2.6-2.6-3.3-5.3-4.4-8.7-1.1-3.2-1.9-5.8-4.7-7.9-3.2-2.4-6.9-4.3-10.3-6.5-5.7-3.7-10.6-8.7-15.1-13.8-2.7-3.1-4.5-5.8-5.2-9.8-.3-1.6-.3-3.3-.5-4.9m35.8 53.8c-2.8-2.8-6.7-4.6-9.7-7.2-3.6-3.1-7.7-6.6-10.6-10.5-2.1-2.9-3.2-6.3-5.5-9.1-1.6-2-3.5-3.9-5.5-5.5-2.7-2.1-5.7-3-8.8-4.4-1.6-.7-4.5-1.9-4.2-4.2m37 42.8c-6.4-2.9-12.3-5.8-17.4-10.8-4.5-4.5-8.6-10.4-13.9-14.1-3.7-2.7-6.5-4.4-11.1-4.4m35.6 33.2c-2.4-1.5-6-1.8-8.8-2.5-4-1.1-7.7-2.2-11.4-4.2-4.6-2.5-7.7-4.8-10.7-8.9-2.5-3.4-4.8-6.2-5-10.5"/><path class="st1" d="M79 99c-6.6 1.4-14.4 1-21.1.7-6.6-.3-12.6-5-16.8-9.9-3.4-4-1.8-9.6-.6-14.1m29.6 29.4c-1.7.8-3.3 2.1-4.9 3.1-2.6 1.8-5.4 3.2-8.2 4.7-3.6 2-7 3.7-10.9 5.3-2.8 1.2-5.8 2.1-8.9 1.2-2.7-.7-4-3.4-6.2-4.9m31-9.1c-2 1.6-9-.8-10.8-1.4-4.5-1.6-6.4-3.7-10.8-5.8-3.3-1.5-10-3.3-9.3-8.4m37.5 21.1c-2.9 1.7-5.4 4.2-8.1 6.1-3.9 2.8-7.8 5.8-12.2 7.8-5.2 2.4-9.4 2.2-14.6.5M169.2 100c4.2 5.3 4.4 13.4 5.9 19.7 1.6 6.7 5.4 12.2 6.1 19 .4 3.3.8 5.7 2.1 8.8 1.5 3.7 3.2 7.9 3.2 11.9 0 3.4 0 6.8.5 10.1.3 2.4 1.1 4.8 1.3 7.1.5 4.9.8 8.3.1 13.3-.6 3.8-1.5 7.7-2 11.4-.6 3.5-1.5 6.5-2.5 9.9-.8 2.5-1.8 5.7-1.7 8.4M50.4 109.4c-3.7.1-7.1-.6-10.6-1.7-4.3-1.3-8.8-2.9-12.7-5m78.4 63.4c.4-.4.3-1-.1-1.3-1.8-1.1-4.1-1.8-5.9-2.7-2.1-1-4.1-2-6.3-2.8-3.4-1.3-7.4-3.7-11.3-3.2-7.5 1-14.2 5-21.3 7.6-1.3.5-4 .5-2.7 2.2 1.2 1.7 4.1 3 6.2 3.2 3.8.4 7-.5 10.5-1.5 4.2-1.2 9-1.5 13.3-1.6 2.3 0 4.4.7 6.6.9 2.3.3 4.4.4 6.7.1 1.6-.1 3.3.1 4.3-.9zm21.4-3.9c-.5-.2-.8-.8-.6-1.4 1.2-3 4.9-3.7 7.6-5 3.3-1.7 6.7-2.5 10.2-3.5 2.1-.6 4.2-1.6 6.4-1.6 5.7-.2 11.6 0 17.2.8 1.6.2 4.5-.1 4.7 1.9.3 2.4-.4 4.7-2.4 6.1-3.4 2.4-9.2 1.5-13 1.4-4.1-.1-8.1-.4-12.2-.1-3.9.3-7.7 1.4-11.5 1.7-1 0-4.8.4-6.4-.3z"/><path class="st1" d="M54.9 123.8c-2.6 11.6-5.8 23.4-6.5 35.3-.4 7.2-.6 16.8 1.5 23.4.8 2.7 1.1 5 1.3 7.8.4 4.8 2.5 9.6 3.9 14.2 1.1 3.7.9 8.1 2.4 11.5 1 2.3 2.7 4.2 3.6 6.5 1.9 4.9 2.5 10.2 4.2 15.1 1.6 4.6 2.7 6.7 5.1 10.9 2.5 4.2 4.4 8.7 6.1 13.1m10.7-69.3c6 0 10-1.4 14.7-4.9m31.6-4.7c3.3 4.6 14.6 4.5 19.4 4.4"/><path class="st1" d="M44.4 168.9c-2-2.3-6.9-8.5-9.2-3.4-.8 1.8-.8 4.2-1 6.1-.3 2.7-1.3 5.4-1.6 8-1.4 14.1 4.2 27.3 12.2 38.3 1.8 2.5 4.1 5.1 7.2 5.1 2.7 0 2.7 0 4.6-1.2 1.6 3.8 2.8 9.9 4.5 13.9 1.5 3.3 1.2 6.3 2.3 9.8 2.2 7.2 4.6 13.2 7.1 20.2 1.7 4.6 1.7 8.4 6.3 11.1 2.9 1.7 3.7 4.5 5.7 6.9 1.3 1.6 4.4 4.3 6.3 5.3.3 3.5 4 7 6.8 9.1m93.7-214.2c-.1 3.8-.3 8.8.8 12.5.9 3.1 3.1 5.5 3.9 8.7 1.2 4.4 1.3 10.2 1.7 14.7.8 7.6-1.3 13.7-.1 21.2 1.4 8.8-1.8 32.9-3.2 40.9-.7 4 0 8 0 12.1 0 8.8-.7 16.8-2.7 25.4-.6 2.8-1.5 5.4-2.2 8.2s-.4 5.7-.6 8.5c-.4 4.6-2.9 7.6-4.6 11.6-.9 2.1-1.4 4.1-1.9 6.3-.4 1.6-3.5 13.3-5 17.5-.8 2.4-2 4.3-2.4 6.7-.3 1.9-.4 2.5-1.6 4.2-1.6 2.3-2.9 4.9-4.4 7.3-1.5 2.5-3.2 2.4-6.2 2.4-4.3 0-6.2-.8-9 2.7-2.5 3.1-5.7 3.6-8.8 5.9-2.8 2-3.5 5.4-5.8 7.8-1.4 1.5-5.9 4.1-7.9 3.5-2.4-.8-1.8-5.1-3.7-6-3-1.5-3.9 3.4-6.1 3.9-2.2.6-3.7-2.6-5.6-2.4-4.4.3-6.5-3.7-9.4-6.2s-4-5.9-6.2-8.9m118.4 8.2c2.8 1.3 7.6 1.7 10.3 3 2.2 1.1 4.1 2.8 6.4 3.8 3.7 1.6 8.1 4.1 11.7 5.8"/></g></svg>