<svg id="Layer_1" xmlns="http://www.w3.org/2000/svg" viewBox="0 0 260 344"><style>.st0{fill-opacity:0}.st1{fill:none;stroke:#000;stroke-width:2;stroke-miterlimit:10}</style><path class="st0" d="M0 0h260v344H0z" id="bg"/><g id="Layer_2_1_"><path class="st1" d="M69.8 138.8c3.6 4.1 27.1 4.8 35.9-3.4-4.9-5.2-10.9-9.1-18.3-8.2-6.5.8-14.1 6-17.6 11.6zm72.3-9.2c-.4.7-.2 1.5.6 1.8 4.4 2.2 11.9 3 16.4 3.1 5.9.1 12-1.8 17.4-2.7 1-.2 1.4-1.4.7-2.2-4.7-4.6-11.1-8.2-17.5-8.6-6.4-.1-14 3.2-17.6 8.6zm-84.6 1.7c4.8-3.1 8-8.2 13.8-10.6 5.1-2.2 9.5-2.5 14.9-2.2 4.8.3 9.4.9 14.4.8 3.3-.1 4.5-.8 4.8-4.3.3-2.4.1-5.1-.6-7.5-.5-1.6-12.8-.9-15.2-.9-5.1 0-10.6-.2-15.5 1.1-5.9 1.6-10.6 5.2-13.6 10.4-.9 1.6-10.4 16.5-3 13.2zm123.7-15.1c-.1 1-1.2 1.5-2.1 1-3.7-2.4-8.3-4.8-12.5-5.1-4.8-.4-9.2 1.5-13.8 2.5-3.9.9-9.9 4.7-13.8 3.8-4.4-.9-1.7-9.3-1.1-12.6 3.4-2.6 10.6-1.6 14.6-2 4.8-.5 10.1-1.3 14.6.3 3.8 1.3 7.2.3 10.3 3.5 1.9 1.7 4.1 5.6 3.8 8.6z"/><path class="st1" d="M83 128.2c-4.7 3.8 0 10.2 4.8 10.6 6.1.5 11.6-7.9 6.2-10.9m61.7-6.4c-5.4.7-3.4 9.6 2.2 9.8 4.9.2 9.6-4.5 6.7-9.1M49.5 134.4c-2.9-3-5.6-2.9-7.8.9-1.5 2.8-1 5.4-.5 8.4.9 5.2 1.5 10.5 2.8 15.5 1.2 5.1 3.3 10.3 4.1 15.5.6 3.6-.3 15 5.7 12.9m51.7-29.3c-3.4 4.3-8.4 11.3-1.6 15.8 4.3 2.9 4.9-1 8-3.2 3.3-2.5 4.6.8 3.4 4.1m17.5-44.6c-2.4 4.4-4.8 13-2.4 17.8 1.6 3.3 5.1 4.7 5.8 8.7.5 2.8.2 6.8-1.3 9.2"/><path class="st1" d="M140.3 156.9c3.8 2.1 10.8 12.5 2.3 13.7-2.9.4-5-2.5-7.8-2.5-3 0-6.3 4.6-2.6 6.4m-39.4 24.9c5.8 0 11 1 16.6 1.9 5.8 1 10.4.2 16.1-.2 5.4-.3 10.7.3 16.1-1 5.8-1.3 11.1-5 16.9-6.3m-62.2-23.7c-2.3 2.5-4.1 5.4-6.2 8-2.1 2.7-4.9 5-6.5 8.1m66.1-25.1c2.2 3 6 4.3 8.7 6.8 2.9 2.6 6.1 6.3 8 9.7m40.5-57.8c3.3-.6 5-2.9 6.8 1.4 1 2.4 1.4 5.4 1.5 8.1.3 5.5-.6 10.9-1.1 16.4-.6 5.5-2 11.2-4 16.4-1 2.8-4.9 14.8-6.4 15.2m.4-27.7c-.2-6.1 1.7-16.3 5.7-21"/><path class="st1" d="M97.7 202.9c4.8 2.4 8.8 5.3 14.1 6.6 4.7 1 9.3.8 14.1.4 10.4-1 18.4-3.8 26.4-10.6"/><path class="st1" d="M135 177c4.1.2 8.4 1.9 12.4 2.8 4 .9 8.6 1 12.4 2.4 4.9 1.9 8.6 4.9 11.7 9.2 1.4 1.9 2.8 4.1 3.6 6.3.4 1 .6 2.2.7 3.3.2 1.3 1.9 1.8 2.8.8 2.9-3.7 3.8-8.2 5.6-12.6.7-1.7 1.7-5.9 4.4-5.4 1.6.3 2.4 2.8 3.3 4.7.5 1 1.9.8 2.1-.3.6-3.3.8-6.8 1.1-10.2.4-4.2 1.6-8.5 1.5-12.6 0-6.5-1.1-12.3-.1-18.6 1-6.6.2-12.3.2-18.8 0-5.2-.4-10.5-1-15.7-.3-2.7-1-5.7-2.8-7.8-2.1-2.4-4.5-1.6-5-5.1-1.7-10.1 1.6-20.3-.3-30.4-2.5-12.8-11.2-20.8-21.9-27.7-5.2-3.3-10-7.4-15.5-10.3-2.5-1.3-5.8-2.3-8.5-2.9-8.4-2.3-20-2.9-22.5-2.7-5.2.5-10.6.8-15.5 2.5-5.6 2-11.6 5.2-16.4 8.7-5.2 3.8-10.5 8.5-14.7 13.3-3.7 4.3-7.2 9.6-9.8 14.7-2.6 5.1-5.2 10.2-7.3 15.5-4 10.2-2.9 20.8-4 31.6-1.2 11.8 3.4 23.3 3.4 35.1 0 5.9 0 12.3.6 18.1.5 5.6.9 11.6 2.3 16.9 2.3 8.1-1 18.2 3.1 25 1.7 2.9 4.7-.1 7.5.6 1.5.4 2.6 2 4.1 1.3 1.1-.5 1.7-2.9 2.1-3.9 1.7-4.6 1.3-12.1 5.4-15.5 3.8-3.2 10.9-1.8 15.5-3.3 2.8-1 5.3-1.9 8.1-2.8 2.7-.9 5.4-4.6 8.1-4.3"/><path class="st1" d="M63 248.8c-.8-5.6-2.7-9.4-4.6-14.6-1.7-4.7-2.5-9-2.9-14.4-.6-8.6-2.3-16.7-2.3-25.6 0-8.3-.3-16.6-.7-25-1.5-30.1-8.9-59.6-.5-89.4 9-31.7 38.1-58.5 72.3-58.7 3.7 0 8.9 1 12.6 1.9 4.1 1 8.3 2.1 12.1 3.9 8.7 4 17.1 8.8 25 14.2 15.7 10.5 25.3 29.4 28.3 47.7 1.6 9.6 4.9 18.5 4.9 28.4M65.3 243.7c2.5 2 3.7 14.9 4.3 16.4m4.3-1.5c0 4.7 1.5 11.4 3.7 15.5m3.7-3.4c-.2 4.2 1.1 9.5 2.3 13.5.6 2 6.1 12.6 8.1 6.9 1.6 1.7 3.8 3.5 6 4.7 1.4.8 5.4 2.9 6.7 2.7 3.5-.5 1.1-10.2 1.1-12.8m5.7 2.7c2.6 4.1 1.5 8.2 6.3 11.2m5.2-6.8c1.2 2.4.7 6.8.6 9.3"/><path class="st1" d="M85.9 205.7c-.4 1.9.3 4.5 1.7 5.9 1.5 1.5 3.8 1.3 5 2.9 1.5 2.2 1.4 10.4 2.5 12.6m20.2-9.6c-.3 1.7-.9 3.1-1.4 4.8-1.1 3-4.5 8.1-4.7 10m10.6-11.9c0 1.7.1 3.4 0 5-.1 1.8-.6 6.3-.6 6.4m7.6-14c0 4.2-.9 9.2.6 13.2m4.8-13.5c1.8 3.3 2.5 8.4 3.4 12.1m5.5-4.7c2.8.3 5.4-2.8 7.8-4 3.1-1.6 5.6-3.1 8.1-5.9 2-2.2 4.2-5.3 5.1-8.2.8-2.5.6-5.2 1.4-7.8m44-82.6c0 4.2-2.1 4.8-3.9 8.4-1.3 2.6-2.1 5.8-2.5 8.7-.7 5.6-1 11.9-.6 17.5.9 12.7 2 25.9 4 38.5 1.2 8.1-.2 23.6-.2 23.6-.6 7.5-2.5 14.5-2.6 21.9-.1 7.5-3 14.6-4.8 21.9-1 3.9-2.3 7.8-4.1 11.5-2.2 4.5-6.2 7.1-9.3 10.9-2.9 3.4-5 8.5-9.3 10.4-1.6.8-3.4.4-5.1.9-2.1.5-3.8 1.6-6.1 2-2.2.4-4.3.2-6.3 1-2.2 1-3.7 2.7-6 3.3-2.9.8-3.4.3-4.6 3.7-.3.8-.6 1.9-1 2.9-.4.9-1.6.6-1.5-.4.4-3.8-.1-8.2-.4-11.3-.1-1-1.2-1.2-1.8-.5-2.1 2.9-3.7 7.6-5.3 10.4-3.8 6.2-4.8 1.4-3.7-2.9.4-2.2.7-5.4.6-7.7m57.9-61.2c1.2 4.8-2 10.9-3.7 15.2M79.1 233.3c-.8 4.6.2 11.5 1.7 15.8m7.8 2.8c1.2 1.6.9 5.7 1.1 7.7.6 3.5.5 8.1 2.3 11.3m7.1-17.4c-.3 6.7-.2 14.1 1.1 20.7m-30.4-56.7c-.3 4.5.1 13.3 2.6 16.9m31.4 9.8c.3 5.6.6 11.2.6 16.9m9.2-1.4c.7 2.2-.1 5.6 0 7.9.1 4.3.4 8.6.3 12.7m10.5-42.7c-.6 1.9-.3 4.4-.4 6.4-.2 4.7-1.3 9.7-1 14.4m6.6-1.8c-1 2.5-.6 5.5-.9 8.1-.5 4.3-.8 8.7-1.7 12.9m12.7-16.2c-.2 5.5-2.5 10.8-2.9 16.4m12.3-46.2c.2 5.2-.4 11.3-1.4 16.4m-5.4-10.1c.2 5.2-2.1 10.2-2 15.2"/><path class="st1" d="M159.8 225.5c.9 2.4.2 5.7 0 8.1-.7 6-1.8 11.7-3.1 17.5m27.2-43.4c1.2 2.4.6 5.7.3 8.3-.8 8.9-3.5 17-5.8 25.7m15.9-36.3c1.6 4.9-1.1 12.8-2.6 17.5m-19.3 4.4c-.1 4.2-1 9.1-2.9 12.9m-8.3 17.5c.7 1.5.4 5.1.2 6.2-1 6.8-4 12.8-7 18.8m-3.2-18.1c1.5 4.3-1 10.8-2.9 14.6m23.3-24.3c.5 7.1-3.3 14.3-4 21.3m20-23.7c.9 2.2.2 4.8-.3 7-.7 2.9-1 6.8-2.3 9.3m-5.9-3.1c.1 6.6-2.9 11.8-7.2 16.6m-83.6-46.1c1.8 2.7.6 8.7.6 11.8m112.5-9.3c7.3 4.8 9 10.3 10.1 18.5.6 4.7.3 9.2 1.2 13.8.7 3.6 1.5 7.3 1.7 11 .5 8.7-.5 17.4.3 26 .6 6.2.5 21.4.4 29.1 0 2.3-2.9 3.2-4.3 1.3-4.5-6.3-10.5-19.1-17.6-19.8-9.5-1-29.7 24.4-29.7 24.4"/><path class="st1" d="M194.6 263.7c.4 5.2-1.6 14.6-4.2 19.1-3.3 5.8-6.5 11.8-10.1 17.4-3.1 4.9-4.9 10.5-8.7 14.9-3.1 3.7-19.1 23.4-21.5 28m-57.3-50.9c5.9 6 12.5 13.9 16.2 21.5 1.5 3.1 8.5 17.4 8.5 28.3m-50-89.5c-8.5.9-10.8 12.5-11 17.6-.3 6.7-.8 13.3-.7 20 .1 6.8-4.2 49.3 2.2 51.9 5.2 2.1 23-31 30.6-29.5 5.8 1.2 17.8 11.6 25.8 29.5m97.4-85.1c2.4-.2 6.8 2.2 9.2 3.1 2.9 1.1 5.4 2.8 8.2 4 3.5 1.5 12.8 3 17 4.9"/><path class="st1" d="M58.4 260c-4.8-1.4-14.2 4.2-18.4 6.3-5.9 2.9-12 5.7-18.2 7.7-4 1.2-8.4-.3-12.5 2.2M94 199.4c4.7-.2 11.5-2.1 16.2-3.2 5.2-1.3 9.8.9 14.9-.2 5.2-1 9.9-1 15.2-1 4.8 0 13.6-1.6 18.3-1.1"/></g></svg>