<svg id="Layer_1" xmlns="http://www.w3.org/2000/svg" viewBox="0 0 260 344"><style>.st0{fill:#fff;fill-opacity:0}.st1,.st2{fill:none;stroke:#000;stroke-width:2}.st2{stroke-miterlimit:10}</style><g id="Page-2.4-_x28_venue_x2B_photos_x29_"><g id="speakers" transform="translate(-1010 -768)"><g transform="translate(1010 752)" id="_x38_"><g id="Mask"><path id="path-1_1_" class="st0" d="M0 16h260v344H0z"/></g><g transform="translate(-70 17)" id="Page-1"><path id="Stroke-1" class="st1" d="M130.6 117.8c-2.8-1.6-9.2-3-11.5-.1s-1.2 9.7-.9 13.1c.5 5 2.8 7.3 4.9 11.7 2.1 4.7 1.2 9.9 2.2 14.8.7 3.3 4.2 11.5 8.4 11.2"/><path id="Stroke-3" class="st1" d="M268.6 119c10.7-10 13.3 6.1 13.8 12 .5 6.1-1.9 9.2-4.1 14.5-1.9 4.5-1.7 9.7-3.3 14.2-1.6 4.4-5 8.2-10 7.7"/><path id="Stroke-5" class="st1" d="M131.8 129.7c-1.7-5.8-5.6-9.3-8.6-8.7-4.1.8-1.8 13.8 1.5 17.4"/><path id="Stroke-7" class="st1" d="M266.1 133.5c1.4-4.2 5.6-15.2 9.7-8.3 3.2 5.5 2 12.9-1.1 18.1-2 3.3-4.5 6.4-7.1 9.4"/><path id="Stroke-9" class="st1" d="M131.5 127.4c-1.1-7.7-2.3-34.5-2.3-40.3 0-4.3-1.1-8.7-.7-12.9.5-5.1 4.3-9 5.5-13.9 1.3-5.3 1.6-10.9 4.8-15.6 5.6-8.3 12.5-13.3 21.5-17.1 4.7-2 9.2-4.4 13.9-6.3 3.9-1.5 8.3-1.5 12.5-2.7 6.7-1.9 13.8-2.2 20.7-1.5 6.1.7 13.1 4.2 19 6.3 5 1.8 10.3 5 15.2 7.4 4.1 2 8.3 6.2 11.1 9.8 2.3 2.9 4.6 6 7.1 9 3.9 4.7 4.2 9 5.7 14.9 1.9 7.7 4.3 15.6 4.3 23.5 0 8.6-.1 17.1-.6 25.5-.4 7.3-2.5 13.9-3.2 21.3-1.1 10.7-.1 22.1-.7 32.9-.4 8.3-2.3 16.4-3.6 24.5-1.6 9.9-5.8 17.7-10.9 26.5-6.1 10.4-13.2 17.5-22.7 24.8-5.1 3.9-9.3 8.3-14.1 12.6-5 4.4-12.9 5.2-19.4 5.2-10.3-.1-19.4-5.7-26.7-12.6-6.5-6.1-12.5-13.1-17-20.8-1.8-3.1-3.7-6.3-5.9-9.2-1.5-1.9-3.1-5.3-4.2-7.5-2.1-4.3-3.2-8.6-4.2-13.2-1.1-5.2-1.3-10.4-2.1-15.7-1.8-12-1.9-24.8-1.9-36.9 0-3.8.2-7.6-.2-11.5-.2-3-.6-3.7-.9-6.5"/><path id="Stroke-11" class="st1" d="M153.2 134.9c7.1-7.8 17.1-7.9 26-2.5 2.1 1.3 3.5 2.9 5 4.8-5.1 1.2-10.9 2-16.2 2.3-4.5.2-12.2-.2-14.8-4.6z"/><path id="Stroke-13" class="st1" d="M211.4 136.7c6-10.5 26.9-10.8 31.8-1.5-3.3 4.7-10.1 4.6-15.2 4.6-5.5-.1-11.6-.5-16.6-3.1z"/><path id="Stroke-15" class="st1" d="M159.3 122.4c4.8.6 9.5 1.4 14.2 2.5 3.5.8 9.5 2.5 12.7.9 6.4-3.2-9.5-10.5-12.9-10.7-4.7-.3-9.4-.9-14.2-1.1-2.4-.1-6.1-.8-8.2.5-2.7 1.7-3.1 5.4-4.3 8-1.4 3.2-2 4.9-2.1 8.5.4.8 7.2-9.6 14.8-8.6z"/><path id="Stroke-17" class="st1" d="M218.3 125.2c-2.2.4-11.7 1.1-9.4-4.3.6-1.3 3.6-2.1 4.8-2.7 2.9-1.4 6.5-2.8 9.7-3.3 4.5-.7 9.7-1.6 14.1-1.7 6-.1 7.5 1.9 11.3 5.7 1.9 2 7.7 7.3 5 9.2-2.6 1.8-6.6-3.4-10-4.1s-7.1-.7-10.7-.7h-7.6c-2.3.1-5 1.4-7.2 1.9z"/><path id="Stroke-19" class="st1" d="M190.6 132.6c1.2 5.9.5 11.2-.3 17.1-.3 2.1-1.3 4.4-1.9 6.4-.6 2.2-1.4 3.7-2.5 5.7-2.2 3.7-3.2 8.3-1.5 12.3 1.5 3.5 6.3 10.4 10.2 11.2 4 .8 8.1-4 9.4-7.5"/><path id="Stroke-21" class="st1" d="M184.8 163.9c-3.1-.1-12 2.6-10.5 7.8 1.5 5.3 7.2 5.3 11.7 5.3"/><path id="Stroke-23" class="st1" d="M209.2 177.4c3.1 1 8.2.2 9.4-3.1 1.7-4.6-3.1-9.2-7.2-10.3"/><path id="Stroke-25" class="st1" d="M207.1 181.9c10.2.1 14-.7 20.5.6s9.7 5.7 13.3 10.7c1.8 2.6 4 .1 4.9-.7 16.7-15.1 16.1-40.4 16.1-60.5 0-8-.4-11.7.1-19.6.1-1.9-.7-6.8-1.7-8.4-1.1-1.9-3.4-3.3-4.8-5.1-3.1-4.1-4.5-8.5-4.8-13.8-.4-6.2.4-12.9-.8-19-1.3-6.4-9.2-7-14.6-7.2-5.5-.2-8 2.9-12.9 4.3-3.7 1.1-8.2.7-12 1.5-2 .4-3.5.8-5.3 1.8-7.2 4.1-17.5-.9-25.7-.3-3 .2-4.9 1.8-7.6 2.6-2.7.8-17.8-2.1-20-2.6-1.9-.5-7.7-.8-9.4.5-2.3 1.9-2.8 8.8-3 11.5-.4 4.2-.8 8.6-.8 12.9 0 4.2-2.2 6.3-3.6 10-1.6 4.5-.7 9.1-.2 13.7.4 3.6.6 53.8 8 66.7 2.6 4.5 6.4 7.8 10.5 10.9 2.2 1.6 2.2 1.5 3.4-.8.8-1.7 1.2-3.6 2.2-5.2 5.8-10 16.3-6.5 26.3-5.7"/><path id="Stroke-27" class="st1" d="M170.7 193.4c3.3 1.9 7.5 2.7 11.2 4.3 3.6 1.5 7.2 1.7 11 1.8 7.3.3 14.7 1 21.9-.3 3.1-.6 6.8-1.1 8.8-3.8"/><path id="Stroke-29" class="st1" d="M173 198.2c5.7 4.1 11.1 8.2 18.3 8.9 6.2.6 14.1 1.4 19.9-1.3 2.1-1 4-2.6 6-3.8"/><path id="Stroke-31" class="st1" d="M166.9 128.6c-3.2.3-4.9 4.3-4.1 6.5 1 2.8 3.3 3.7 5.8 3.9 3 .2 5.7-1.5 6-4.8.2-2.6-1.1-4.4-4-5.2"/><path id="Stroke-33" class="st1" d="M226.4 128.6c-3.5.4-4.4 4.6-3.3 6.8 1.5 2.9 4.2 4.4 7.4 3.6 2.5-.7 3.6-2.4 3.7-5 .1-2.9-1.8-5.5-5.1-5.5"/><path id="Stroke-35" class="st1" d="M150.1 131.8c2.9-3.5 8.7-6 13.2-5.6"/><path id="Stroke-37" class="st1" d="M232.6 125.7c5.5.1 9.8 4.4 13.7 7.9"/><path id="Stroke-39" class="st1" d="M184.2 143c-1.6 4.5-7.5 6.9-11.8 7.6-3.5.6-9.6.9-12.6-1.3"/><path id="Stroke-41" class="st1" d="M214.2 143.3c4.6 7.3 17.4 6.7 24.4 4.8"/><path id="Stroke-43" class="st1" d="M190.3 304.6c5.7-.4 11.9-1.3 16.9-4.1 6.5-3.6 13.3-8.6 18.4-13.9 3.4-3.5 7-7.4 9.2-11.8 1.8-3.6 3.4-7.1 5.5-10.5 4.4-7.3 10.8-15.5 10.8-24.4 0-6.3-.1-13.2-1.5-19.3"/><path id="Stroke-45" class="st1" d="M153.7 232.1c.1 11.5 2.9 20.9 9.1 30.7 6.3 9.9 14.7 18 22.2 26.9 3.2 3.8 7.5 6.4 11.3 9.5 1 .9-12.8 7.1-19 10.2-6.9 3.5-15.4 4.1-22.3 7.6-2.1 1.1-4.2 4.4-6.5 1.9-1-1.1-1.9-4.7-2.6-6.3-.7-1.6-1.1-3.2-1.6-4.8-1.3-4.5-3.8-8.5-5-13.2-1.6-6.1-2.2-11.1-2.5-17.4-.4-7.6-1.6-16-1.6-23.6 0-3.8-.4-7.8.3-11.5.6-3.3 2.5-5.2 4-8.1 1.8-3.6 4.3-9.4 6.7-13"/><path id="Stroke-47_1_" class="st1" d="M254.8 211.9c-.3 3.1 2.8 8.4 4.5 11 1.6 2.5 3.9 4.5 5.6 6.9 4.7 6.4 5.1 14.7 5.1 22.4 0 17.7-4.6 35.2-11.6 51.4-2.9 6.7-5.4 14-10.2 19.6-6.2-4.5-12.2-6.4-19.2-9.4-8.4-3.6-17.8-11.7-26.7-10.3-4.7.7-11.8 1.3-11.8 1.3-1 3.2-1.6 9.5-1.8 12.9-.4 7.2-1.2 18.3-1.5 25.5"/><path id="Stroke-49_2_" class="st1" d="M141 231.3c-1.8 2.8-7.5 6.3-10.2 8.3-6 4.4-12.6 9.6-19.2 13.2-5.2 2.9-11.2 3.5-16.5 5.9-4.7 2.2-9.4 4.6-13.5 7.8-2.2 1.8-9 8.1-11.6 8.1"/><path id="Stroke-51_1_" class="st1" d="M267 233.5c4.7 1.8 9.1 6 13.5 8.5 4.5 2.7 8.3 6.4 13.2 8.1 12.9 4.6 24.7 11.8 36.3 19.2"/><path id="Stroke-55_1_" class="st1" d="M108.2 318.3c-2 5.8-4.4 11-8.1 15.9-5.3 7.1-7.2 8.8-7.2 8.8"/><path id="Stroke-57_1_" class="st1" d="M211.6 304.8c.7 4.8.9 10.3.9 15.3 0 6-.3 16.9-.4 22.9"/><path id="Stroke-63_2_" class="st1" d="M295.7 343c-2.9-3-5.8-6-7.8-10.1"/><path id="Stroke-65" class="st1" d="M202.5 307.4c-2.7-2.6-9 4.7-3.3 7.3 4.1 1.8 6.2-4.5 3.3-7.3z"/><path id="Stroke-69" class="st1" d="M243.5 249.1c-8.3 13.5-18.9 26.7-31.8 36.4"/><path id="Stroke-143" class="st1" d="M196.3 299.8c.2.7.3 1.7.2 2.4 0 .4.1 1.3 0 1.6"/></g></g></g></g><path class="st2" d="M124.5 222.3c6.9 4 7.5 10.8 2.8 16.9m7.7-15.1c4.6 4 4.1 10.7.8 15.6m7.9-13c4.4 4.7 3.6 10.6-.5 15.3m-30.5-13.8c-1.6 5.3-1.4 11.4 1 16.4m-12-19.4c-1.8 3.8-2 9.3.3 13m22.5 7.4v9.2m32.2-41.4c5.5 3.2 1.5 11.3.3 15.6m7.4-30.4c.2.8 1.2 2 1.8 2.9 2.6 4.4 4 10.2 2.6 15.3m-78.3-13.1c-2.1 6-1.9 13.5-1 19.7m-9.5-20c1.1 3.5-.6 8.3.5 12.3m-4.9-19.2c-1.4 2.6-1.8 6.6-1.3 9.5m79.6 28.1c.2 3.3-.9 6.4-2.6 9.2m24.3-39.4c2.3 5-.1 11.1-2.6 15.6m9.5-22c1.7 2.1.8 6 0 8.4m-83.3-19c-1.5 4.3-2 8.7-3.1 13.3m3.3 4.6c-.2 3.2-.8 6.8 0 9.9m9.2-4.1c.4 4.1 1.1 7.6 0 11.7m-1.3 19.7c.4 5.1 3.6 9.6 7.6 12.5m24.5-9.5c.1 3.6-.2 7.6-3.1 10.2m9-8.1c0 1.6.3 3.3-.8 4.6m10-61.5c3.3 4.1 5.8 8.5 5.6 14m-19.6-15.8c1.5 2.3 2.6 5.1 2.8 7.9m-8.7-6.8c.1 2.7.6 5.3-.3 7.9m-6.8-6.9c-.1 2-.5 3.9-.8 5.9m-5.1-6.4c-1.1 1.4-1.5 3.3-1.8 5.1m-3.6-8.7c-1.7 1.5-2.5 4-3.1 6.1m-4.5-7.1c-1.3 1.6-2.2 3.7-2.8 5.6"/></svg>