<svg xmlns="http://www.w3.org/2000/svg" viewBox="0 0 260 344"><style>.st0{opacity:0}.st1{fill:none;stroke:#000;stroke-width:2;stroke-miterlimit:10}</style><path class="st0" d="M0 0h260v344H0z" id="Layer_3"/><g id="Layer_2"><path class="st1" d="M76.2 213.6c3.9 3.9 5.2 11 8.5 15.6 3.9 5.4 8.8 8.8 15.2 10.7 10.5 3.2 21 5.5 31.8 7.8 3.2.7 6.4 1.6 9.6 2.3 2.9.6 6.5.8 9.1 2 3.8 1.7 7.4 1.2 11.7.8 4.2-.4 8.3-1 12.2-2.7 10.3-4.5 15.5-11.6 24-20.2.7-.7 6-10.1 6.9-12 2-4.3 4.4-8.5 5.8-13 2.5-8.2 1-17.8 3.5-26.1 1.6-5.5 1.8-13.4.6-19-.7-3.2-1.8-6.2-2.6-9.4-.7-2.9-2.3-6.7-2.9-9.6-1.4-6.5-3.3-13-4.7-19.5-1.2-5.8-2.6-11.5-4.1-17.2-1.4-5.5-2.6-11.6-4.7-16.9-2.5-6.3-6.1-11.7-9.9-17.2-2.1-3-4.6-5.4-7-8-2.2-2.4-6.4-4.5-8.1-7M66.5 198.2c1.4 2.2 1.7 5.3 2.6 7.8.8 2.5 1.6 5.2 2.1 7.8 1.1 5.2 3.4 10.4 4.4 15.6 1.1 5.4 1.2 11 2.6 16.4 1.5 5.8 2.5 11.4 3.1 17.4.6 5.1.9 12.5 2.2 17.4 1.5 5.6 5.4 10.5 6.9 16.1.4 1.6 1 4.1 1.6 5.7.6 1.7 1.2 3.4 2.1 4.9 1.7 3.2 3.8 6.1 5.5 9.4"/><path class="st1" d="M187.1 241.5c1.4 6.9 2 14.5 2.4 21.5.5 8.2.5 15.8-1 24-1.2 6.2-1.6 13.3-4.4 19.1-2.7 5.6-7.7 11.3-11.9 15.9M37.4 149.8c8-.7 14.6 5.3 18.2 11.7 2.1 3.7 4.9 5.6 3.7 9.9-1.2 4.5.2 6.1 2.2 10.2m-18.6-40.5c.2-2.4-1.8-6.6-2.6-9-.7-2.4-1.6-4.9-1.9-7.3-.8-5.7-.5-12.8-.3-18.5.3-5.9-1-10.7-2.5-16.4-1.5-5.6 3.2-10.1 4.3-15.4m-2.8-3.8c3.4-1.7 8.4-5.6 10.4-8.9 3.2-5.2 8.1-8.1 11.7-12.8 1.5-.5 1.1-1.7 2-2.8.9-1.1 2.1-1.6 3.2-2.4 2.2-1.6 4.5-3.2 6.7-4.8 4.4-3.1 8-6.8 13.2-8.8 5.9-2.2 12.1-3.5 18-5.8 5.2-2 8.6-1.9 13.9-1.1 2.3.4 4.2-.3 6.4-.9 3.2-.9 4-.3 6.7 1.1 2.5 1.3 3.5.8 6.3.6 4-.3 7.4 1 11.3 1.4 4.6.5 8.5-.2 12.4 2.8 2.2 1.7 3.6 4.1 6.2 5.5 2.2 1.2 4.7 1.7 7 2.6 4.6 1.8 10.1 4.3 9.9 10.2-.2 6.7-6.1 9-11.5 8.1m3.2 3.2c3.6 3.6 11.5-3.2 11.1-7.5M178 60.8c3.2 2.4 10.2-1.9 8.6-4"/><path class="st1" d="M158.4 46.5c-2.4-3.7-8.5-5-12.5-6.4-4.5-1.5-9.6-2.2-14.3-2.7-7.3-.8-14.6 0-21.5 2.4-10.4 3.5-15.5 14.5-20 23.6"/><path class="st1" d="M162.3 50.6c4.9.1 11.5-3.5 7.9-9.1-2.7-4.2-8.8-4.6-13.1-5.5-4.9-1-9.6-2.5-14.5-3.2-3.2-.5-6.5-.7-9.8-1-3.6-.3-7.4.3-10.8-.2m29.7 17.7c-17.6-9.2-44.6-9.5-55.5 9.9m-3.9-9.1c-2.9-.4-6.2 2.5-8.4 4-3.7 2.5-7.1 5.2-9.5 9-4.9 7.7-6.4 16.5-10 24.8m22.7-29.7c-3.4 4.2-4.3 10.9-6.2 15.9M69.1 86.3c-3.4 7.7 1.9 16.5-1.6 24-2.2 4.8-5.8 9-7 14.2-1.3 5.5-.3 11.4-1 17-.5 3.8 2.8 7.3 3.1 11.2.5 4.9 1.4 9.7 1.8 14.6-3.4-3-3.1-6.7-4.9-10.7-3.1-6.8-6.2-9.7-9.7-12-3.6-2.5-10.4-5.5-13.8.5-2.3 4.2-1 11.2.5 15.4 1.9 5.1 4.2 10.7 7.1 15.4 3.1 5 5.2 10.7 8.8 15.4 3.7 4.8 11.5 9.2 17.5 5.2M62.6 68.3c-.9 2.5-3.5 5-4.7 7.7-2 4.5-3 9.5-4 14.3.2-.1.4-.3.6-.4M48 82.7c-2.6 3.5-2.4 8.8-2.3 13m15.6-12.5c-1.7 3.5-1.1 8-2.3 11.7m52.8-62.7c-12.6 0-22.9 5.5-33.1 12.2m4 2.9c-3.4.7-7.1 4.9-9.3 7.3-3 3.3-5.1 7.1-7.7 10.6m4-15.3c-3.7 1.7-7.8 5.8-10.6 8.6-3.6 3.8-7.8 7.8-10 12.7m88.8-19.3c-3.2-5.3-13.4-4.4-18.5-3.4m-4.7 225.8c6.2 2 12.2 6.5 18.9 6.8 4 .2 8.6-1.1 12.4-2.2 3.9-1.2 8.1-4.6 12-5.1M82.4 129.5c4.8-2.4 9.1-6.1 13.2-9.5 3.9-3.2 8.6-9 13.6-9.8 9.3-1.4 19.2-1 28.6-1 4.5 0 12.2-.8 11.3 6-.7 5.8-6.3 5.1-10.8 5-5-.1-10 .1-15 0-5.4-.1-10.7 1.7-15.8 3.4-4.9 1.6-9.5 3.8-14.3 5.5-2.4.8-4.8 1.5-7.3 2-.8.2-3 .8-3.9.5-1.7-.5-1.1-1.8.5-2.1m121.7-7.8c.4 0 .5-.1.3-.4-3.5-2.1-5.9-4.2-10.2-4.8-3.2-.4-6.5-.7-9.6-.4-2.7.3-7.3 2.3-9.9 1.1-2-.9-2.5-3.9-2.7-6.5-.1-1.6 1-3 2.5-3.3 1.8-.3 3.5-.8 5.3-.6 2.4.2 4.9.3 7.3.7 4 .5 13.1 2 15.5 5.2m-38 13.4c1.9 4.4 5.8 7.9 7.8 12.2 1 2 1.2 4.2 2.6 6 1.6 2.2 3.8 4 5.4 6.1 2.6 3.2 6.1 7.1 6 11.6 0 5.1-5 7.8-8.4 10.7m-24.6.6c-5.1.6-9.9-2.3-10.7-7.5-.9-5.5 2.8-9.4 7.8-11.2m15.9 15c2.9-.9 1.2-4-.5-5.2-1.6-1-4.1-1.3-6-1.1-4.4.5-9 6.8-2.1 6"/><path class="st1" d="M171.2 172.2c1.9-1.7 4.2-2.4 6-4.4 1.3-1.5 3-4.5 5.4-3.4m-8.3.3c.4-2.4 2.9-6.8 1.3-8.1m-35.7-23.2c-3-2.4-4.9-4.3-8.9-4.9-3.2-.5-7.8-.4-10.8.4-4.7 1.2-13 2.9-16.2 6.9m93.6-3.8c-3.3 1.7-9.4 1.4-13.1 1.2-3.3-.2-9.5.6-12.2-1.5 3.7-3.8 7.7-5.9 13-6.3 2.4-.2 5.2 0 7.3 1.1 2.8 1.5 3.7 4.6 6 6.5"/><path class="st1" d="M106.1 133.9c4.8 2.9 10.2 5.4 15.9 4.2 5.5-1.1 11.4-2.4 16.4-5.2m44.2-7c-1.5 2.1-1.5 5.7.9 7.5m5.7-8c2.3 2 3.3 5.3 0 8m-69-4.5c-1.9 1.4-2 7.7 2.7 9m6.6-9.6c1.6 1.3 2.5 6.5-.7 8.3m8.5 31.4c-.8 5.7-4.3 14.4-8.6 18.2m59.7-13.2c2.3 5.1 6.8 7.6 10 11.9 3.3 4.5-1.4 7.4-.4 11.5m-69 4.4c12.5 0 20.8-12.3 32.3-15.6 3.1-.9 4.9.4 7.8 1.1 2.9.7 5-.5 7.8-.8 6-.6 9.8 7.8 14.8 7.2.7 1.4-2.7 7.7-3.4 9.6-1.3 3.7-2.8 5.9-5.7 8.5-5.1 4.8-11.4 5.9-18.3 5.2-5.6-.6-10.9-2.7-15.9-5.1-2.6-1.3-5.2-2.5-7.8-3.6-2.3-1-5.8-1.8-7.5-3.6 4.8-.2 9.6-1.6 14.6-1.6 4.7 0 9.4.2 14.1 0 9.2-.4 20.8-3.4 28.8-7.7.1-.1.1-.2-.1-.2-4.9.3-11-.9-16-.9s-10.3.7-15.1 1.8c-5 1.1-10.1 2.3-15.1 3.3-5.2 1.1-9.7 2.4-15.3 2.4m33.1 21.7c3.1-2.1 11.7-4.3 15.1-2.3m-102.6 8c-4.1 3.5-6.3 8.4-8.7 13.1-4.2 8.4-3.4 16.9-4.8 25.9m140.8-43.4c3.6 1.9 6.3 6.6 9 9.4 4.8 4.8 10.4 4.8 16.4 1.8 4.9-2.5 9-6.3 14.1-8.6 5.7-2.5 7.6-.4 13 1"/><path class="st1" d="M69.9 233.8c-6.4-4-13.8 5.4-19.5 5.6-3.6-.9-7.6-.5-11.3-1.5-5.8-1.6-10.5-1.9-16.5-.7-4.7 1-13.3 5.9-16.9 9.2m5.4 14.8c7.5 10.8 14.3 23.2 19.3 35.4 5.2 12.9 12.6 31.6 12.9 43.4M6.4 277.6c4.4 8.5 8.5 17.1 10.4 26.6 2.1 10.2 3.8 21.9 3.4 32.3m56.1-102.8c-4.1 7.2-7.3 14.5-8.4 22.9-1.1 8.6-.5 17.1.8 25.6 1 6.7 3.4 12.9 7 18.6 1.9 2.9 3.7 5.8 5.5 8.8 1.7 2.9 4.5 5.5 5.9 8.4 1.9 4.1 7 9.3 9.9 12.7 3.4 4.1 4.8 6.1 8.8 9.7m-49.2-69.3c-2.3 3.7-.3 11.2.1 15.2.6 5.7 2.2 11.3 4 16.7 3.2 9.9 3.3 21.4 1.5 31.6m135.5-104.3c.8 1.6 2 4.8 2.8 6.6 1.7 3.9 2.6 7.7 2.3 12-.8 13.2-4.8 26.4-8.5 39-4.9 16.4-9.2 37.1-24 47.6m60.2-83.9c-6.9 13.2-10.5 28.2-15.4 42.2-4.7 13.5-7.8 28.1-8.8 42.4m-62.7-200.4c-.6 4-2.4 7.4-6 9.6m40.1-7.8c3.1 4.2 10.8 2.7 15.1 3.6m-42.7 56c.7 1.1.7 3.4.7 4.7m14.4-7.6c.7 2 .9 5 1.6 7.1m6.5-7.3c.5 2.1.3 4.1 1 5.7m-17.2-3.9c.9 1.3 1 4.4 1.2 6m-15.5-3.1c.4 1 .6 2.1.5 3.1m34.7-7.8c.2 1.8.3 3.4.6 4.8m3.5-5.3c.4 1.2.8 2.4.8 3.6"/></g></svg>