<svg xmlns="http://www.w3.org/2000/svg" viewBox="0 0 260 344"><style>.st0{opacity:0}.st1{fill:none;stroke:#000;stroke-width:2;stroke-miterlimit:10}</style><path class="st0" d="M0 0h260v344H0z" id="bg"/><g id="Layer_2"><path class="st1" d="M183.3 60.1c1.1 1.4 4 4.2 5.3 5.5 11.3 11 16.2 28.7 17.8 44 1.4 14.2-2.6 28.2-.4 42.3 1.9 12.7-2.7 22.8-5.6 34.8-1.4 5.7-2.7 11.5-3 17.4-.3 6.3-.6 10.9-4 16.4-7.9 12.7-18 25.1-28.6 35.5-9.6 9.4-21.1 15.6-35 15-4.9-.2-9.6-.7-14.1-2.7-4.6-2.1-8.9-6.9-12.7-10.2-10.1-8.8-18.7-19.6-26.1-30.6-3.8-5.5-6.3-12-7.5-18.6-1-6-.2-12.4-1.1-18.5-1-7.5-1.7-15.1-3.5-22.5-.8-3.4-1.9-6.7-2.3-10.2-.3-2.5.5-7.3 0-9.2 4.6-6.5 2.3-17.2 2.7-25.2.4-7.1 1.3-14.8 2.5-21.9 1.2-7 2.7-14.8 5.1-21.6 1.8-4.9 4.8-11.9 6.9-16.4"/><path class="st1" d="M82 142.9c6.2.4 11.4 4.8 18.1 4.8 3.6 0 6.9-.3 10.4-.8.9-.1 3.3-.6 5-1 .8-.2 1.1-1.1.5-1.7-4-4.3-11.5-4.8-16.6-4.6-3.8.2-6.8.5-10.3 1.4-1.6.4-8.2 2.1-9.7 2.7m76.2 3.6c6.5 1.6 10.5 3.1 16.5 4.1 6.7 1 12.6-.6 18.8-2.3.5-.1.5-.8.1-1-5.5-2.2-11.4-4.4-17.3-4.9-7.1-.7-14.5 2.5-20.8 5.3m25.6-87.6c-31.1-18.6-51-15.1-70.9-12-7.8 1.2-34.3 8.8-46.3 22.4"/><path class="st1" d="M73.4 53.4C81.8 51 95.2 41 103 37.5c10.8-4.8 23.1-4.2 34.8-3.6 7.4.3 39.3 5.5 48.5 24.7"/><path class="st1" d="M189.6 58.6c.2-9.2-11.3-15-18.1-20.8-7.3-6.1-19.4-7.7-28.6-9.4-18.4-3.4-38.8 2.7-54.9 11.5-4.7 2.5-11.3 7-15.6 10"/><path class="st1" d="M183.3 60.1c-25.8 5.4-50.4-9.7-64.8-8.8-9.3.6-19.9 3.7-28.4 7.3-12.9 5.4-23 13.8-34 22.1"/><path class="st1" d="M183.3 60.1c-6-6-24.2-15.2-27.7-16.7-6.3-2.6-15.2-4.4-22.1-4-9.5.5-18.6 1.7-27.7 4.8-7.8 2.7-15.1 6.5-22.6 9.9-5.8 2.6-12.1 5.5-18.3 7.4m118.4-1.4c5.5-2.3 13.1-2 18.5 1.1 6.4 3.7 9 13.7 9.9 20.6 1.3 9.5 3 19.5 3.9 29.1 1 11.4-1.5 23.9-3.6 35-1.3 7.1-5 14.9-6.7 22.6M71.1 69.4c-2.6 4.2-4.9 10.3-5.9 15.1-1.3 6.7-2.5 13.5-3.5 20.3-1.6 11.3-3.3 24.4-1.5 35.8.5 3.2 3.2 8.7 2.1 12.8"/><path class="st1" d="M210.9 150.3c4.5-2.5 9.9-5.7 13.9-3.3 4.5 2.7 4.4 9.2 4.4 13.7-.1 13.2-8.7 23.6-16.8 33.2-2.1 2.5-4.8 4.8-8.4 4.2-2.3-.4-3.9-2.8-6.4-2.8M61.2 144.1c-1.9-1.2-6.7-2.3-8.9-3-1.7-.5-3.8-2-5.7-1.5-4 1.2-3.8 9.5-3.5 13 1 11.7 6.5 26.7 14.2 35.6 2.3 2.7 8.8 5.8 11.1 2.3"/><path class="st1" d="M226.4 154c-6.8-1.8-14.5 4.3-17 10.4-1.1 2.7-1 5.2-.9 8.2.1 4.2-1.7 7.7-4.2 10.9M47 145.2c6.8 4.7 10.6 7.2 12.5 16 .6 2.9-.7 4.7-.6 7.8.1 3.4 3 7 4.5 9.9m66.6-63.8c0 6.4 1.3 14.6-3.4 19.6m12.9-17.5c-1.3 6.5-3.2 17.1 2.1 22.4m-68.7-.3c7.9-7.4 15.6-7.8 23.4-8.8 4.4-.5 8.1-.2 12.4.7 2 .5 7.5 2.1 9.4 1.4 5.4-2.1-4.6-10.9-8.2-11.2-8.6-.7-19.4 0-27.4 3.5-4 1.7-8.1 4.4-10.1 8.4-1.1 2.3-2.4 8.7.5 6zm77.8.2c-.8.1-1.6-.3-1.9-1.1-3.9-10 11.7-11.9 18.8-12.5 10.6-.9 20.1.8 27.9 8.1 3.1 2.8 3.3 5.6 3.8 9.4-1.8 1.3-7.6-3.4-9.7-4.3-4.8-2.1-8.5-2.6-13.6-3.2-5.3-.7-10.7-1-15.8.6-3.4 1.1-6.5 2.6-9.5 3zm-58.5.8c-1.9 1.4-1.2 4.7.7 5.9m9.5-6.6c3.7.6 3.9 6.9 0 8.1m68.3-4.6c-4.3.6-4.3 6.6-1.3 7.8m5.6.8c3.9-.1 6.6-5.7 2.5-8m-90.2 12.7c5.7 4.4 18.5-2.3 23.8-5.3m42.4 2.9c3.1 5.2 11.8 11.6 17.2 14m-55 6.7c-1.5 2.8-4.3 6.8-3.4 10.2.9 3.6 5.3 4.6 8 5.6m29.4-17.2c4.1 5.2 8.1 17.2-2.5 18.9"/><path class="st1" d="M118.8 186.6c3.1-1.6 5.4-1.7 8.5-.1 2.6 1.4 5 4.5 8.1 3.9 2.5-.5 4.4-3.8 7-4.5 2.8-.7 6.3-.4 7.2 2.8m-41.6-3.2c-.8 4.4-5.2 8.5-7.2 12.6-2.1 4.4-4.4 8.8-5.4 13.7m62.3-31.2c1.6 5.7 7.8 11.6 10.9 16.7 2.8 4.6 9.5 14.9 7.4 20.1M126.9 243c3.1.1 10.6-.7 13.7-.7m-35.1-21.7c1.3 3 12.1.2 14.8 0 5.8-.5 11.2-.6 16.9-.4 5.3.2 10.3-.3 15.4-.7 1.6-.1 5.7-1 7.8-1.4.5-.1.9.5.6.9-2.6 3.2-7.3 7.1-10.1 8.8-7.5 4.3-14.2 7.5-22.9 5-6.1-1.8-19.2-7.1-23.2-12.5 7.3-2.5 18.6-11.8 24.3-8.8 1.6.9 5 3.9 6.9 4 2.3.1 3.9-2.1 5.6-3.3 3.8-2.5 6.6-.9 10.5 1.2 2.2 1.2 6.9 3.9 9 5.1m-92-13.3c-5.4 6.6-10.6 13-12.9 21.6-2.2 7.9-2.1 16.1-4.9 23.9-2 5.4-5 10.7-4.2 16.7 1 7.5 7.6 10.6 14 12.8 8.8 2.9 17.9 5 26.8 7.7 6.2 1.9 11.1 3.9 15.7 8.4m85.3-68.9c5.5 2.7 3 14.1 2.6 17.2-1.5 11.7-3.7 21.7-10.9 31.3-4.3 5.8-11.6 10.1-17.9 13.4-3.2 1.7-16.3 5.9-19.1 4.2m51.3-76.4c.6 2.5 4.3 4.4 5.7 7 2.2 3.9 3.3 9.3 4 13.7 1.6 10.1.2 19.8-1.3 29.8-1.1 7.8-2.4 15.7-3.9 23.4-1.4 6.7-5 13.3-6 19.9v-.9"/><path class="st1" d="M51.2 250.6c-5.8 2.3-13.7 4.8-19 8.5-5.7 4-9.4 10.8-15.4 14.5-5.4 3.3-6.7 3.4-12.5 5.8m9.7 3.9c13.8 14 22.2 29.3 27 48.4m14.4-54c.7 2 .3 4.5.4 6.7.2 4.1 1 7.9 2.6 11.7 3.3 7.6 8 8.6 13.9 13.4m33.2 20.4c0-7.1-3.5-22-11.6-25.6-3.3-7.3 16.2-9.2 20.3-10.5 10.6-3.2 18.6-1.4 29.3-.4 4.8.5 8.9 2.2 13.4 4.1 4.7 2 7.7 5.6 12.4 7.7 11.4 5 25 3.6 36.9 7.3 5.8 1.8 11.3 4.9 16.8 7.3m-17.6-75.4c2.4 5.1 7.7 8.6 11.9 12.2 5.6 4.8 11.2 9.4 18.3 11.5 6.5 1.9 9.6 4 15.1 7.8"/><path class="st1" d="M93.9 304.3c-4.9-.2-10.8 3.5-15.4 4.8-4.2 1.2-12 .4-15.3 3.3-3 2.6-2.7 9.5-2.5 13 .1 3.1 1.9 8.7.7 11.5m119.2-61c-2.8 4.7-3.7 8-5.7 13-1.4 3.6-4 11.7-3.8 16.5m-102-52.9c.7 4.2 7.2 8.2 10.2 10.9 5.5 4.9 12.6 9.1 19.1 12.6 12.4 6.6 26.1 5.3 39.4 8"/></g></svg>