<svg xmlns="http://www.w3.org/2000/svg" viewBox="0 0 260 344"><style>.st0{opacity:0;fill:#fff}.st1{fill:none;stroke:#000;stroke-width:2;stroke-miterlimit:10}</style><path class="st0" d="M0 0h260v344H0z" id="Layer_3"/><g id="Layer_2"><path class="st1" d="M212.1 69.2c.2-.2-11-16.3-12.4-17.6-3.7-3.5-7.1-6.9-12-8.6-5.6-2-9.2-5.6-14.3-8.5-10.5-6-21.7-6.1-33.4-6.3-11.2-.2-21.4-2.4-31.6 3.2-7.2 3.9-15.8 7.3-21.6 13.5-2.4 2.6-7.9 4-11.1 5.9-2.9 1.7-4.9 3.4-6.8 6.2-5.8 9-9.1 19.6-11.9 29.9-2 7.5-4.4 14.8-4.9 22.7-.4 6.2.3 12.4 0 18.6-.3 5.4-1.5 10.9-1.3 16.3.2 7.3-.4 17.3 0 24.6.5 9-.8 18.5-1.5 27.3s2.4 16.9 4.1 25.2c1.7 8.2 5.7 16.9 9.4 24.4 8.6 16.9 15.1 34.7 33.9 42.3 9.9 4 18.8 6.4 29.3 2.8 11.1-3.8 19.9-9.8 29.2-17 8.5-6.6 17.9-14 24.5-22.6 9.3-12.2 14.1-26.7 20.9-40.3 1.2-2.3 4.7-14.1 5.5-19.4 1.5-9.7 2.2-20 1.8-29.9-.5-10.8-.3-23 2.2-33.4 2.9-12.1-.5-24.4-4.7-35.7-3.1-8.2-7.9-16.6-15-22-3.6-2.7-8.3-2.7-12.7-2.3-5.6.5-10.8.8-16.5.6-12.5-.6-25.3-.8-37.6-3.3-7.8-1.6-16.6-7.7-23.9-11.7-3.7-2-8.7 1-12.2 3.5-14.1 10.2-23.2 27.4-28 43.9-2.3 8-3.2 17.1-3.3 25.5 0 3.4-1.2 6.5-1.4 9.8-.2 4.7-.5 9.3-1 13.9-.7 6.2-.6 12.5-.8 18.7-.2 5.5.4 11 .4 16.5 0 2-.3 4-.9 5.8"/><path class="st1" d="M211.2 67.9c2.7 4.4 5.3 8.4 7.7 13.1 2.8 5.5 3.4 11.7 3.8 17.8.4 6.6.6 12.5-.3 19.1-.9 6.3-2.6 12.6-2.6 18.9v13.7M51.5 135c.2-3.1-2.5-6.5-4.5-6-2.3.5-2.1 3-2.3 4.9-.7 6.4.3 12.8.3 19.3 0 10.3-3.2 19.8-3.3 29.9 0 3.3 2.6 13.9 7.9 11.9"/><path class="st1" d="M211.8 160c.3-3.6 3.7-9.2 7.5-10.1 3.1 3.6 3.3 8.4 2.7 13-1 6.9-1.1 12.3-.2 19.2 1 7.1-.5 12.9-2.4 19.8-1.6 6.1-.9 13.1-7.7 16.4-4.1 2-12.3 1.6-12.1-5.1M68.2 256.5c0 8.2.3 22.2.7 30.3.3 6.5-.2 13.4 1.9 19.5 3.8 11.5 14.7 18.2 26.6 19.3 18.4 1.7 37.2-3 54.8-7.4 16.9-4.3 27.8-16.1 35.7-30.8 6.8-12.7 1.6-38 1.6-51.8M68.2 274.9c-5.9 0-11.5 1-16.7 3.9-6.9 3.9-14.3 7.7-20.9 12-9.9 6.4-17 16.3-24.6 25-2.2 2.6-3.8 4-5.6 6.8"/><path class="st1" d="M191.9 268.4c3.8-1.6 8.1 5.6 9.1 8.4 2.1 5.8 1.4 12.3-.8 18-6.3 16.4-25.1 25.4-39.1 34.1-19.4 12.1-47.5 7-68.9 4.3-9.1-1.1-19.7-1.1-26.9-7.4-6.1-5.3-8.5-12.3-8.8-20.1-.3-6.3-.3-10.9 3.3-16.3 1.8-2.6 5.8-6.9 9.1-7.3m-32 4.9c-11.3-.1-24.1-3.9-36.3-3.9m22.9 13c-4.7-1.2-10.5-1.8-15.3-2-2.2-.1-4.9-.3-8.2.6m57.1-1.2c-3.7 1.3-6.8 5.1-9.8 7.5-6.5 5.4-13.5 9.9-20.9 13.7-9.6 5-16.3 11.7-25.9 16.4"/><path class="st1" d="M195.8 269c10.1-4.2 22.2-4 31.8 1.2 3.9 2.1 6.3 4.8 9.2 8.1 2.5 2.9 4.9 6 8.8 6.4 4.8.4 9.9-1.7 14.1-3.6m-58.2-2.7c4.8-2.2 16-1.4 21.1-.1 6.8 1.8 9 8.2 12.2 14 1.9 3.5 3.4 7.3 5.5 10.7 1.8 2.8 1.3 2.6 4.5 1.6 5.6-1.8 9.9-5.5 15.1-7.7"/><path class="st1" d="M201.5 278.4c1 1.2 6.7 3.8 8.7 4.9 1.7.9 3.6 1.8 5.4 2.5.9.3 3.4.8 4.3 1.1-4 2.2-8 9.8-10.4 13.7-3.8 6.3-7.6 13.4-10.2 20.3-2.4 6.5-6.7 15.1-5.6 22.3M43 304.3c.1 3.8-.9 7.4-1.2 11.1-.5 5.1.1 10.3-.9 15.4-.9 4.7-2.1 8-3.1 12.6m69.6-29.9c2.2 3.5 5.9 5.3 9.1 6.2M217.7 159c-3.5 5.1-9.2 19.1-5.9 25.3 1.5 2.8 4.2 4.6 2.5 8.2-1.5 3.1-5.7 4.9-5.1 8.9.6.2 1.3.7 1.9.7M71.7 149.9c1.8-.5 4.3-1.9 6.2-2.5 1.9-.7 3.7-.9 5.7-1.1 3.9-.4 7.2-.3 10.9.9 3.2 1.1 11.8 3.4 11.8 8-6.4 1-12.6.3-19.1-.4-3.2-.3-6.4-1.2-9.6-2.1-1.9-.6-4.7-1-5.9-2.8zm72.6 10.4c3.1-1.2 6.4-3.5 10.2-4.3 3.8-.8 7.9-1 11.6 0 5.6 1.6 10.5 4.2 14.3 8.5-2.4.6-4.9-.1-7.4-.2-3.8-.2-7.6-.2-11.4-.2-4.4 0-8.6-.6-12.9-1.8-1.2-.3-3.9-.9-4.4-2z"/><path class="st1" d="M88.3 145.8c-3.5 2.5-1.8 6.7 1.8 7.8 4.1 1.2 7.9-1.2 7.5-5.6m61.2 7.4c-4.1 2.4-2.9 8.1 1.8 8.2 2.3 0 4.5-.4 6.2-2 1-1.1 1.3-4 .1-5.2m-52.3-3.9c1.7 4.4 1 7.9-.6 12.2m23.7-7.7c-3.3.8-2.4 6.6-1.3 8.7 1.2 2.3 2.7 4.1 5 5.3.8.5 2.6 1.1 3.9 2.4m-42.8 12.3c-2.2 3.5-5.3 5.4-5.3 9.8.1 4 3.5 7.4 7.5 7.2m.8-4.2c4.7 1.4 3.2 6.1 6.1 7.5 8.9 4.1 11.5-3.3 14.4-3 2.4.3 1.7.9 3.6 1.8 3.4 1.5 6.8 1.2 8.5-2.6 2.2-4.8-1.1-8.6-1.7-13m-71.2-47.6c3.6.3 7.4-1.1 10.9-1.5 4-.4 8.2-.6 12.3-.4 7.7.4 14.2 3.2 21.5 4.3 4.8.8 4-2.5 1.2-5.8-2.2-2.6-6.2-4.5-9.3-5.4-7.6-2-17.5-3.2-25.6-1.9-3.5.6-7.4 2-10.1 4.6-3.2 3.2-6 5.7-.9 6.1zm76.2 6.8c.7.8 10.7.9 14.7 1.1 4.2.2 8 1.6 12 2.8 4.3 1.3 8.7 2.7 12.7 4.4 3.1 1.3 5.8 3.1 9.5 2.5 1.2-6.6-12-12.6-16.9-14.3-7.4-2.5-20.5-6.7-28.3-3.8-3.7 1.5-5.7 5.1-3.7 7.3zm-31.5 46.3c-.3-2.6 1.3-5.2 3-7.1m-21.7 7.8c-2.8 1.3-22.9 15-18.9 18.5m73.6-9.4c4.8 4.2 10.2 9.7 13.3 15.5 2.2 4.2 2.5 7.3 1.1 11.8m-78.9-12s16.7-1.2 18.7-1.4c3.8-.4 7.6 0 11.1 1.6 2.2.9 3.8 1 5.8.8 2-.2 5.2 0 7.1.5 4 1 7.7 2.8 11.4 4 2.5.8 8.9 3.4 11.7 4.8.1.1.1.3-.1.3-3.3 0-6.6-.9-9.9-1.4-5.3-.8-10.7-1.4-15.9-1.9-5.1-.5-10.4-.9-15.4-2-4.4-.9-8.7-2.7-13.1-3.7-5.1-1.2-9-1.2-11.4-1.6-.2 0-.3.2-.2.4 1.8 1.5 4.2 2.6 6.2 4 2.9 2.1 5.7 4.3 8.6 6.4 8.3 5.9 17.6 7.8 27.6 6.3 7.5-1.1 10.4-2.5 23.6-6.5m-42.6 19.1c4.1-1.7 10.9.3 14.2 2m-66-60.2c0 3.9-1.8 8.9-.3 12.6M57 205c-.1 4.4-.1 10.1 1.1 14.3m4.8.6c-.1 4.7-.1 10.1 1.1 14.6m-5.6-9c.1 1.7.3 3.7.8 5.3m10.1 1.4c-1 4.1 1.6 12.5 2.8 16.8m-6.1-9.5c-.1 1.9-.2 4.9.8 6.4m10.6-2.2c-.1 5.8.3 11.9.8 17.6m5.5.6c-.8 3.6-.3 7.3-.3 10.7m4.1-14.6c-.1 5.6.5 12.1 1.4 17.6m6.5-13.1c0 5.2-.7 12.2-.3 16.5m6-5.3c0 4.1-.6 7.8-.5 11.9m6.8-20.3c.1 3.9-.5 7.8-.6 11.8m6.5 1.9c.1 2.7-.9 6.4-.8 8.4m9.8-24.4c.1 4.5-1.4 8.7-1.7 13.2m10.1-4.5c-.1 3.7-1.5 9.6-2.5 12.3m9.8-24.6c.1 4.4-1 8.9-2 13.2m9.5-4.5c-.4 2.4-.8 7.1-1.7 8.4m8.7-25.8c.3 6-1.6 12.3-2.5 18.2m10.9-19.6c.9 4.1-.3 8.5-.6 12.6v-1.1m9.3-18.2c-.1 3.6-.8 7.3-.8 10.9v-.8m9.5-22.7c0 3.4-.8 8.4-.6 10.9m7-15.1c0 1.3-.1 2.5-.2 3.8-.1.8-.2 3.5-.4 4.3m6.8-22.4c.1 3.1.1 7.8-1.4 10.4M165.4 237c0 1.9-.7 7.1-.6 8.1m31.7-42.9c0 2.9-1.3 7.7-2 9.5m7.6-21.2c.2 2.5-.5 7.5-1.4 9"/></g></svg>