<svg id="Layer_1" xmlns="http://www.w3.org/2000/svg" viewBox="0 0 260 344"><style>.st0{opacity:0}.st1{fill:#fff}.st2{fill:none;stroke:#000;stroke-width:2}</style><g id="speakers" transform="translate(-717 -1314)"><g transform="translate(717 1298)" id="malkevich"><g id="bg" class="st0"><path id="Rectangle-path" class="st1" d="M0 16h260v344H0z"/></g><g id="Layer_2" transform="translate(1 17)"><g id="Group"><path id="Shape" class="st2" d="M131.7 237c-7.8 1.4-19.8 1.3-24-.3-5-1.8-11.5-3.8-16.6-5.6-12.9-4.8-12.6-10.1-16.9-18.4-7-13.4-11.3-26.4-13.3-41.3-.9-7.1-2.2-15-1.7-22.2.5-6.9 2-13.4 2-20.4 0-12.2.9-25.7 6.9-36.6 3.3-6.2 10.2-20.1 19-19.2 6.7.7 13.3-4 20.2-5.4 9.8-2 19.9-1.4 29.9-1.4 8.9 0 20-2.4 24 8 1.4 3.5 2 7 1.6 10.7-.4 4.2-1.8 8.2 1.7 11.5 4.9 4.6 10.9 5.3 13.6 12.3 2.3 6 1.2 12.1.6 18.1-.3 2.8-.7 5.6-.9 8.4-.2 3.4-.3 3.3 2.1 4.6 1.7.9 6.6 4 8.3 3.5 2.6-.8 5-6.9 6.4-9 1.2-1.7 3.3-4.6 5.2-5.5 7.1-3.4 8.7 7.7 9.1 12.1.8 8.2 2.4 17.8-.5 25.8-3 8.5-9.8 14.8-19 10.7-1-.5-2.1-1-3-1.7-.6 3.2-1.8 6.3-2.5 9.4-.6 2.7-.6 6.5-2.6 8.5"/><path id="Shape_1_" class="st2" d="M205 137c-1.3-6.8-5.8 0-7.3 2.8-1 1.9-1.9 3.7-3 5.6-1.6 2.7-.7 2.5.4 5.1 2.1 5.1-4.5 8.1-2.7 12.4 2.1 5.3 9.7-.8 11.1-3.8 2.5-5.1.2-10.4-4.1-13.7"/><path id="Shape_2_" class="st2" d="M191 178c-4.8 9.2-6.2 22.5-6.2 32.7 0 13.8 3.7 27.1 2.1 41.2-1 8.9-1.1 18.5-3.9 27.1"/><path id="Shape_3_" class="st2" d="M95.5 235c0 5.8.6 11.1 2 16.7 1.8 7.6 6.4 13.9 8.5 21.2"/><path id="Shape_4_" class="st2" d="M184.6 219c7.8.8 18.8 16.2 24.9 27.5 4.6 8.5 8.3 17.4 12.6 26 3.5 7 7.7 12.4 13 18 3.8 3.9 9.6 8.1 10.9 13.6-7.6-2.6-13.3-8.1-21.8-8.8-3.9-.3-8.3-.7-12.3 0-3.5.6-5.4 1.5-6 4.8-.7 3.9-.3 7.7-3.2 10.5-4.1 3.9-11 7.2-16.3 9.2-4.8 1.8-9.5 2.5-14.5 3.6-6 1.3-11.6 3.5-17.5 5.4-6.1 2-10.8 3.8-14.9 8.6-1.8 2.2-3.9 3.3-5.5 5.6"/><path id="Shape_5_" class="st2" d="M145.7 327c-7.9-4.4-15.4-8.7-24.5-9.2-8.9-.5-21 1.7-23.7-8.2-1.3-5 .6-17.6-6.5-18.1-6-.4-13 2.4-18.5 4.7-4.7 1.9-8 4.8-12.2 7.5-2.8 1.9-7 5.5-10.3 6.2-.5-3.9 1.4-8.3 2.9-11.9 5.3-13 15.1-23.6 21.6-35.8 3-5.8 6.7-11.2 9.5-17.1 1.9-3.9 6.8-13.7 11.6-12.1l-.1 3c-2.8 2-5.7 11.2-5.9 14.2-.3 7.4 5.1 18 8.1 24.7 5.7 12.8 10.2 27.6 20.3 32.5 7.5 3.6 29 12.7 31 14.1"/><path id="Shape_6_" class="st2" d="M185.8 229.1c10.3 5.4 10.1 26.5 12.1 37.5 1.5 8.1 4.1 18.6 5.1 25.5"/><path id="Shape_7_" class="st2" d="M134 343c2-4.2 7.1-10.7 9.8-14.6 3-4.3 5.2-9.1 8.5-13.1 1.8-2.3 4.6-6.6 7.1-8.1 2.6-1.6 7.1-.1 10 .1 10 .6 15.8-9.8 18.6-18.2 3.1-9.2 4.1-16.5 4.1-26.2 0-4.8 0-10.2-1.5-14.8-.5-1.6-2.1-8.2-3.5-8.1"/><path id="Shape_8_" class="st2" d="M145 332.8c-2.8 2.3.7 7.5 4.8 5.9 5.4-2.2 3.5-9.1-.6-8"/><path id="Shape_9_" class="st2" d="M84 245.2c-2.6-.2-6.5.7-9.1 1-3.8.4-7.6.3-11 1.8-3.9 1.7-7.4 4.4-11.2 6-5.2 2.3-10.1 5.3-15.4 7.3-8.2 3.2-17.2 4.4-25.5 7.4-3.5 1.2-7 2.9-11.1 3.9"/><path id="Shape_10_" class="st2" d="M53 263c3 1.5 6.7 3.4 10.1 4.6 2 .7 5.8.7 6.9 1.4"/><path id="Shape_11_" class="st2" d="M37 270c8.7 3.6 16.3 8.5 23 15"/><path id="Shape_12_" class="st2" d="M69 298c3.5 2.3 6.4 6 9.2 9 2.8 3 10 9 9.8 13"/><path id="Shape_13_" class="st2" d="M32 288.7c-.3-.9-2.2-2.6-3.7-2.7-2.4-.2-2.7 1-3.3 3.5-2.2 8.5-.2 17.2 2.4 25.2 2.5 7.6 8.4 21 11.9 28.3"/><path id="Shape_17_" class="st2" d="M207.4 242.9c2.6.8 7.5 3.5 10.2 4.3 3.6 1 7.4 1.9 11.1 2.6 4.6.8 8.4 1.9 12.7 3.7 4.9 2 11.3 7.3 16.6 7.8"/><path id="Shape_18_" class="st2" d="M61.4 121c-2.6-3.6-3.8-8.5-2.4-12.9 1.4-4.6 1.9-6.6 2.9-11.2.6-2.6 1.6-3.4.1-5.4-1.1-1.4-2.3-2.7-3.8-3.8-2.6-1.9-2.7-1.8-.5-5 1.4-2 3.4-4.1 4.3-6.3 2.6-6.3-3.5-8.2-6.8-1.6-.9-.6 1.2-6.3 3.4-8.7-3.3-.6-5.6 4.3-6.4 7-2.6-.4.2-7.8.5-9.9.5-3.4.1-7.1.8-10.4.7-3.2 3.9-5.3 5.2-8.3 1.3-3.1 2.1-5.1 5.7-5.3 4.7-.3 7.6 2.8 11.4 4.9-.5-2.2-1.7-4.4-2.3-6.7-.7-2.8-1.3-3.3.8-4.7 2.1-1.5 4.9-1.7 7-3.4 1.9-1.5 3.8-5.5 6.2-6 .2 3.4-.5 11 .5 10.6 0 0 7.9-17.1 17.8-17.1 4 0 6.8 2 10.5 3.3 4 1.4 9 1.4 12 4.9-3 3.6-7.8 5.6-10.8 9.1-3.2 3.8-6.2 8.4-8.5 12.8-3.2 6.3-6.4 14.7-6.9 21.7"/><path id="Shape_19_" class="st2" d="M86.3 40c-2.5 6.2-3.8 14.5-3.2 21.3.2 2 1.7 8.4 4 11.8"/><path id="Shape_20_" class="st2" d="M75.1 42.6c2.5 6.6 4.6 14.6 4.6 20.3 0 3.3.6 10.2-.4 13"/><path id="Shape_21_" class="st2" d="M126.6 26.7c8.3-5.7 12.1 2.7 19.2 4.8 5.2 1.5 3.8 5.9 6.8 9.2 3 3.4 8.1.3 11.7 4 2.4 2.6 4.6 7.5 7.9 8.4 1.2.3 3.1-.5 4.2.1 1.3.7 2.3 3.3 3.2 4.5 2.4 2.9 5.5 5.5 9.4 5.3 1 2.6.4 3.8 2.4 6 2.5 2.8 5.3 5 8.2 7.4 2.8 2.3 3.9 5.2 5.9 8.1 1.3 1.9 3.5 3.9 3.8 6.2-3.3-1.9-4.4.4-2.8 3.7.3.7 2.2 2.1 2.2 2.7.1 2-1.6 1.1-2.4 2.2-3.8 4.8 1.9 4.1 3.2 6.7s-.1 10.3-.7 13.2c-.8 3.7-3.1 7.1-2.9 10.9"/><path id="Shape_22_" class="st2" d="M63 115.8c2-6.1 7.1-7.9 11.5-11.9 4.5-4 6.4-8.5 12.4-9.9 1.2 1.3 1.6 8.7.4 10.4-1.1 1.7-5.8 2.4-7.8 3.8-3.1 2.2-6.3 1.3-9.7 3.1-2.3 1.2-4.1 4.5-6.8 4.7-.1-.3 0-.5 0-.8"/><path id="Shape_23_" class="st2" d="M105.4 96.3c.3 2.7-1.4 4.4.2 6.7 1.8 2.5 5.9 1 8.5 1.4 3.6.5 6.1 1.9 9.9 1.7 3.4-.2 6.8-1.1 10.2-.9 3.6.3 7.1 1.7 10.7 1.7-3.7-5.7-11.4-8.1-17.8-7.3-3.5.4-4.8-.9-7.9-2-2.8-1-6.3.1-9-1.1-2-.9-4.5-5.1-4.8-.2z"/><path id="Shape_24_" class="st2" d="M99.6 91c.8 3.9-.2 8.1-.6 12"/><path id="Shape_25_" class="st2" d="M93 94c.8 2.2.6 5.4 1 8"/><path id="Shape_26_" class="st2" d="M81 90c6.3-2.3 12.7-6.6 19.6-7 3-.2 5.3.2 8.3.7 1.8.3 3.7.5 5.5.9.7.1 4.5.8 3.5.5"/><path id="Shape_27_" class="st2" d="M84 84c5 .1 9.4-2.6 14-4.2 4.5-1.5 8.2-.4 13-.5"/><path id="Shape_28_" class="st2" d="M93.4 111c-.4 1.6.6 3.9.6 5.9 0 2.2-.5 4.6-1.1 6.6-1.5 4.5-5.1 9.4-7.8 13.3-4 5.8-10.7 12.9-7.1 20.4 1.1 2.3 4.8 9.5 6.8 9.9"/><path id="Shape_29_" class="st2" d="M95 138c2.4 8.5 12.5 3.9 17.3 10.1 3.2 4.1 2 15.3-5.1 14.9"/><path id="Shape_30_" class="st2" d="M88 159c-1.1-2.1-2.4-5.2-4.7-5.8-3.4-1-2.2 2.2-1.1 4.8 1 2.4 1.2 5.1 3.7 5 2.6-.1 2.1-4 2.1-4z"/><path id="Shape_31_" class="st2" d="M91.6 154.3c-2.2 4.6 1.8 3.8 4.2 3.8 2.8 0 4.3 3.4 7 2.7 2.2-.5 4.2-5.6 2.4-7.5-3.2-3.8-11.8-2.6-13.6 1z"/><path id="Shape_32_" class="st2" d="M90.2 168c0 2.1-.7 5.6.7 7.2 2.3 2.5 3-1.2 3.1-3.4"/><path id="Shape_33_" class="st2" d="M80.8 191c-2.7-3.4 1.9-7.6 4.5-9.4 1.2-.8 3-2.3 4.4-2.7 2-.6 3.5.3 5.5-.1 2.1-.4 2.8-1.8 5.2-1.8 2-.1 3.5.9 5.2 1.4 4 1.4 8.8 2.1 12.9 2.5 4.6.5 9.6-1.1 9.4 5.2"/><path id="Shape_34_" class="st2" d="M81 113c-4.2 2.9-10.6 6.3-14 10"/><path id="Shape_35_" class="st2" d="M118 110c3 2.9 13.1 3.9 17.7 4.6 5.4.8 8.4 2.8 12.3 5.4"/><path id="Shape_36_" class="st2" d="M66 134.2c6-4.5 10.5-10.2 18.7-7.5 7.4 2.4-5.2 9.1-8.9 9.3-2 .1-9.2-.4-9.8-1.8z"/><path id="Shape_37_" class="st2" d="M114 124.4c5.7.1 11.6-4.8 17.7-4.3 4.8.3 9.5 3.4 14.1 4.7.2 0 .2 0 0 0-8.9 4-23.3 4.7-31.8-.4"/><path id="Shape_38_" class="st2" d="M79.9 126c-6.6 1.3-4.2 9.7 2.1 7.7"/><path id="Shape_39_" class="st2" d="M131.2 120c-3.3 1.7-3 6.8 1.3 7.9 3.3.8 6.6-3 3.9-6.7"/><path id="Shape_40_" class="st2" d="M80 190c.9-3.5 3.4-4.7 6.7-5.2 3-.5 5.6-1.7 8.7-1.8 7-.3 13.7-.3 20.7-.6 3.4-.2 8.5-1 10.9.6"/><path id="Shape_41_" class="st2" d="M90 202c3.5-.4 7.7-2 11 0"/><path id="Shape_42_" class="st2" d="M81 188c2.3-1 4 2.5 6 3.4 3 1.2 8.2.4 11.3 0 6.4-.9 13.3-1.4 19.2-4.5 3-1.5 6.1-3.8 9.4-3.8"/></g></g></g></g></svg>