<svg id="Layer_1" xmlns="http://www.w3.org/2000/svg" viewBox="0 0 260 344" enable-background="new 0 0 260 344"><style>.st0{fill:#fff;fill-opacity:0}.st1{filter:url(#Adobe_OpacityMaskFilter)}.st2{fill:#fff}.st3{mask:url(#mask-2_1_)}.st4{fill:none;stroke:#000;stroke-width:2}</style><title>1</title><g id="Page-2.4-_x28_venue_x2B_photos_x29_"><g id="home" transform="translate(-133 -1511)"><g id="speakers" transform="translate(133 1394)"><g id="_x31_" transform="translate(0 90)"><g id="Mask"><path id="path-1_1_" class="st0" d="M-.6 26.8h260v343.4H-.6z"/></g><defs><filter id="Adobe_OpacityMaskFilter" filterUnits="userSpaceOnUse" x="-.9" y="53.7" width="243.2" height="317.2"><feColorMatrix values="1 0 0 0 0 0 1 0 0 0 0 0 1 0 0 0 0 0 1 0"/></filter></defs><mask maskUnits="userSpaceOnUse" x="-.9" y="53.7" width="243.2" height="317.2" id="mask-2_1_"><g class="st1"><path id="path-1_2_" class="st2" d="M-.6 26.8h260v343.4H-.6z"/></g></mask><g transform="translate(0 28)" id="Page-1_1_" class="st3"><path id="Stroke-1" class="st4" d="M153.4 33.4c-17.3-8.3-38.2-8.9-55.9-1.5-17.7 7.4-31.9 22.7-38.1 40.8-6.5 19.1-4.2 39.9-1.1 59.8-.4-2.5-4.9-3.5-6.4-1.5s1.8 14.2 3.1 20.1c2.1 9.3 1.9 21.1 3.4 26 1.1 3.4 6 5.8 10.5 3.4 6 15.4 13.8 31.4 27 41.4 9.6 7.3 22.3 10.5 34.2 8.7 12-1.8 23.1-8.7 30-18.5"/><path id="Stroke-3" class="st4" d="M114.7 236.9c18.4 4.8 39.3-2.1 51.2-16.9"/><path id="Stroke-5" class="st4" d="M153.4 33.4c15.4 8.3 27.5 20.7 34.8 36.6 7.4 15.9 6.9 48.9 5.7 51.3 1.1-2.4 3.2-4.9 5-6.8 1.8-1.9 4.5-3.3 7.1-2.9 2.7.4 5 2.6 6.1 5.1 1.1 2.5 1.4 5.3 1.5 8.1.3 7.6-.2 15.3-1.6 22.8-.7 3.9-1.6 7.8-3.7 11.1-2.1 3.4-5.4 6.1-9.3 6.6-3.9.5-8.3-1.7-9.4-5.5-1.2 11.5-5 22.9-10.5 33.1"/><path id="Stroke-7" class="st4" d="M194 164.9c-3 25.6-.6 52.8 4.3 77.8"/><path id="Stroke-9" class="st4" d="M217.6 241.5c-9.4-5-17.4-12.3-23.2-21.2"/><path id="Stroke-11" class="st4" d="M158.6 113.3c-6.2-2.9-12.9-5.9-19.7-5-5.1.7-9.8 3.6-12.6 7.9 4.4 3.1 10.1 4.3 15.4 3.6 5.3-.6 10.4-3 14.5-6.4"/><path id="Stroke-13" class="st4" d="M69.2 122.4c2.9-4.4 7.9-7.4 13.1-7.9 5.3-.5 10.7 1.3 14.5 5-7.2 5.1-17.2 6.2-25.2 2.5"/><path id="Stroke-15" class="st4" d="M96.9 115.7c-3.7-4-9.1-6.4-14.5-6.3-5.4.1-10.8 2.5-14.4 6.6"/><path id="Stroke-17" class="st4" d="M124.7 111.8c3.5-4.9 8.9-8.3 14.8-9.4 5.9-1 12.2.3 17.1 3.7"/><path id="Stroke-19" class="st4" d="M58 129.9c2.5 16.9 6.4 35.7 11.6 52"/><path id="Stroke-21" class="st4" d="M82.5 105.3c7-2.2 15.4 2 17.8 8.9 1.7 5 .6 10.4-.5 15.5l-4.1 18.8c-.5 2.1-.9 4.3-.2 6.3s3.1 3.6 5 2.7"/><path id="Stroke-23" class="st4" d="M98.5 152.5c1.4-.5 3.1-.3 4.4.5 1.3.8 2.2 2.2 2.3 3.7"/><path id="Stroke-25" class="st4" d="M115.2 155.8c-1-.8-1.4-2.3-.9-3.6.5-1.2 1.8-2 3.1-1.9 3.3.3 4.5 5.3 7.8 5.7 1.7.2 3.4-1.1 4.1-2.7.7-1.6.5-3.5.1-5.1-1.1-4.2-4-7.9-7.9-10"/><path id="Stroke-27" class="st4" d="M127.2 103.8c-5.7 1.7-9.9 7.4-9.8 13.3.1 6.2 4.2 11.5 8.2 16.3"/><path id="Stroke-29" class="st4" d="M91.8 152.6c-1.5 5.1-3 10.1-4.6 15.2"/><path id="Stroke-31" class="st4" d="M194 139.4c-.1-15.3 7.7-23.4 11.7-22.3 1.9.6 3.7 4.4 4.4 7"/><path id="Stroke-33" class="st4" d="M203 143.5c.2-1.4.4-2.8.3-4.2-.1-1.4-.6-2.8-1.6-3.8-1.7-1.8-4.9-1.7-6.6.1-.9 1-1.4 2.6-1.1 3.9 1.7-.8 4 .2 4.6 2 .6 1.8-.6 4-2.4 4.4"/><path id="Page-1" class="st4" d="M142 176.3c-4.1 4.4-11.1 4.4-17 3-2.7-.7-5.5-1.5-8.2-1-1.2.2-2.3.7-3.4.9-2.4.4-4.8-.2-7.2 0-1.8.2-3.5.8-5.2 1.4-3.2 1.2-6.4 1.6-9.5 2.7 1.9-5 5.6-9.3 10.2-12.1 1.5-.9 3.4-1.7 5-.9 1.2.6 1.9 2 3.2 2.3 2.4.6 3.9-2.8 6.2-3.6 2.5-.9 4.9 1.3 7 2.8 5.3 3.7 12.1 4.1 18.6 4.4-6.3 4.5-8.7 16.7-14.6 21.7-5.2 4.5-13.3 4.2-19.4.9-2.2-1.2-4.3-2.7-5.7-4.8-1.2-1.8-1.9-3.9-3-5.8-1.2-1.8-3.2-3.4-5.3-3.2 4.5-.7 9.7-.4 14 .9 2.2.7 4.4 1.6 6.7 1.5 1.6 0 3.2-.6 4.8-1.1l7.8-2.7c3.1-1.1 9.4-2.8 11.8-5.1"/><path id="Stroke-37" class="st4" d="M132.8 149.3c4.8 4.3 8.8 9.7 11.4 15.6"/><path id="Stroke-41" class="st4" d="M217.6 241.5c8.2 14.8-16.7 17.9-25.7 23.3-6.2 3.7-11.3 9.2-18.3 11.4-4.4 1.4-8.8 2.3-13 3.3"/><path id="Stroke-43" class="st4" d="M52.4 285c-13.7 2.4-19.4 14.1-24.9 25.5-4.5 9.3-9.7 20.9-11 31.5"/><path id="Stroke-45" class="st4" d="M217.6 241.5c8.9.1 10.4 2.8 10.1 11.9-.3 8.3-4.8 12.4-9.3 19.1-4.2 6.3-7 13-9 20.3-3.3 12.2-5.9 24.8-9.1 37.2-.4 1.7-2 6-4.3 12.3"/><path id="Stroke-49" class="st4" d="M220.7 241.5c5.9-3.9 18.1-4.9 19.6 2.8 4.2 21.1-5.6 43.4-6.5 64"/><path id="Stroke-51" class="st4" d="M42.4 289.5c-18-1.6-24.7 18.4-30 31.8-2.5 6.2-4.2 13.3-5.6 20.6"/><path id="Stroke-55" class="st4" d="M15 314.7c-3.8 6.6-9.4 13.2-15.1 19.7"/><path id="Stroke-65" class="st4" d="M84.8 114.3c-5.6.8-5 7.3 1 7.6 2.5.1 5.3-3 4.1-5.4-.9-1.8-3-2.2-6.4-2.2"/><path id="Stroke-67" class="st4" d="M142.4 108.2c-6.7.5-4.3 10.3 3.3 8.9 3-.5 4.4-4.3 3.6-6.4-.9-2-4.4-2.6-7.4-2.6"/><path id="Stroke-73" class="st4" d="M90.2 216.8c2.8 21.7 2.4 38.4 1.9 54.8 7.1 1.4 12.5 8.5 19.5 9.9 7.1 1.4 14.4 2.1 21.7 2 10-.1 18.5-2.2 28.5-4.3"/><path id="Stroke-75" class="st4" d="M51.9 285.1c4.2-.2 7.6-2.8 12.2-2.6 2.3 5.1-2.9 11.6-4.6 16.3-2.1 6-2.4 12.6-3.8 18.8-1.8 8.1-3.7 16.2-5.3 24.3"/><path id="Stroke-77" class="st4" d="M91.9 271.4c-5.8 0-11.5.1-16 4.1 7.8.9 14 9.6 21.1 12.6 11.4 4.9 22 5 34.2 6 13.3 1.1 25.2 1.2 38.1-3 9.8-3.2 19.4-7.2 29-10.9 4.5-1.8 9.9-2 14.2-3.7 2-.8 3-2.4 5.1-3"/><path id="Stroke-79" class="st4" d="M44.3 327.6c0 5.2-.4 10.2-1.1 15.2"/><path id="Stroke-81" class="st4" d="M64.1 282.6c2.5-3.1 8.3-4.9 11.9-7.1"/></g></g></g></g></g></svg>