<svg id="Layer_1" xmlns="http://www.w3.org/2000/svg" viewBox="0 0 260 344"><style>.st0{fill:#231f20;fill-opacity:0}.st1{fill:none;stroke:#231f20;stroke-width:2;stroke-miterlimit:10}</style><path class="st0" d="M0 0h260v344H0z" id="bg"/><g id="Layer_2"><path class="st1" d="M50.8 156.8c-1.9 13.2-4 23.2-1.5 36.8 1.3 7.4 2.2 14 2.9 21.3.8 8.2 3.3 14.2 8.3 20.9 3.7 5 8.6 8.7 12.3 13.5 3.8 4.9 6.4 9.8 11.3 13.9 7.5 6.2 14.3 10.4 24.1 10.7 7.8.3 13.6-1.9 20.8-4.6 13.4-4.8 27.1-10.5 38.1-19.4 5-4 9.1-8.1 11.6-14.2 2.5-6.2 2.7-13 4.1-19.4 1.6-7.4 4.7-14.4 7.3-21.3 2.5-6.8 2.7-14 3.3-21.2.7-9.6 4.4-19.6 4.4-29.2 0-6-2.7-10.7-1.8-16.9 1.3-8.3 2.2-14-2.4-21.3-3.4-5.5-8.6-4.2-14-7.7-3.2-2.1-4.4-5.7-7.6-6.1-2.9-.4-5.8.9-8.5-.9-2.1-1.5-3-5.7-5.6-6.1-1.8-.2-5.5 2.7-7.7 3-3.2.4-4.9-.8-6.2-3-.8-1.3-2.4-2-3.9-1.7-2.2.5-3.5-.2-5-2.1-.9-1.2-2.7-1.6-3.9-.7-2.2 1.3-5.1 2.2-6.7.9-.9-.7-2.3-.8-3.3-.1-.9.6-1.9 1-3.5 1-2.2.1-5-.5-6.9-1.9-1.2-.8-2.8-.9-4.1-.3-1.7.8-3.2-.9-4.8-2.7-1-1.2-2.8-1.5-4-.4-1.1.9-2.5 1.7-3.9 2.1-4 1.2-5.4-.1-8.8-1-2.2-.6-.8-1.7-3-.4-1.2.7-1 2.2-2.2 3-2.6 1.9-5.9.2-8.8 1.3-3 1.2-3.3 4.2-5.4 6.2-1.5 1.3-2.8 1-3.7 3.2-.9 2.3 0 4.2-.1 6.5-.3 4.6-2.8 9.8-3.8 14.5-2 8.9-1.7 17.9-3.9 26.8-1.4 5.6-.9 12.3-3.5 17"/><path class="st1" d="M58.1 136.8c1.5-1.3 7.4-4.6 9.7-6 3.3-2.2 6-4.6 9.9-5.1 6.2-.8 14 1.7 19.8 3.9 2.6 1 6.3 2.6 7.4 5.3.8 2 1.1 7.7-1.5 8.5-2.7.9-7.6-3.2-9.9-4.1-3.6-1.3-9.1-2.6-12.8-2.7-5-.2-9.7 2.2-14.6 2.8-5.2.5-9.6-1.1-8-2.6zm77.6 9.8c-1-.7-1.1-2.1-.4-3.1 2.2-3 2.8-5.8 7.5-6.6 5.7-1 11.9-.9 17.8-.9 9.5 0 14.5 3.9 19.2 12.1 1.7 2.9 2.9 6.5 3 9.9 0 .9-.8 1.7-1.8 1.6-4.8-.8-10.5-8.2-14.5-9.9-7.8-3.2-16.7-2.1-25-2.5-1.5-.1-4 .4-5.3-.2-.2-.2-.4-.3-.5-.4zm49.7 64.1c2.9 2.2 4.8 5.1 8.8 4.9 5.8-.2 9-4.6 11-9.5 2.8-6.8 5.6-13.6 5.8-21 .1-3.8.6-10.3 0-14M49.9 195.3c-2.6-.6-6.9-4.7-8.2-7.1-2-3.8-1.3-9.3-1.3-13.6 0-4.5.1-9-.3-13.5-.2-2.7-.7-5.2.2-8.1m30.8-2.4c-.5-.3-.3-1.1.2-1.2 5.8-1.3 12.8-3.3 18.7-1.3 3.3 1.1 9 3.6 11.8 6.5.5.5.3 1.5-.4 1.7-2 .5-4.9.3-6.6.4-3.6.1-7.5.2-10.9-.4-2.8-.5-5.8-1.8-8.5-3-1.4-.9-3-1.8-4.3-2.7zm66 12.6c-.5-.3-.5-1.1.1-1.5 2.2-1.1 4-2.3 6.6-2.8 3.5-.6 6.7-.8 10.2.1 4.8 1.3 11.2 1.9 16.1 4.1 1 .5.7 2-.4 2.1-1.6.1-3.1-.1-4.5 0-3.8.1-7.8.5-11.6.3-3.8-.1-12.5 0-16.5-2.3zm-68.6-17.4c2.4-.6 5-1.6 7.4-2.1 2.6-.6 5.3-.6 7.9-.5 5.4.2 9.4 2.5 14.3 4.5m39.8 9.5c7.7-7.3 17.9-1 26.5.7m-32.2 6.9c1.5 4.8 8 8.7 12.7 8.3m-66.8-10.5c3.1.9 6.3.9 9.5.9 3 0 9.8.5 12-.9m11-1.8c-.4 3.4-2.1 6.9-3 10.3-.9 3.1-3.2 6.9-2.9 10.3"/><path class="st1" d="M100.6 180.3c-5.2 0-12.2 4-8 10.2 2 2.8 5.5 3.3 8.1 5.4 2.1 1.6 3.2 3.7 4.6 5.8 3.7 5.9 9.5 3 14.7.7 2.8-1.2 5.6-2 8.5-2.4 2.5-.4 6.1-1.1 7.6-3.7 3.5-6.3-7.4-11.2-10.7-4.9m2.9-36.6c-4.2 2.1-5.2 8.4-5.7 12.5-.7 5.4-.9 10.9-1.5 16.3m-36.3 3.2c-5.3 2.6-12.5 7.8-14.5 13.6-2.5 7.3 1.5 16.9 4.9 23.2m85.6-9.7c.1 1.6 1.7 3.1 2.2 4.8.8 2.8.3 4.7-1.2 7.1-3.9 6.6-8.6 12.7-12.7 19.3"/><path class="st1" d="M151.9 220.5c-6.1-2.8-14.5-5.5-21.3-6.9-4.5-.9-8.4-1.6-13-1.1-5.1.5-9.5.4-14-2.3-7.4-4.6-25.4-1.3-28.1-1.3-.1 0-.2.1-.1.2 5.5 9.9 13.1 20.7 24.1 24.7 13.4 4.8 28.7 6.6 41.3-1.2 3.3-2 11.1-8.3 11.1-12.1zm-55.3 21.3c2.7.3 5.4.3 8 .9 2.5.5 5.9 1.8 7.8 1.9"/><path class="st1" d="M151.9 220.5c-4.5-1.9-11.4-1.5-16.3-1.5-10.4 0-21.8.8-31.6-2.8-4.8-1.8-9.5-3.7-14.6-4.5-3.6-.5-9.7-3.1-13.1-2.7 1.3 2.9 5.2 5.7 7.9 7.4 5.7 3.7 10.9 7.6 17.6 9.4 11.5 3 27.7 5.9 38.6-.1 2.2-1.1 10.9-3.1 11.5-5.2m-41.5-2.2c-.1 2-.6 6.8-.8 8.6m9.6-7.7c-.5 2.8-.4 7.5-.9 9.5"/><path class="st1" d="M126.2 219.3c-.4 2.5-.6 6.6-.8 9.2.1.4.2 0 .5 0m8-9.2c-.4 2.6-.7 6.2-.7 8.3m7.6-8.4c-.3 2.1-.2 4.6-.4 6.6m-38.6-9.5c-.4 1.8-.9 8-1.1 8.9m-5.3-11.3c-.9 2.5-.8 6.1-1.7 8.7M87.9 212c-.1 1-.4 4.8-.7 6.8m-25.8 18.4c1.5 3.1.1 9.2 0 13-.2 5.2-.9 10.5-1.5 15.6-1 9.9-3.4 18.9-6.3 28.2m47.5-6.8c2.1 9.4-2.1 24.4 6.6 30.6m30-35.2c-1.9 6.1-1.6 14.1-2.7 20.6-1.8 10.4-6.8 19.2-9.9 29m51.5-91.8c-.5 4.7-1.8 10.6-2.3 14.5-1 7.1-2.8 14.2-3.2 21.4-.5 8.1-2.8 22.3.4 29"/><path class="st1" d="M60.1 266c-5.3 6.1-12.3 10.2-19.6 13.8-5.4 2.7-11.4 6.2-17.3 7.3-4.5 0-4.2 6.5-4.6 9.9-.6 7.7 3.3 13.7 7.8 19.6 5.7 7.7 14.2 15.2 19.4 22.5M172.3 266c-.4 5.5 4.1 16.3 7.9 20.1 4 4.1 11.2 7.1 14.1 11.6 1.5 3.2 1 4.9 0 8.8-1.6 5.6-6.7 9.3-10.9 12.8-4.8 4-8.9 8.6-13.5 12.8-2.1 2-5 5.3-7.7 7.4"/><path class="st1" d="M23.2 287.2c-9.9-.1-21.3 1.6-16.7 14.7 5 14 14.4 27.9 24.5 37.6m160.6-44.9c3.2 1.7 9.4 4.1 12 6.7 1.7 1.7 4.8 5.9 5.1 7.9 1 6.1-8.1 13.1-11.9 16.8-3.8 3.7-11 9.4-13.1 12.7"/><path class="st1" d="M207.4 306.4c4.4 3.5 12.3 7.6 17.2 10.6 4 2.6 8.7 4.7 12.8 6.8 5 2.7 9.7 5.2 14.6 8.1m-59.2-129.8c6.2 5.8 12.3-8.4 12.6-12.6M51.3 155.9c-1.7 2.4-6.3 1.7-6.5-.8-.1-.6-.6-1.1-1.2-1.1-3.3 0-6.2-3-4.7-6.2.4-.8-.1-1.7-.9-2-1.8-.6-3.6-1.5-3.7-3.4-.1-.9 1.6-1.7 1.8-3 .2-2.4-1.6-2.9-2.3-4.6-.9-2.3 0-5.1-.6-8-.3-1.2-2.2-3.4-2.1-4.7.2-1.6 3-2.9 3.2-5 .4-3.7-3.5-5.6-2.8-8.7.3-1.1 1.6-2 1.8-3.5.3-1.9-.9-3.8-.6-5.6.1-.8 1.5-.8 1.7-1.9.4-1.9-.7-4.6 0-6.3 1.5-3.7 6.4-3.4 6.7-8 .3-5.3-5.8-11.3.3-14.9 1.6-.9 3-.4 3.8-2 .5-.8.3-2.2.1-3.4-.3-1.8.8-3.3 2.5-3.7.2 0 .4-.1.5-.1 1-.3 1.9-1.1 2-2.3.3-2.5.8-6.1 1.9-7.4 1.5-1.7 4-.4 5.7-1.8 2.7-2.2 2.9-8.1 6-10.3 2.3-1.6 5.3 0 8-.3 4.1-.5 3-3.3 5.7-6.5 2.5-2.8 3.6-1.8 7.6-1.2 7.4.9 5.1 0 8.5-5.3 3.3-5.1 3.7-2.5 8.1-.6 5.6 2.4 3.2-3 8.2-4.6 2.6-.8 4.4.6 6 2.2 1.6 1.5 3.9 1.5 5.6.1 2.8-2.3 6.8-3.6 9.8-1.7 2 1.2 2.2 3.9 4.8 4.5 3 .6 4.2-2.1 6.6-3.3 5.8-3 6.2 4.5 11.7 5 2.6.2 4.7-1.9 7.4-1.8 3.3.1 4.2 2.3 6.6 3.9 2.6 1.8 3.8 1.5 6.9 1.8 3.8.3 4.1 2 7.4 3.5 1.8.8 3.4.3 5.2.9 2.8 1 3.1 3.4 4.8 5.7 2.8 3.9 8.2 3.4 10.4 8.1 1.7 3.5 1 4.5 4.4 7 2.6 2 3 2.2 3.6 5.4.6 2.8.2 2.9 2.4 4.6 1.9 1.5 4.6 1.2 5.9 3.5 1.1 2 0 4.9.9 6.6 1 1.9 3.9 2.1 5.1 3.9 1.3 2.3-.3 4.4.4 6.5.7 2.2 3.1 2.9 3.8 5.1.7 2.1-.8 4.8.3 6.7.9 1.7 3.2 1.8 3.8 4 .6 2.2.1 3.4 1.2 5.6 1.5 2.5 2.7 2.7 2.2 5.8-.5 3.3-1.6 3.8-.5 7.4.8 3 1.5 3.3.1 6.5-1.3 3.2-2.3 5-2.1 8.6.1 3.2.5 3.2-1.5 5.6-2.6 3.2-6.3 4.8-8 8.9-1 2.7-1 5.7-2.2 8.3-1.7 3.8-3.5 11.5-7.6 13.1-1.5.5-3-.2-4.6.5-1.7.8-1.8 3-2.9 3.8-1.9 1.2-4.6.8-6.5 2.5-.8.7-2.9 3.2-3.6 4-.9 1-1.3 2.4-2.2 3.2-.8.8-2.2.8-3.2 2.1M65 52.8c-5.7 5 3.5 13.2 6 6M91 51c-.5 7.9 9.8 8.7 8.8 2.1"/><path class="st1" d="M119.8 40.9c.6-2.3 4-2.8 6.2-1.9 3.6 1.7 2.9 6 2.6 9.3m-8.8 8.3c-2.2 5.9 4.8 7.7 9.1 5.6m14.8-8c-.5 5.4 8.1 12.2 11.6 6m5.6-17.3c1.1-2.1 6-2.8 8.2-1.6 3.5 2 2.7 6.9 2.7 10.4m6 13.4c-2.5-.8-3.2 2-2.1 4.1 2 3.6 8.6 3.5 11.6 1.9m9.1-9.2c-.6 7.5 1.1 11.3 9.5 8.4m-6 19.1c-1.2-6.5 14.4-1.8 6 6m17.9 12.9c-6.1 1.8-2.2 8.6 1.5 10.6m-17.3-.4c1.7-1.3 4.1-.6 5.7.8 3.7 3.5-.1 7-3.2 9.3m4.8 10.9c-4.7-4.2-11.1 9.2-3.2 9.5M44.2 79.1c1.2-6 11.5-7 10.9.7m9.6-5.3c1.3-6.6 7.6-2.8 6.6 3.5m-21 20.1c0-2.8-2.7-3.5-4.7-1.6-3.7 3.8 1.7 7 5 8.2m-6.7 7.5c-5.2-1-6.8 9.8 1.8 8.1m.3 10.8c2.2-2.9 7.6 3.8 1.5 6.3m112-59.3c-1.3-6.4 10.2-3.1 7 2.5m-56-15.4c-3.7.7-1.9 5.9-.6 6.8 3.1 2.4 6.3-.6 9.2-1.3M188 85.1c-2 .5-3.1 3-2.6 5 1 3.9 6.3 3.5 9.3 2.5m9 11.2c-3.8 2.6 2.4 9.3 4.9 4.9m7.9-16.2c4.2-2.5 5.8 5.3 2.5 7.4m-14.6 59c-3.8 5.4 3 10.6 8.1 4.9m-92.8-42.4c.6 4.8-1 9.5-1.1 14.3m-37.9 11.7c-1.7 2.1-2.6 5.4 0 7.9m9.3-7.5c1.9 2.5 2.4 6.6-.2 8.7.1-.1.3-.2.4-.3m55.6 2.5c-2.3 1.2-3 5.6 0 6.5m8.7-5.9c1.8 1.3 1.3 5.1-1.7 6.3M141.7 36.2c-3.6-2.2 5.9-10.5 7.3-1.2m-48.1 5.6c-1.6-2.1-1.9-6.9.8-8.5 2.6-1.5 4.2.6 6.4 2.1m-24.3 5.2c-5.6.5-1.6 10.9 4.5 4.5M83.5 69c-2.1-4.9 6.8-8.4 7.7-3.6m134.7 64.7c1.1-1.9 3.5-.2 3.6 2 .1 1.6-1.5 2.9-2.5 3.8-.2.2-2.8 1.2-1.1.6m-85.7 59.2c1.8 1.9 3.4 3.5 5.5 5.2 6.2 5 11.7 17.7 11.8 20.1.2 2.7-1.8 4-3.5 5.9-5.2 5.2-8.9 12.7-13.7 17.5"/></g></svg>