<svg xmlns="http://www.w3.org/2000/svg" width="449.922" height="595.281" viewBox="0 0 449.922 595.281"><path fill-opacity="0" d="M-.094 0h449.921v595.281H-.094z"/><path fill="none" stroke="#000" stroke-miterlimit="10" d="M266.203 112.274c-7.738-4.286-30.358-19.287-38.933-25.597m2.383-10c-8.81-7.384-21.19-15.954-34.406-16.668M49.997 551.472c-9.523 14.167-16.787 19.049-23.454 26.43-8.334 9.287-7.249 10.475-9.511 17.379m311.556-28.332c.478 7.265 2.486 18.212-.133 28.332"/><path fill="none" stroke="#000" stroke-miterlimit="10" d="M227.391 86.677c-.478-.598-1.667-4.167-1.548-4.646.118-.477 5.596-1.548 5-2.144-.596-.597-1.547-2.619-1.19-3.216.357-.596 5.479-.834 5.597-1.429.119-.596-2.618-1.667-2.263-2.262.479-.596 14.287-1.905 15.834-7.62m-15.477 193.71c-1.548-.952-2.382-.952-4.524-.714-.477 0-6.785-4.646-7.501-4.524-2.021.479-3.333.714-4.167 1.071-1.31.477-5.118.477-6.548.119-1.429-.358-5.119-.714-5.596-.714-1.071 0-3.452 1.188-5 1.902-.597.238-2.146 2.265-3.097 1.905-.952-.359-2.978-.834-6.311 1.19-1.549.95-1.786 1.188-2.619 1.31-1.43.238-8.215-2.381-4.404-2.021.951.116 1.667-.238 3.929-1.667 2.023-1.19 9.764-7.024 14.406-9.051.833-.354 1.547-.833 2.381-.714 5 .357 9.049 2.5 9.645 2.381 2.619-.833 5.238-2.262 9.048-2.977 1.19-.238 2.382.834 3.572 1.548 2.619 1.429 7.144 4.882 10.953 8.334 1.666 1.548 4.167 3.334 5.356 3.334 1.548 0-2.5 2.5-5.716 2.5-1.426-.949-2.616-2.497-3.807-3.212zm-.953 7.977c-2.738 1.667-5 4.405-10.238 5.357-6.548 1.191-14.524 1.311-20.12-.714-4.882-1.786-4.882-2.381-9.286-5.119"/><path fill="none" stroke="#000" stroke-miterlimit="10" d="M196.674 258.118c3.335 2.023 2.264 1.429 5.478 2.738 3.097 1.31 17.502.477 20.002 0 2.5-.479 1.549.119 7.024-2.619m-2.858-35.003c-.477-.595-.834-.952-2.5-1.667-1.071-.478-5.238 3.334-5.477 3.689m-7.858-1.188c-.118-.834-3.451-3.215-4.167-3.572-.476-.238-4.881 2.5-5.118 2.979m-7.502-41.673c-2.144-1.666-4.881-3.812-7.5-5-5.715-2.5-17.979.95-23.097 8.096-2.382 3.334 16.668 6.548 20.479 5.238 1.785-.597 8.81-3.812 9.763-4.167 3.571-1.312 4.404-.597 4.049-1.431-.241-.354-1.789-1.307-3.694-2.736z"/><path fill="none" stroke="#000" stroke-miterlimit="10" d="M158.219 177.874c3.691-3.81 8.931-8.334 14.168-9.167 8.216-1.188 20.001 5.715 24.884 10.953"/><circle fill="none" stroke="#000" stroke-miterlimit="10" cx="180.364" cy="183.231" r="7.024"/><path fill="none" stroke="#000" stroke-miterlimit="10" d="M212.867 255.141v6.189m-10.478-6.546c-.356 1.905-.356 5.12-.356 5.953m20.477-6.667c.237 1.429.596 4.405.596 6.548m-30.122-97.507c3.689-.119 8.216-3.453 8.097-4.881-.119-.834-3.097-2.857-6.905-4.286-2.737-1.072-17.62-3.93-25.001-5.001-2.737-.356-16.313 8.334-16.313 8.334l-.714 2.977c3.333-.596 13.097-5.117 17.145-4.881 7.976.356 20.833 7.023 23.691 7.738zm45.598 22.502c2.022-1.667 4.644-3.811 7.264-5.001 5.477-2.5 18.096.357 22.145 8.096 1.429 2.619-17.383 6.072-19.523 5.239-2.383-.953-8.334-3.811-9.287-4.167-3.452-1.31-4.167-.596-3.93-1.429.117-.476 1.546-1.309 3.331-2.738z"/><path fill="none" stroke="#000" stroke-miterlimit="10" d="M272.513 188.47s-.952 1.188-2.023-.717c-3.334-5.715-14.645-11.43-24.287-7.263"/><path fill="none" stroke="#000" stroke-miterlimit="10" d="M272.394 181.446c-2.381-4.167-9.286-9.049-13.69-9.524-7.023-.834-18.931 6.071-22.979 11.905"/><ellipse fill="none" stroke="#000" stroke-miterlimit="10" cx="251.44" cy="186.923" rx="6.668" ry="7.024"/><path fill="none" stroke="#000" stroke-miterlimit="10" d="M244.654 167.516c-3.57-.119-6.07-1.548-5.833-2.979.119-.833 2.619-4.644 5.479-6.189 2.021-1.071 17.856-4.883 25.119-5.598 2.619-.235 2.737.598 2.737.598s.479 5.355.119 5.477c-.595.238.357-.119-3.57-.119-7.145 0-21.313 7.263-24.051 8.81zm-15.12 12.739c-2.855 3.453-3.689 6.072-3.93 6.551-.714 1.31-1.311 4.762 2.619 7.617m-22.738-14.763c.715 1.429 2.738 5 3.333 8.453.357 1.667-2.262 4.643-2.854 5.238m-50.364 89.65c4.523 5.952 9.405 9.405 17.857 14.646 8.69 5.355 18.572 11.668 26.551 12.739 4.881.595 8.929-.238 12.856-.119 5.479.119 10.357.477 15.12-.833 5.714-1.548 13.572-6.551 25.598-14.168 19.883-12.62 22.384-19.525 26.669-33.813"/><path fill="none" stroke="#000" stroke-miterlimit="10" d="M227.391 86.677c-18.573-2.146-45.36 7.855-51.908 13.689-10.478 9.286-21.313 41.669-22.383 50.956-.596 4.404-3.811 40.836-3.571 55.599.356 20.835 5.356 74.648 9.405 99.412 7.263 44.646 14.523 108.817 11.667 136.915-3.689 35.359-12.619 53.339-33.098 71.554"/><path fill="none" stroke="#000" stroke-miterlimit="10" d="M233.106 73.104c-11.668-11.905-28.931-16.905-32.025-16.313-1.904.357-4.405 3.215-5.834 3.334-1.43.238-6.071-.355-9.523.833-18.453 6.549-43.933 47.268-48.933 62.147-13.572 40.122-22.383 86.673-24.883 106.793-3.333 26.55-11.667 53.693-19.883 102.746-7.023 42.384-4.404 63.1-.834 127.032"/><path fill="none" stroke="#000" stroke-miterlimit="10" d="M170.244 72.033c-9.405 4.286-34.407 28.692-39.408 38.455-7.978 15.597-22.501 50.599-27.383 69.172-2.023 7.857-14.405 60.361-16.431 69.291-4.167 18.572-13.453 65.48-32.502 96.792-2.145 3.453-12.857 14.287-18.454 25.6-5.597 11.31-11.548 65.6-11.904 72.979"/><path fill="none" stroke="#000" stroke-miterlimit="10" d="M100.24 192.875c-4.168 10.12-23.217 48.575-27.384 57.504-8.334 18.099-19.646 59.528-21.432 68.341-2.856 13.811-5.478 22.621-8.571 41.908m185.848-148.585c2.262 5.001 4.048 9.765 3.334 12.025-1.312 3.929-2.023 4.521-6.312 7.381m-24.405-20.12c-.833 1.312-3.571 6.19-4.523 11.548-.356 1.786 2.023 4.524 5.001 6.313m-89.889.592c-4.286 58.1-11.191 152.631-15.835 193.586-3.929 35.002-8.812 66.195-18.453 97.626-5.357 20.479-21.79 62.738-24.886 74.287m61.436-169.649c1.785 51.552-18.098 96.674-29.05 121.795-10.953 25.001-20.371 41.901-24.3 47.854"/><path fill="none" stroke="#000" stroke-miterlimit="10" d="M107.74 552.663c5.119-3.929 14.525-15.356 15.717-29.05 1.429-16.549-1.43-29.764-3.93-47.025-2.618-17.739-5.952-51.553-5.238-57.146"/><path fill="none" stroke="#000" stroke-miterlimit="10" d="M123.217 525.875c-5.237 5.479-11.312 11.551-14.287 23.1-2.381 9.167-3.688 22.023-.354 37.025 1.903 8.332 1.31.596 1.903 8.332m28.81-232.279c-.355 6.549-1.548 22.502 4.763 45.004 5.952 21.311 10.001 26.906 11.072 47.622 1.429 27.502-8.215 43.455-16.906 52.146"/><path fill="none" stroke="#000" stroke-miterlimit="10" d="M150.481 428.132c-5.597 17.502-9.404 35.599-10.834 52.266-.597 7.382-1.667 30.836-2.737 38.932-3.334 24.406-17.858 33.693-29.646 37.386"/><path fill="none" stroke="#000" stroke-miterlimit="10" d="M146.076 443.726c4.523 7.263 7.738 14.882 4.523 23.335-3.097 7.977-7.619 11.668-10.834 14.287m13.812-4.879c-3.811 7.977-9.764 10.597-14.406 12.023m-.476 8.931c5.119-3.098 8.453-5.834 10.356-14.646m76.793-400.743c-7.264-5.715-20.358-10.715-26.551-9.286-10.715 2.5-24.524 15.834-32.621 30.002-4.286 7.619-9.048 28.216-13.215 45.601m73.934-61.674c35.121 11.07 35.717 19.285 41.551 30.356 3.096 5.953 3.69 44.17 3.571 73.458 0 12.501 4.167 43.932 8.453 63.576"/><path fill="none" stroke="#000" stroke-miterlimit="10" d="M208.7 58.103c3.214-1.312 8.215-3.333 11.189-3.333 12.263 0 25.24 6.786 28.455 10.477.714.834 2.143 0 4.643.952 8.097 3.334 29.646 24.764 35.122 31.669 10.001 12.62 19.05 26.073 28.692 47.146 10.596 23.097 32.264 89.528 39.051 109.056 4.522 12.977 8.929 24.168 11.667 30.359 12.145 28.216 21.549 60.719 21.787 61.192m.121.003c4.644 21.671 6.071 29.171 8.93 47.027 2.262 14.406 9.763 45.241 13.929 62.862 3.932 16.548 15.239 63.456 17.621 84.172 1.071 9.168 10.446 37.737-1.102 55.596"/><path fill="none" stroke="#000" stroke-miterlimit="10" d="M395.736 377.295c3.096 5.237 20.121 27.857 26.313 32.024 1.667 1.071-1.312 7.024 1.667 9.286 5.715 4.286-1.785 8.096 0 8.572 7.855 1.903 8.096 9.167 8.096 10.237 0 1.785-.238 6.905 0 8.098.119.354 3.811 6.188 2.619 8.688-3.571 7.265-1.785 21.313 5.596 21.552 4.048.117 4.673 17.079 4.435 25.054.227-4.756 1.228 11.391-4.666 23.667 0 0 3.333 11.476 3.333 15.571s-5.666 9.096-2.333 17.096 2.666 23.666.666 29.333.334 8.81.334 8.81M269.299 118.108c1.429 5.833 7.738 48.455 11.071 77.862 3.097 28.098 2.264 72.505-8.097 112.389-5.952 23.098-12.144 32.384-15.834 48.218-7.501 32.146-1.189 50.004 4.763 61.195"/><path fill="none" stroke="#000" stroke-miterlimit="10" d="M265.369 373.962c2.023 25.716 0 39.765-12.978 62.026-22.146 37.979-17.024 55.123-9.168 73.457 4.882 11.313 16.549 29.767 51.79 39.884 4.643 1.312 6.429 1.548 6.548.717 0 0-1.311-.357-6.072-3.098-12.737-7.263-35.12-25.597-34.287-52.859.478-14.646 11.549-27.979 14.524-54.289"/><path fill="none" stroke="#000" stroke-miterlimit="10" d="M278.347 419.439c-2.978 12.857-2.857 25.002-2.5 38.931.476 21.552-2.978 40.72-10.479 56.435m82.865 39.167c-45.359-36.313-49.17-59.29-45.24-86.911 4.285-30.002 9.764-42.741 13.452-68.695 5.119-36.788 6.431-65.957 3.572-102.508-2.978-37.859-5.953-66.79-11.312-111.317-2.737-22.978-9.523-53.932-18.217-71.193-8.689-17.265-34.287-44.289-43.573-43.693-2.856.238-5.834 1.31-7.857 1.786m-.952 401.049c-59.687 2.521-57.081 4.41-75.316 7.203"/><circle fill="none" stroke="#000" stroke-miterlimit="10" cx="197.27" cy="448.727" r="12.739"/><path fill="none" stroke="#000" stroke-miterlimit="10" d="M195.245 448.37c.596-1.429 2.263-2.022 3.69-1.429 1.548.714 2.262 2.619 1.548 4.167-.834 1.785-2.856 2.5-4.645 1.785-2.023-.833-2.856-3.214-2.023-5.119.953-2.143 3.571-3.215 5.715-2.143 2.383 1.069 3.572 3.929 2.5 6.429-1.188 2.738-4.403 3.929-7.144 2.738-2.977-1.312-4.404-4.881-2.977-7.857 1.548-3.334 5.477-4.882 8.811-3.334 3.69 1.667 5.477 6.072 3.812 9.763-1.905 4.167-6.786 6.072-10.953 4.167-4.645-2.021-6.667-7.5-4.645-12.144 2.263-5.119 8.334-7.501 13.572-5.119m-10.952-2.974l.715-6.432 8.573-.952 1.19 4.405.834 2.979m-1.429-5.241l.714-2.979s2.383-2.382 3.097-2.855c.237-.119 3.453 3.81 3.453 3.81l-3.453 3.69-3.097.715"/><path fill="none" stroke="#000" stroke-miterlimit="10" d="M193.103 430.75l-.477-2.618-2.739-1.431-4.047 3.215 3.096 4.405h2.976m62.386-67.505c-6.549 10.953-34.051 48.337-47.146 61.434m-19.645.356c-4.523-5-11.429-15.597-17.263-25.478m108.103-125.009c-9.286 22.502-27.383 52.028-24.883 96.557m6.31-83.699c-3.333 21.311-3.929 25.954-4.048 47.741m-12.977 4.882c-9.764 27.383-17.383 60.004-20.598 77.624m-51.312-81.077c4.764 18.454 14.524 65.124 15.12 77.506M12.495 543.852c0-3.333 1.189-56.552 9.167-89.054 6.429-26.192 7.856-27.385 22.264-48.575 11.786-17.382 12.738-15.239 24.525-34.883"/><path fill="none" stroke="#000" stroke-miterlimit="10" d="M3.366 595.281c6.904-61.076 28.893-106.671 37.106-132.387 2.737-8.453 25.479-80.362 29.287-97.27 12.857-57.506 15.358-60.36 29.406-119.415 7.857-33.097 12.146-50.955 22.265-94.292m.597-3.569c-4.404 24.049-6.19 56.906-6.19 56.906"/><path fill="none" stroke="#000" stroke-miterlimit="10" d="M34.758 375.15c8.097-14.522-1.594-2.738-3.491-1.905-1.896.834-16.092 31.193-17.307 33.693s-.814 12.262-1.422 14.286c-.606 2.022-5.258 10.356-5.409 13.097-.151 2.739-3.188 3.929-3.188 6.19 0 2.263 2.276 5.12 2.431 6.311.151 1.19-2.278 10.715-1.291 16.432.986 5.715 2.995 8.392 4.286 11.249 1.365 2.736-3.964 7.681-4.19 10.062-.228 2.382-1.821 2.977-1.974 6.549-.152 3.571 2.353 9.167 2.353 13.691 0 4.521 3.558 9.623 1.813 12.838-5.813 10.702-3.731 11.74-6.612 22.283-2.05 7.501.38 19.645 2.657 25.002 2.276 5.355 0 0-.379 7.263-.381 7.381-5.206 20.354.334 23.093m53.534-59.885c-9.645 19.883-16.597 35.951-15.168 59.882M230.248 80.486c5.237-2.262 10.715-4.048 14.764-4.167 10.953-.595 30.836 30.955 34.169 38.932 10.834 26.433 10.597 113.938 10.12 148.82-.357 24.645-1.905 52.385-3.334 83.339-1.548 35.003 3.334 77.981 1.785 109.294-1.548 31.788-14.168 58.813-18.216 65.957m-83.815-345.978c-9.524-3.452-20.835 2.619-25.358 7.263-1.548 1.548-4.882-.119-5.596-1.31 5.478-3.572 16.549-7.501 23.931-7.024m74.647 3.452c10.477-.356 17.024 3.689 19.168 4.882m34.407 260.257c5.238 34.526 10.002 49.768 41.192 91.315 16.191 21.431 21.96 29.046 15.531 59.763m-77.439-124.41c-5 60.957 58.101 80.008 61.908 83.104m-19.999-47.149c.119 5.119 1.904 17.266 0 29.407m-1.073 7.027c-4.881 25.597-18.452 21.426-21.786 52.021m37.145-67.62c-1.07 9.524-2.022 12.384-4.167 18.454m-1.071 2.619c-9.645 27.146-22.282 24.641-24.665 46.547m9.426-55.236c.596 1.548 2.022 6.07 3.096 11.07"/><path fill="none" stroke="#000" stroke-miterlimit="10" d="M315.493 403.723c10.237 52.979 14.167 74.053 26.786 100.007 10.717 22.025 27.385 46.67 23.932 79.411m-60.957-420.03c9.644 39.288 40.599 173.822 51.908 208.468 12.501 38.1 22.264 58.456 32.265 88.103 12.022 35.599 29.966 82.023 16.868 135.602M320.85 353.72c5.715 64.885 36.431 115.365 50.241 139.771 18.335 32.266 26.799 67.619 22.272 101.789M131.789 108.94c-2.145 4.167-8.334 27.857-9.645 39.408"/></svg>