<svg id="Layer_1" xmlns="http://www.w3.org/2000/svg" viewBox="0 0 260 344"><style>.st0{opacity:0}.st1{fill:#fff}.st2{fill:none;stroke:#000;stroke-width:2}</style><g id="Layer_1_1_"><g id="speakers" transform="translate(-425 -1307)"><g transform="translate(425 1298)" id="marek"><g id="bg" class="st0"><path id="Rectangle-path" class="st1" d="M0 9h260v344H0z"/></g><g id="Layer_4" transform="translate(0 9.971)"><path id="Shape" class="st2" d="M87.1 132.3c3.2 3.3 8.7 4.8 13.2 4.7 2.6-.1 5.2-.9 7.7-1.4 1.5-.3 4.1-.2 5.8-.5.7-.1 1-1 .5-1.5-2.4-2.7-5.8-5.3-8.7-6.7-5.5-2.5-11.3-.1-16 3-1.7 1.1-4.5 4.7-6 4.8"/><path id="Shape_1_" class="st2" d="M173.7 129c.6.4.5 1.3-.1 1.6-1.1.5-2.6 1-3.5 1.4-4.1 1.9-7.9 2.6-12.5 2.6-2.8 0-8.2-.3-10.7-.4-.8 0-1.3-.9-1-1.6 1.4-2.7 6.8-5.6 8.6-6.3 3.9-1.5 8.3-1.9 12.3-.5 2.1.9 5 2 6.9 3.2z"/><path id="Shape_2_" class="st2" d="M145.4 126.5c2.8-2 5.1-4.3 8.6-5.2 3.1-.7 6.5-.5 9.6.1 4.9 1 10.3 3.1 14.4 6.3"/><path id="Shape_3_" class="st2" d="M84.4 128.3c5.5-2.8 11.1-7.7 17.7-7"/><path id="Shape_4_" class="st2" d="M141.8 119c-.8-.1-.1-3.8 0-5.1.1-2-.1-2.5 1.9-3.3 3.7-1.5 8.8-.8 12.7-.8 7.8 0 15.7.1 22.3 4.7 2.4 1.7 4.7 3.4 6 5.8.4.8-.3 1.8-1.1 1.5-2.2-.6-4.7-2.4-6.5-3.2-4.1-1.8-9.1-2.5-13.5-2.9-4.7-.5-9 .3-13.6 1.3-2.7.4-5.7 2.2-8.2 2z"/><path id="Shape_5_" class="st2" d="M117.9 119c.9.1 1.7-.6 1.9-1.5.5-2.5.8-6.3-.7-7.6-2.1-1.9-9.1-.4-11.8-.5-2.5-.1-5.2-.5-7.7-.1-2.6.5-4.8 2.1-7.3 2.9-3.2 1-6.9 1.1-9.7 2.7-2.2 1.3-4.7 4-6 6.5-.5 1 .3 2.1 1.4 2 4.4-.5 9.5-4.1 13.1-5.1 6.2-1.7 13.3-1.5 19.6-.9 1.8.2 5.3 1.4 7.2 1.6z"/><path id="Shape_6_" class="st2" d="M115.1 167.8c2.2-.2 4.6.4 6.5 1.1 1.7.6 3.5 3 4.4 3.3"/><path id="Shape_7_" class="st2" d="M129.9 175.1c1.9-.4 2.9-.4 4.7-1.6 1.3-.9 2.7-2.1 4.2-3 2.1-1.3 6.8-3.6 9.1-2.4"/><path id="Shape_8_" class="st2" d="M115.5 157.8c-2.5 1.8-4.8 5.5-4.6 8.7.2 3 3 4 5.3 5.3"/><path id="Shape_9_" class="st2" d="M142.9 172.6c3.8-.2 7.9-3.4 8.7-5.8 1.1-3.2-.2-7.2-1.2-9.6"/><path id="Shape_10_" class="st2" d="M97.9 126c-5.3 1.1-3.1 7.3-.9 9.1 3.1 2.6 8.4.7 9.2-3.3.4-2 .1-4.8-3.2-5.8"/><path id="Shape_11_" class="st2" d="M156 126c-3 .8-2.6 4.8-1.6 6.2 1.3 1.9 3.5 2.3 5.7 2.1 5.7-.5 7.5-9 1.7-9.2"/><path id="Shape_12_" class="st2" d="M107.3 192.4c6.4 0 12.6-.1 19 0 1.9 0 3.6-.6 5.5-.7 1.9-.1 3.7.3 5.4.5 3.7.3 6.9-1.2 10.5-1 1.7.1 3.5.5 5.3.5 0 0 4.9-.8 6.2-1.3"/><path id="Shape_13_" class="st2" d="M108.7 192.4c6.6-1.2 13.1-7.1 19.9-6 3.4.5 5.3-.9 8.6-1.3 3.9-.4 7.1 1.1 10.5 2.4 2.9 1.1 5.6 3.4 8.6 3.6"/><path id="Shape_14_" class="st2" d="M211 130.1c-.2 7 2.7 13.4 1.4 20.1-.7 3.9-.2 7.2-.2 11.2 0 3.3-.5 6.5-3.2 8.4-3.1 2.2-7.4 1.8-10 .3"/><path id="Shape_15_" class="st2" d="M108.7 192.4c1.9.5 5.5 3.4 7.5 4.7 3.7 2.2 7.7 3.9 12 4.4 7 .7 12.9.6 19.2-3.2 3.3-2 7.7-5.9 11-7.6"/><path id="Shape_16_" class="st2" d="M61.9 131.2c-10.2-5.2-12.2 5.7-9.7 14.6 1.4 5 2.6 10 4.4 14.9.8 2.4 1.5 5.1 1.7 7.5.2 2.7-.1 5.7.9 8.2 1.9 4.5 7.6 6.7 11.7 4.4"/><path id="Shape_17_" class="st2" d="M60.1 144.8c.1-5.5-2.6-15.6-4.8-8.5-1.2 3.7.8 7.9 2 11.4 1.2 3.6 2.9 9.5 3.6 15"/><path id="Shape_18_" class="st2" d="M123.1 156.4c2.6-13.2 1.8-27 3.9-40.3"/><path id="Shape_19_" class="st2" d="M131.6 177.9c.2 1 .9 4.3-.2 4.9-1.6.9-2.3-1.8-2.5-2.7"/><path id="Shape_20_" class="st2" d="M102.9 200.6c-.3 5.6 1.9 14.7 8.2 15.8 5.6 1 10.3.1 11.8-5.7.7-2.5.4-5.4.7-7.9"/><path id="Shape_21_" class="st2" d="M143.7 205.1c.1 1.6.1 3.3.2 4.9.1 1.5-.1 4.1.5 5.6 1.3 3.1 4.4 1.6 6.9 1.2 5.7-.9 9.6-3.1 10.6-9 .5-2.9-.5-6.5.5-9.3"/><path id="Shape_22_" class="st2" d="M195.8 183.6c-1.6 9.2-2.5 18.2-3 26.7-.4 7.1-.5 14.3-1 21.4-.5 6.4-1.3 13.1-.7 19.5.5 4.5 3.7 7.9 7.1 10.5 3.2 2.4 7.6 4 10.8 5.2"/><path id="Shape_23_" class="st2" d="M84.1 214.3c.9 5.3.6 12.2 1.1 17.3.6 5.2 1.3 10.3 1.9 15.5 1 9.2-1.4 19.3-10.7 23-2.3.9-8.6 3-10.4 4.9-4.8 4.8-5.1 12.9-5.1 20.8 0 8.9 1.5 26.5 5.3 34.6"/><path id="Shape_24_" class="st2" d="M208.4 266.7c6.2 5.4 5.5 15.4 4.7 23.1-1.2 11.9-6 29.8-10 41.1"/><path id="Shape_25_" class="st2" d="M71.7 271.9c-4.1-2.5-11.6 2.1-13.3 5.9-1.8 4.2-2.2 9.5-2.6 14.1-.6 6.4-1 12.3-.3 18.7.3 2.4.9 4.7 1.2 7 .3 1.7 2.1 11.7 2.5 12.8"/><path id="Shape_26_" class="st2" d="M207.5 266.4c3.3 1.1 7.3-.5 9.6 2.9 3.1 4.7 2.1 12.1 1.9 17.4-.4 7.8-1.4 15.4-3.1 23.1-.9 4.1-3.2 17.8-5.5 21.2"/><path id="Shape_27_" class="st2" d="M61.7 274.2c-3.5-1.1-5.8 2-8 4-1.9 1.8-3.8 1.8-6 2.5-2.9.8-5.9 1.8-7.8 4.3-3.4 4.3-5.4 9.5-6.4 14.8-1.5 7.9-.7 16.2-2.4 23.9"/><path id="Shape_28_" class="st2" d="M217.6 269.2c1.4-.1 3.3-.9 4.7-.5 1.7.5 1.4 1.5 2.5 2.9 1.5 1.9 6.5 1.9 9.2 2.2 1.5.2 4.5-.3 5.8.5 1.9 1.1 2.3 3.7 2.6 5.6.8 7 1.4 14 2.5 20.9 1.3 7.9.7 29.2.7 28.9"/><path id="Shape_29_" class="st2" d="M40.7 283.7c-3 0-4.2.5-6.8 2.2-3.9 2.5-5.1 3.8-6.2 8.3-1.2 5.2-2.3 10.7-3.1 16-.4 3.2-.6 6.3-.7 9.5-.1 2-1.1 5.6-1 7"/><path id="Shape_30_" class="st2" d="M241.4 275.9c2.3.4 5.4.3 6.8 2.2 2.7 3.9 1.3 11.1 1.5 15.5.3 6.5.9 13.2 1.7 19.7.5 4.1 1.8 12.8 1.3 16.4"/><path id="Shape_31_" class="st2" d="M175.8 265.8c-1.4 3.3-1.1 7.4-2.2 10.9-1.5 4.9-4.1 9.5-6.6 14-3.6 6.3-7.8 11.7-12.4 17"/><path id="Shape_32_" class="st2" d="M98.3 302.9c3.3-1.1 7.1-1.6 10.4-.3 4.7 1.8 6.4 7.4 10.5 10"/><path id="Shape_33_" class="st2" d="M120.4 50.1c0 5.3 1.9 4.4 6.3 5.1 4.6.7 6 6.2 10.8 6.6 12.2 1 23.7-14.4 26.7-24.8"/><path id="Shape_34_" class="st2" d="M171.3 50.6c6.7.7 9.9 3.9 13.2 6.3 4.1 2.9 7.7 5.1 8.1 10.7.4 5.1-1.2 9.4 3.3 13.3 3.8 3.4 10.6 2.1 15.2 1.2 3.1-.6 6.6-1.4 8.5-4.2 1-1.5 1.3-2.8.5-4.5-1.4-3-4.8-2.2-7.6-2.2"/><path id="Shape_35_" class="st2" d="M194.8 83.9c-.7 2.1.2 5.6 0 8-.3 3.2-.3 6.6-.2 9.8.1 3.4.5 7.9 2.7 10.8 2.6 3.4 0 8.6-.9 12.1-1.3 5 .6 11 2 15.9 1.8 6.3-.6 15.7-3.2 21.6-1.6 3.6-3.2 7.4-4.9 10.9-1.5 3.1-3.2 2.7-6 3.7-8.2 2.8-4.8 14.2-7.6 20.4-.8 1.8-3.6 8.3-6.2 6.7-2.4-1.4-2.3-8.8-2.7-11.1-.3-2-.3-5.1-.5-8.1-.4-6.2-4-6.2-9-8-3.9-1.4-8-2.2-11.9-3.5-2.5-.8-5.1-1.4-7.7-.7"/><path id="Shape_36_" class="st2" d="M9.6 137c5.4 2.4 11.5 3.8 17.3 1.7 5.6-2.1 8.7-6.2 11.9-11 3.7-5.5 11.1-12 18.2-9.3 3.1 1.1 4.6 2.6 4.8 5.7.2 2.3-.1 5 .1 8 .2 2.9 1.3 7.6 1.9 11.4.6 4 .4 8.1.6 12.3.4 8.9 3.2 17.5 6.4 26 3.7 10 5.2 19.4 10.9 28.7 5.6 9.1 11.5 17.8 17.9 26 3.2 4.1 5.8 7.9 9.4 11.5 1.6 1.6 4.6 5.8 7.2 7.8.8.6 1.9.1 2.1-.8.2-.8.3-1.7.2-2.1 0 0 0-.1.1-.1 1.8.8 3 3.6 4.2 5.7.4.8 1.6.8 2.1 0 .6-1.1 1.1-2.4 1.4-3.7h1.1c.4 1.7 1.1 3.5 2.2 4.9.6.8 1.7.8 2.3 0 .5-.7 1-2.2 1.6-3.3.4-.7 1.4-.6 1.6.1.4 1.3.6 3.4.7 5.1.1 1.1 1.4 1.6 2.2.9 2.1-2 3.9-5.3 4.9-7 5.1-8.3 16.5-10.1 22.5-17.8 6.6-8.5 13.6-16.4 20-25 7.3-9.7 8-21 11-32.4 1.4-5.4 2.9-10.8 3.7-16.4.7-5.2 2.6-10.4 3.3-15.5 1.2-9.8-1.6-19.1 5.5-26.1 1.4-1.1 3.8-2.4 5.3-1.1 1.7 1.4.5 4.3.6 6.2.2 4.2 1.6 8.7.5 12.9-.6 2.4-2.1 7.7-2.9 9.9"/><path id="Shape_37_" class="st2" d="M61.6 117.7c.1-1.9-.6-5.8-.7-7.7-.1-1.8.1-3.6 0-5.4-.2-2.5-1.2-3.9-3.9-3.6-2.4.3-4.5 2.3-6.5 3.6-3.3 2.1-6.9 3.8-10.5 5.3-3.3 1.4-5.8 2.6-9.5 2-3.8-.7-11.4-2.4-10.7-7.5"/><path id="Shape_38_" class="st2" d="M79.6 42.5c2.5-2.2 3.6-4.8 6.6-6.5 1.4-.8 2.9-1.2 4.5-1.3 7.8-.4 12.1 6.7 17.7 10.8 1.1.8.3 2.4-1 2.2-3.2-.6-6.5-1.7-8.4-2.8-4.4-2.5-8.2-3.5-13.1-2.4-5.8 1.3-9.6.4-12.6-5.6"/><path id="Shape_39_" class="st2" d="M56.6 114c.1-12.3-5-26.4-4.7-38.4.2-10.2 3.4-21.7 11-28.8 3.8-3.5 9-6 13.6-8.2 6-2.8 11-6.4 15.7-11.1 4.6-4.8 9.8-14.2 16.7-15.9 5-1.2 9.6 1.4 10.8 6.3 2.2 9-3.5 21.9-2.5 30.8.8 6.7-2.5 8.3-4.7 8.6-2.5.3-4.5-1.5-6.5-2.7-4.4-2.4-9-5.8-14.2-4.9-17.9 3-29.8 29-24.7 45.1.6 1.9 1.8 3.3 1.8 5.3s-.8 4.4-1.2 6.5c-1.1 6-.8 11.4-.3 17.4.4 4.5 1 8.7.8 13.2-.2 3.1-.6 6-.7 9-.2 6.1-.5 12.6 2.2 18.2 1.3 2.7 2.8 5.4 4.1 8 1.8 3.6 4 4 7.1 6.3 6.1 4.8 6.5 9.7 9 16.4.7 2 4.7 9.5 7.5 8.9 2.3-.5 1.5-6.5 1.1-8.3-.7-3.4-1.4-5.9-.9-9 1.2-7.1 6.7-8.1 12.2-11.4 2.6-1.6 4.2-3.8 7.1-3.4 2.3.3 4.4 1.8 6.7 1.7"/><path id="Shape_40_" class="st2" d="M123.6 47.7c6.8-2.7 14.3-6.9 19.4-12.3 4.4-4.7 10.9-10.6 8-17.6-2.6-6.3-9.8-5.9-15.1-3.7-2.1.8-4 1.9-6.3 2.3-2.4.4-3.5 1.2-5.7 2"/><path id="Shape_41_" class="st2" d="M135 55.2c3.8.3 9.1-3.3 11.6-5.8 3.2-3.3 5.9-7.2 9.2-10.4 2.8-2.8 6.6-4.8 9-8 1.5-2 3.6-7.2 3.1-9.8-.8-4.3-4.7-2.9-6.9-.6-2.5 4.8-8.3 3.4-12.9 4.7-5.2 1.3-9.9 4.1-14.3 7.1-7.4 4.9-13.5 9-13.5 18"/><path id="Shape_42_" class="st2" d="M179.9 45.8c5.2.7 4.4-20.2 2.6-23.1-1.7-2.7-4.4-3.5-7.1-4.9-1.5-.9-3.2-1.8-4.6-3-2-1.7-2.8-4-4.6-5.7"/><path id="Shape_43_" class="st2" d="M89.3 50.1c-3 .4-5.9 1.3-8.9 0-2.8-1.2-4.8-4.8-7.9-4.9-3.8-.1-5.9 3-6.7 6.1-1.6 6.1-1.1 11.4-4.7 17"/><path id="Shape_44_" class="st2" d="M112.8 45.8c1.6-5.6 1.7-14.2 1.8-18.4.2-4.5-.9-10-5.8-8.1-6.2 2.4-11.9 7.1-17.8 10-4.5 2.2-8.9 3.1-13.7 4.1-15.1 3.3-22.8 15.2-27.8 28.9-2 5.6-2 11.4-2.4 17.2-.5 6.7 1.2 14.8-6.4 25.7"/><path id="Shape_45_" class="st2" d="M61.9 125.7c.2-1.5 1-11.6-3.2-11.6-6.6-.1-13.2 2.5-19 5.6-4 2.2-6.6 5.9-9.9 9-4.1 3.9-8.2 8.3-12.7 11.6-4.1 3.1-9.2 4-14.3 4.3"/><path id="Shape_46_" class="st2" d="M70.1 69c-5.6 12.5-25.2 17.5-33.9 26.8-5.8 6.1-7.2 13.6-10.9 20.9-4.6 9.1-16.9 14.3-22.5 2.8"/><path id="Shape_47_" class="st2" d="M77.4 58c-5.1 7.4-21.8 13-27.2 12.9-4.6-.1-10.9-2.1-14.3-5.2-4.4-4-5-10.1-5.1-15.7"/><path id="Shape_48_" class="st2" d="M72.3 63.5c-5.1 7.5-19 14-23.5 12.7-12.2-3.4-14.1-14.7-12.5-25.8"/><path id="Shape_49_" class="st2" d="M155.7 52.2c7.5 0 12.1-3.8 14.1-5.6 2.8-2.6 4.2-5.7 4.6-9.5.5-5.1-2-8.9-6.1-11.4"/><path id="Shape_50_" class="st2" d="M183.9 37c3.1 2.6 4.4 8.5 6.6 11.8 1.8 2.7 3.9 4.8 5.4 7.7 1.4 2.8 2.1 5.8 3.1 8.8 1.1 3.6 2.6 5.7 4.7 8.7 2.4 3.5 2.7 9 2.8 13.2.3 8.3 1.5 16.1 2.3 24.2.4 3.5.6 7.1 1.1 10.5"/><path id="Shape_51_" class="st2" d="M52.8 66.9c13.1-1.3 18.1-9.3 20-14.2 1.5-4 4.4-6.8 6.8-10.3"/><path id="Shape_52_" class="st2" d="M151.6 56.1c8.4 2.1 15.8-2.6 19.6-5.7 5-4.1 9.5-12.1 8.9-18.8-.6-2.4-2.7-2.3-4.9-3.3-2.3-1-4.7-2.5-7-3.2"/><path id="Shape_53_" class="st2" d="M68.2 73.7c-2.8 5.2-13.3 22.2-9.3 27.4"/><path id="Shape_56_" class="st2" d="M61.1 68.4c-1.5 2-8.3 13.8-20.4 12.8-12.1-.9-14.8-3.7-14.8-3.7"/></g></g></g></g></svg>