<svg id="Layer_1" xmlns="http://www.w3.org/2000/svg" viewBox="0 0 260 344"><style>.st0{fill:#fff;fill-opacity:0}.st1{fill:none;stroke:#000;stroke-width:1.9992}</style><g id="Page-2.4-_x28_venue_x2B_photos_x29_"><g id="speakers" transform="translate(-718 -755)"><g transform="translate(718 752)" id="_x37_"><g id="Mask"><path id="path-1_1_" class="st0" d="M.2 3H260v344H.2z"/></g><g transform="translate(-19 4)" id="Page-1"><path id="Stroke-1_5_" class="st1" d="M81.6 343c.9-6.5.5-12.9.3-17.1-.2-3.1.7-7.7-.9-10.3-1.6-2.7-5.4-4.2-7.9-6.1-12.3-9-26.5-25.5-43.4-23.8-4 .4-7.8 2.3-10.5 5.3"/><path id="Stroke-1_4_" class="st1" d="M19 329.9c1.5 1 3.1 2 4.6 2.8 6.6 3.7 12.1 7.2 17.8 10.1"/><path id="Stroke-1_3_" class="st1" d="M110.6 46.7c-9.2-.7-15.2 9.2-21 15.3-7.1 7.5-11.9 17.6-17.4 26.4-5.9 9.6-7.1 23.6-6.3 35 .6 8.3 3.1 15.9 3.6 24.4.5 9.6.6 19.2.9 28.9.3 10.3 2.2 20.5 2.7 30.7.2 5.2 1.9 16-1.4 19.9-5.6 6.7-15.2 11.6-21.9 17-8.7 7.1-17.4 14.1-25.9 21.4-1.5 1.3-3.1 2.7-4.8 4.3"/><path id="Stroke-3_4_" class="st1" d="M208.4 343c-.1-8.9-1-18.2 0-27 1.1-9.2 15.7-13.2 23.2-16.6 10.7-4.7 20.9-14.9 33.5-11.6 5.2 1.4 8.8 4.3 13.8 5.3"/><path id="Stroke-3_3_" class="st1" d="M279 320.6c-.6.4-1.1.9-1.7 1.3-10.8 8.3-21.9 15.6-34.2 21.1"/><path id="Stroke-3_1_" class="st1" d="M129.2 42.7c14.2 6 31 .9 45.8 4.9 18.5 5.1 27.4 21.8 40 34.2 4.6 4.6 6.1 11.1 9.5 16.6 4.8 7.7 4.8 14.6 5.2 23.5.9 17-3.1 31.4-5.8 47.2-1.9 11.4-6.3 22.6-8 34-.6 4.4-1.1 8.9-.9 13.4.3 6.5 2.7 9 7.4 13 12.2 10.5 22.3 21.5 35.5 30.9 7.6 5.4 15 10.6 21 17.5"/><path id="Stroke-5" class="st1" d="M89.6 61.9c-3.5-8.7-17.2-12-25-13.1-8.1-1.1-20.7-5-28.7-1.7 2.6 15.6 22.3 36.6 38.8 37.1"/><path id="Stroke-7" class="st1" d="M197.4 61.7c10.3-15.4 32.9-18.8 49.5-20.3 3.8 1-5.1 17.9-10.1 25.4C231 75.3 225 80.5 215 81.6"/><path id="Stroke-9" class="st1" d="M86 66.2C78 56 49.1 52.9 48.7 54.3c-.1 6.2 10.1 12.8 14.4 16.2s9.4 7.8 14.7 8.1"/><path id="Stroke-11" class="st1" d="M205 70.3c3.2-11.8 19.8-21.3 31.7-21.4 1.5 12.4-14.7 30.3-26.9 27.4"/><path id="Stroke-13" class="st1" d="M89.4 65.7c4.5 3 7.7 7.9 12.4 10.6"/><path id="Stroke-15" class="st1" d="M160.6 75.4c3.2-2.6 7.3-3.3 10.6-5.5 2.2-1.5 3.8-3.5 6.2-4.7"/><path id="Stroke-17" class="st1" d="M100.9 64.4c-3.5 4.3-9.6 8.4-14.2 11.5"/><path id="Stroke-19" class="st1" d="M164.2 64.4c3.7 4.3 9.1 7.7 13.3 11.5"/><path id="Stroke-21" class="st1" d="M105.5 20.8c2.3 7.6 3.9 14.5 5.1 22.3 1.2 7.6 3 28.8 9.7 33.5 5.8 4.1 24.9-5.1 22.8-13.6-1-4-6.7-10.7-9-14.1-3.5-5-7.2-8.8-10.3-14.2-3.6-6.4-7.1-13-12-18.6-3.4-4-6.7-13-8.8-12.4-2.1.7.8 11.6 2.5 17.1z"/><path id="Stroke-23" class="st1" d="M105.3 102.9c-1.2 3.6-1.9 12.2 3.1 11.6 5.7-.8-1.2-17.1-3.1-11.6z"/><path id="Stroke-25" class="st1" d="M137.2 104.2c-.1-1 .1-2-1-2.2-4.7-.5-3.7 11.9.1 11.9 4.2.1 1.1-6.6.9-9.7z"/><path id="Stroke-27" class="st1" d="M106.2 22.8c2.3-1.9 3.9-3.4 6.2-5.4"/><path id="Stroke-29" class="st1" d="M109.4 36c2.8-3.3 6-7 9.2-9.7"/><path id="Stroke-31" class="st1" d="M111.9 52.4c3.5-4.8 9-10.4 13.7-14.2"/><path id="Stroke-33" class="st1" d="M117.7 73.7c5.3-6.4 13.7-14.2 19.4-19.9"/><path id="Stroke-35" class="st1" d="M106.6 25.9c2.1-2.4 4.9-4.3 7.3-6.2"/><path id="Stroke-37" class="st1" d="M110.2 40c3.8-4 7.2-7.2 11.1-10.2"/><path id="Stroke-39" class="st1" d="M113.3 60.4c2.8-6.5 10.5-14.3 15.5-19"/><path id="Stroke-41" class="st1" d="M121.1 76.6c4.9-5.5 13.1-13.7 19.6-17.1"/><path id="Stroke-43" class="st1" d="M74 168.4c0-14.2-3.8-31-.1-44.8 1.8-6.7 5.7-10.8 12.9-10.5 6.2.3 10.2 5.1 15.1 8.8 11.7 8.9 23.8 10.6 36 1.7 5.8-4.2 10.4-10.3 17.1-16.6 5.1-4.8 12.4-7.5 19.3-8.3 13.3-1.5 19.8 3.8 27.9 15.3 3.5 4.9 5.6 14 6.4 19.5 1 6.6.5 12.7 1.2 19.5 1.4 13.7 1.2 25 0 38.6-.8 9-2.3 18.7-6 27.1-7.7 17.3-22.6 31.8-38.5 41.3-18.3 10.9-43.3 12.2-61.6 1.8-6.1-3.5-12.6-7.8-15.8-14.3-3.3-6.7-6.6-11.8-8.4-18.6-2.2-8.5-1.5-19.1-2.3-27.8-.7-7.9-.7-15.8-1.8-23.6-.5-3.5-1.4-6.9-1.3-10.5"/><path id="Stroke-45" class="st1" d="M110.6 174.9c-.9-3.7-6.3-4.8-8.8-3.3-3.4 2.1-3.7 10.1 1.3 11.4 6.4 1.8 8.6-3.7 7.5-8.1z"/><path id="Stroke-47" class="st1" d="M173 170.6c-3-5.6-16.3-5.1-12.5 5.7 1.1 3 6.9 3.8 10 1.9 2.3-1.4 4.1-4.7 2.5-7.6z"/><path id="Stroke-49" class="st1" d="M177.9 216.6c-2.1-5.6-2.4-10.5-8.9-13.8-5.4-2.8-13.8-6.7-19.8-7.4-10.4-1.2-23.1-.3-32.9 2.4-4.1 1.1-10.1 3.6-12.9 6.8-3.3 3.8-1.8 14.8-8.2 11.9-8.9-4.1-11.4-16.7-13.8-24.7-3.2-10.8-8.3-18.7-7.8-30.1.5-10.7 12.7-18.4 18.9-20 8.9-2.3 13.5 3.3 22.1 4.1 19.5 1.9 40.5-8.7 54.8-21.4 7.5-6.7 13.5-15.8 16.1-24.9-2.9 8.7-1.3 23.8-.4 32.7.6 6 2.3 11 5.4 16.3 2.4 4.2 6.9 6.6 9.2 10.9 6.2 11.6-2.1 28.3-8 38.7-3.6 6.5-13.8 18.5-13.8 18.5z"/><path id="Stroke-51" class="st1" d="M91.1 171.1c5.8.8 8-6 14.4-5.6 4.3.3 10.9 5.7 12.9-.6 2.8-8.9-14-12.3-22.6-7-6.3 3.9-10 12.4-4.7 13.2z"/><path id="Stroke-53" class="st1" d="M156.6 166.6c-4.3-.2-4.8-5.4-2.5-8.3 2.2-2.9 6.9-3.9 10.3-4.5 5.8-1 20.5 3.4 18 9.5-1.6 3.8-10.2-.5-14.4-.7-5.2-.2-6.8 4.3-11.4 4z"/><path id="Stroke-55" class="st1" d="M129.2 183.4c0 7.1 18.5 8.4 19-.4"/><path id="Stroke-57" class="st1" d="M95.1 198.5c9.4-2.2 16.5-5.5 22.1-13.7"/><path id="Stroke-59" class="st1" d="M154.9 183.9c5.4 7.3 14.4 12 23 13.3"/><path id="Stroke-61" class="st1" d="M110.6 209.1c0 7.9.8 15.2 7.7 19.9 6.8 4.7 19 5 26.8 2.6 7.4-2.3 9.8-8 12.4-15.3 1.6-4.3 2.3-7-.6-8.1-4.1-1.5-11.6-2-16.2-2.3-10.9-.4-20.4.2-30.1 3.2z"/><path id="Stroke-63" class="st1" d="M76.6 280.5c.5 9.2-3.7 18.8-5.3 27.6"/><path id="Stroke-65" class="st1" d="M217.2 277.9c.1 8.5 7.2 15.6 8.9 23.8"/><path id="Stroke-67" class="st1" d="M110.8 213.4c7.2.5 19.2 1.1 26.4 1.1 7.4-.1 13.8-.7 21.4-1.3"/><path id="Stroke-69" class="st1" d="M92.8 313.3c3.4-4.7 1-17.8 4.7-20.1 6.8-4.1 6.4 13.6 3.7 18.4"/><path id="Stroke-71" class="st1" d="M208.7 314.5c-4.7.3-7.8-1.4-11.3-4.5-4-3.7-4.3-3.9-9.9-2.6-3.5.8-20.2 1.7-13.8 10.2"/><path id="Stroke-73" class="st1" d="M207.6 335.3c-7.6-.4-14.5 2.3-22.1 2.2-2.5 0-7.7-.1-8.6-3.1-.9-2.7 3-3.8 5.8-5"/><path id="Stroke-75" class="st1" d="M181.4 316.2c-3-.3-8.9.2-9.3 4-.5 4.6 5.6 3.5 8.9 3.6"/><path id="Stroke-77" class="st1" d="M86.5 317.6c1.1-6 1.3-11.2 1.6-16.2.2-4.6-.9-10.1.8-14.3 3.2-8.2 15.3-14.2 23.4-16.4 4.7-1.3 11.8-1.7 17-1.8"/><path id="Stroke-79" class="st1" d="M147.2 267.2c13.1-.7 27.5 2.4 38.7 8.9 9.4 5.5 13.1 11.9 14.6 22 .7 4.4 1.4 9.3.9 14.2"/><path id="Stroke-81" class="st1" d="M192.1 306.6c-2.6-6.2 1.7-17.9-4.3-15-5.3 2.5-2.9 12.1-2.5 16.1"/><path id="Stroke-83" class="st1" d="M81.5 339.3c3.4-1.4 6.3-.5 9.7 0 3.9.6 6.7 0 10.4-.4 2.4-.3 8.4 1.3 9.9-1 2.9-4.4-3.6-5.3-6.1-5.2 2.8.1 9.3 1.2 11.2-1.7 2.7-4.2-5-5.6-8-5.9 2.4.5 7.3 1.5 9-.9 1.5-2.1-4.2-5-10-6.2 2.5.5 9.6 2 8.1-2.8-.9-2.8-7.8-3.1-10.3-3.3-4.8-.5-9.6-.8-13.4 2-3.9 2.9-5.2 4.1-10.1 5"/><path id="Stroke-85" class="st1" d="M181 323.8c-3.2.1-9.3 0-7.4 4.3 1.2 2.7 7 1.8 9 1.3"/><path id="Stroke-87" class="st1" d="M164 46c-.3-3 .4-7.9 1-10.7.6-2.3-4 2.3-5.7 3.8-1.4.9-1.5-6.2-1-9.2.1-1.8-3.2 2-4.3 1.7-.7-.2-4-8.4-4.5-8.4-.3 0-.7 5.7-2.2 6.2-1.5.5-5.8-2.8-7.6-4-2.9-1.9-9-2.6-8.1-1.3 2.4 1.8 8.7 7.1 7.3 7.5-3.3.2-11.1-1-10.1.2 1.6 1 4.5 4.3 3.4 4.3-.8 0-3.5-.1-2.9.5 2.9 1.7 3.6 5.3 2.5 7.1"/></g></g></g></g></svg>