<svg id="Layer_1" xmlns="http://www.w3.org/2000/svg" viewBox="0 0 260 344"><style>.st0{fill:#231f20;fill-opacity:0}.st1{fill:none;stroke:#231f20;stroke-width:2;stroke-miterlimit:10}</style><path class="st0" d="M0 0h260v344H0z" id="Layer_1_1_"/><g id="Layer_2"><path class="st1" d="M105.4 137.6c-1.2-1.3-4.8-4.2-6.2-5.1-4.1-2.9-7.3-5.2-12.6-4.7-5.2.6-9 3.5-13.4 5.9 7.7 10 22.9 9.2 32.2 3.9zm60.7-7.1c-1.2-.6-2.5-1.5-4-2.1-2.4-1-4.4-1.8-7.1-1.8-7.8-.1-13.6 3.9-19.1 9.1 5 4.1 12.9 4.6 19 3.9 5.1-.7 8.9-2.6 11.3-6.2m-94.8-4.3c9.6-10.6 25.7-10.5 34 .9"/><path class="st1" d="M133.5 130.7c1.2-.9 2.1-2.5 3.4-3.6 1.5-1.2 3.1-2.4 4.8-3.2 2.9-1.4 6.1-2 9.3-2 3.4 0 11.2.9 14.4 3.4m-59.5 34.8c-3.7 2.6-7.7 14.7 1 16 1.2.2 3 .4 4.1 0"/><path class="st1" d="M112.9 173.9c-2-.7-5.7-3.7-2.5-5.6 2.4-1.4 5.8-.6 7.6 2.9.4.8.6 2.2 1.3 2.9 1 .8 2.8.3 3.6-.4 2.5-1.9 3.2-5.1 6.8-5.1 1.7 0 2.9.8 2.9 2.5 0 2.2-1.5 2.5-3.4 2.5"/><path class="st1" d="M131.1 176.2c1 .7 3.9 0 4.6-.4 2.1-1.3 3.7-4 4.3-6.4.9-4.5-2.1-8.5-4-10.6m-22-6.2c1-1.7 1.1-4.8 1.4-6.8.4-2.1.8-4.1.7-6.2-.2-3.9-.9-7.8-1.7-11.6-2.6-12.7-18.1-16.3-29.2-17.3-4.2-.4-10-1.3-13.7 1.3-2.5 1.9-4.6 4.3-6.9 6.4-2.9 2.5-6.1 5-8.6 7.8 1.8.1 3.1-1.2 4.4-2.1 1.8-1.1 3.7-1.8 5.5-2.9 3.3-1.9 6.7-3 10.2-4.2 7.9-2.5 15.8-.8 23.7.1 1.5.2 7.3.2 8.2.8m55.9-5.3c-5.7-1.5-13.8-1.2-17.8-.6-4 .7-7.7 2.1-10.5 4.8-.6.6-.4 1.4.3 1.8 1 .4 2 .1 3.3-.2 3.6-.8 7.3-1.4 10.9-2.1 5.5-1 10.5.7 14.7 2.3M95 198.5c2.5.8 6.9-1.9 9-3.4 2.1-1.5 4.1-3.3 6.3-4.7 1.3-.8 2.6-1.3 4.1-1.5 1.8-.2 3 .8 4.6 1.3 1.9.7 3.4.8 5.4.1 1.4-.6 2.4-1.5 4.1-1.8 3.5-.4 6.8 1.8 9.6 3.7 3.5 2.5 6.3 5.2 10.6 6.5"/><path class="st1" d="M96 198.9c1 .1 2.3.1 3.3.2 1.9.1 3.7.1 5.5 0 4.5-.4 9.1-2.3 13.8-2 2.2.2 4.3.6 6.5.2 2.2-.3 4.2-1.1 6.4-1 3.3 0 6.4 1.7 9.6 2.2 2.2.3 5.4.9 7.7.3"/><path class="st1" d="M95.5 198.9c.9.3 2 1.7 3 2.1 1.7.9 3.2 1.7 4.8 2.5 4.2 2 9 2.5 13.6 2.8 9 .4 17.2-1.5 25.8-4.4 1.9-.7 4.5-2.4 5.9-2.8m-34.7 19.7c4.1-1.7 10.4-1.3 13.9-.9m32.8-18c.2.9 1 .2.8-.1-.3-.4-.7-.2-.8.2m-77.4-71.4c-2.2 1.3-2.6 5.6-2 7.4.9 2.3 4 3 6.2 2.8 3.2-.3 5.3-2.3 5.5-5.4.1-1.3-.3-4.7-3.4-5.4m57.5.2c-1.5 1.4-2.1 4-1.2 5.9 1.1 2.5 4.1 2.9 6.6 2.8 5.2-.3 7.7-7.2 3.4-10.4"/><path class="st1" d="M51 172.7c2.1 7.3 3.4 14.5 4.4 21.9.9 6.7.8 14.5 4.1 20.7 13.8 24.8 47.2 38.1 74.2 30.2 8.6-2.5 15.8-5.9 23.7-10 4.6-2.4 11.1-8 14.7-12.1"/><path class="st1" d="M118.4 50.3c9.1 0 17.5-.2 26 3.7 13.9 6.5 15.1 26.8 17.1 40 2.2 14.8 3.7 29.7 5.4 44.6 2.1 19.3 5.6 38.2 6.4 57.7.4 11.8-.6 23.1-2.2 34.7-3.2 21-1.7 52.7-3.9 62.7-1.3 5.9-3.2 12-6.7 17.1-2.4 3.5-6.7 8.6-12.2 12.1M113 50.7c-5.4-3.2-14.4-1.4-19.7 1.2-7.4 3.7-15.2 8.7-21.8 13.8-8.7 6.6-13.9 13.6-18.7 23.1-3.4 6.7-8.4 27.2-7.7 33.9"/><path class="st1" d="M113.8 43.2c-3-12.7-17.5-16.5-28.2-11.7C72 37.6 60 51.7 53.5 64.3c-9.4 18.3-10.2 36.8-8.6 56.9 1 12.1 1.3 24.1 3.4 36.1 2 11.5 4.5 22.8 5.7 34.5 1.1 10.7 1.1 21.9 4.1 32.3 5.1 17.5 10.8 49.7 8.6 63.4-2.2 14-5.7 27.4-13.9 39.1M34 308c-4.5 7.4-25.5 12.2-32.9 15.1m233.5-38.4c3.5 2.4 18.1 7.7 21.8 9.2m-51.3 11.7c4.2 14.7 4.8 22.4 8.7 37M38.7 322.3c3 3.5 25 17.4 28.5 20.4M11.3 320c6.4 9.8 17.1 16.4 23.9 22.7M241 287.9c4.6 8.9 11.9 24.5 15.4 33.7"/><path class="st1" d="M65.7 293.1c2.1 5.9 8.3 13 11.7 18.5 1.5 2.4 5.3 9.7 7.9 13.1"/><path class="st1" d="M93.6 323.8c-9.3-5.9-16.5 9-6.4 12.9 4.2 1.5 9.8-1.5 9.5-6.3-.2-3.3-1.5-5.1-3.1-6.6zm13.2 19.3c-.4-1.2-1.2-2.4-2.3-3.5-4.8-4.5-11.1-.9-12.7 3.9m99.8.1c.7-2.8-.4-6.2-3.2-7.8-7.5-4.2-12.4 2.3-11 7.3m8-25.3c-11-.4-10.1 13.9-.4 13 7.8-.7 6.7-12.8.4-13zM68.6 227.1c.4 8 1.2 17.3 1.2 25.5 0 5.2-2.4 22.9-2.6 28M117 44.1c35.9-10.4 50.9 36.7 56.2 62.7 6.1 30.1 3.6 60.8 7.6 91 1.9 14.1 3.9 27.9 1.9 42.1-1.7 12.6-3.2 25.5-5.6 37.9-2.1 10.7-3.2 21.8-7.6 31.8-3.9 8.8-8.4 17-15.5 22"/><path class="st1" d="M115.8 35.8c15-2.6 27.8 2.1 38.6 12.7 14.7 14.3 26.9 36.9 29.5 57.2 4 29.1 1.8 58.4 4.7 87.5 2.3 23.1 7.1 47.6 3.1 70.5-3 17.7-5.5 34.8-13 49.6"/><path class="st1" d="M101.2 24.5c9-11.9 32.5-6.3 43.6-1.7 22.8 9.4 43 26.6 50 50.9 7.7 26.8 17.2 62.9 24.2 89.9 8.9 34 31 88 32.8 104 .8 6.7.4 15.4-4.1 23.1"/><path class="st1" d="M107.4 28.8c14.4-6.5 36 1.1 44.3 6.3 19.2 12 31.7 35.8 38.9 56.6 8.4 24.4 12 49.1 18.2 74 5.9 24.1 14 47.6 20.6 71.4 3 10.5 6.7 21.7 7.1 32.6.3 10.7-4.5 20.8-4.8 31.3"/><path class="st1" d="M109.6 30.8c-3.1-5.7-13.4-9.4-17.6-9.6-7.1-.6-15.5.1-22.1 2.4-19.9 7.2-32.1 24-38.6 43.6-19.4 58.2-10.7 122.7-10.8 182.9 0 14.3 1.7 49.5.8 66.1"/><path class="st1" d="M113 44.7c-6.6-4-14.7-4.1-21.6-2.2-9.6 2.8-15.6 5.8-23.7 11.5-4.3 3-17.6 16.7-20.3 25.9"/><path class="st1" d="M109.6 30.8c-11.2-12.6-34.8-2.1-46.9 9.7C46.3 56.6 39 79 35.9 101.3c-3.7 27 3.1 52.2 4.8 78.9 1.7 26.3 3.9 52.3 6.5 78.7 2.6 26.4-.6 50.9-13.8 74.2.3-.4.6-.9.8-1.3M167.9 65.1c23.9 24.2 25.6 67.4 26.2 73.7.9 8.6 2 17.6 4 26 4.1 17.4 9 34.6 12.8 52.1 4 18.1 5 36.4 5 54.9 0 8.7.1 28-7.1 37.2"/><path class="st1" d="M185.9 127.8c2.6 14.1 16.7 96.2 17.5 106.8.9 12.5 1.4 25.3.1 37.7-.9 8.2-2.5 16.3-4.2 24.4-1.2 5.7-3.5 13.8-6.5 19m-164.3-187c-1.5 38.8 8.6 76.6 9.9 115 .6 17.6.6 36.3-2.2 53.7-1.3 8-3.3 16.1-5.8 23.9-1.3 4.1-3.5 13.6-6.9 18.3M20 125.1c-1.3 16.4-3.3 20.4-5.6 36.9-3 21.6-3.7 43.6-3.7 65.3 0 30.2 5.2 60.7 5.6 90.6M93 336.6c.2.8.8 1.7 1.3 2.1m89.6-7.4v2.6"/></g></svg>