<svg xmlns="http://www.w3.org/2000/svg" viewBox="0 0 260 344"><style>.st0{opacity:0}.st1{fill:none;stroke:#000;stroke-width:2;stroke-miterlimit:10}</style><path class="st0" d="M0 0h260v344H0z" id="Layer_3"/><g id="Layer_2"><path class="st1" d="M69.4 70c-.9 2.2-3.8 4.4-5.3 6.7-1.4 2.2-2.6 4.3-3.7 6.7-2 4.4-3.7 9.1-5 13.7-1.3 4.5-2.2 9-2.2 13.7 0 5.6-1.6 9.1-3.9 14.1-1.5 3.3 1.8 6.4 3.2 9.5 1.3 3 2 5.8 2.1 9.2.2 6.2-1.8 12.3-2.9 18.3-1.2 6.2-1.4 12.3-1.3 18.7.1 5.6 2.2 12.9.4 18.3-2.4 7.1.9 15 3 22.2 2.3 7.8 6.2 14.8 7.5 22.9 1 6.2 4.3 9 10.2 12 4.3 2.1 9.1 2.7 13.7 3.2s9.2-.6 13.7-1.2c5-.7 9.4-2.9 14.1-3.8"/><path class="st1" d="M79.2 134.7c3.7 3.9-.9 13.7-2.9 17.7-3.1 6-10.9 10.8-11.4 17.8-.7 9.4 8.8 10.7 13.1 12.8m-1.3-3.5c3.9-1.6 10.6-2.8 12.9 1.7m-1 2.9c3.9 2 8.1 2.5 10.5-2.3.9-1.7 1-3.4.5-5.2-.3-1.1-2.1-4.8-2.1-4.8m-29.7 11c-3.4-.1-3.1-5-2.1-7.1m47.1 18.3c.3.2.6.4.8.6m-40.4-7.2c.4 2-.8 5.4-1.7 7.1m-7 15.8c.6 2.5 7 3.3 9.2 3.5 3.3.4 6.7.1 10 .2 6.5.3 11.1-2.2 17.5-3.5-3.2.3-6.5-.8-9.6-1.7-3.2-.9-6-1.2-9.4-1.2-1.5 0-3.2.1-4.6-.4-1.7-.6-2.7-1.9-4.8-1.4-1.9.5-2.8 2.1-4.8 2.4-1.4.2-4.4-.4-4.8-2.1 1.9-3.4 4.7-10 9.6-7.4 2.5 1.3 2.6 3.3 5.7 1.6 2.2-1.2 3.4-2.6 6-1.3 4.2 2.1 7.3 6.8 11.4 9.2 1.8 1 3.8 1.6 5.8 1.9 1.2.2 5.4.5 5.6.4m-36.4 18.1c4.1.5 8.2-2.1 12.3.2m-32.5-98.7c3.7-1.1 8.6-2.1 12.5-1.4 2.3.4 11 3.4 12.5 1.6-1.6-2.1-3.7-4.5-6-5.8-1.9-1.1-4.4-1-6.5-1.5-2.1-.6-4.2-1.8-6.5-2.1-2-.3-4.6.7-6.4 1.5m99.9 16.9c-.4-1.1-5.4-3.7-7.2-5.4-2.3-2.1-4.3-3.7-7.2-5-3.9-1.8-8.1-4.6-12.5-5-4.2-.4-9 1.3-13.2 1.7-4.5.5-8.6-1.4-13-1.2-1.8.1-5.3 1.2-5.4 3.1-.1 1.6-1.1 6.5 14.9 4.6 3.7-.4 7.3-.5 10.9-.8 7.7-.7 15.1 2.1 21.9 5.6 1.4.6 12.7 7 10.8 2.4zm-41.4 6.5c3.8 4.3 7.7 6.1 13.5 5 2.3-.4 4.6-.7 6.9-1.2 1.5-.3 6.9-1.8 7.3-2.3-4.4-3.6-10.2-6-15.6-7.6-5.9-1.8-11.5.6-15.2 5.5"/><path class="st1" d="M59.7 135.9c-2 .8-3.4 7.4-.4 8.7 3.5 1.6 6.2 1.2 9.7.9 2.3-.2 8.4-2.2 9.4-3.3.3.1.5.1.7-.1-3.1-2.6-7.8-5.5-11.7-6.6-4.8-1.4-8 .1-11.9 2.9"/><path class="st1" d="M65.1 135.1c-6.4 1-3.6 10.5.2 10.6 2.2.1 4.4-1.2 5.3-3.1.5-.9 1.8-5.2-.6-6.2m46.1 2.6c-4.4 1.8-3.5 8.6.8 9.2 4 .6 8.8-2.4 6.6-7.8m-17.4-4.8c3.6-1.2 9.8-.4 13.5.2 4.6.8 10 2.7 13.5 5.8m-77.6-8.3c6.4-3.5 12.8-2.2 19.2.6m25.2 127.7c16.6-2.4 26.2-5.5 39.3-11.2 6.9-3 12-4.6 18-9.1 3-2.2 5.6-4.6 8.4-7 2.1-1.8 4.2-3.2 6.1-5.2 1.7-1.7 5-3.6 5.3-6.2m20.5-70.1c2.7-1.3 4.5-3.9 7.7-4.4 2.2-.3 5.1 0 7.1.9 5.3 2.3 7.5 8.8 7.5 14.1 0 5.9-2 11.2-4.5 16.4-1.5 3.3-2.8 6.2-5.3 8.9-2.3 2.4-4.8 4.7-7.3 6.9-4 3.7-13.5 10.9-18.7 5"/><path class="st1" d="M186.2 187.4c1.3-2.9 4.9-3.7 6.2-6.5 1.1-2.2.1-4.2-.4-6.4-.7-2.8.7-3.8 1.7-6.3 1.1-2.5 1.3-4.5 3.5-6.5 2.9-2.6 9.1-10 13.5-8.1 5.7 2.3 1.8 12.3.8 15.8m-13.6-1.4c4.6-.6 5.7 7.7 5.2 10.6M195 202c.6 1.4-.5 3.3-.8 4.7-.7 2.8-1.1 5.7-1.5 8.5-.6 4.9-1 9.9-1 14.9 0 5.5-.1 10.9.2 16.3.2 2.7-.1 6.9 1.2 9.3M176.5 163c-.1 2.4-1.7 4.7-1.7 7.1m3.9 3.3c.4-2.5 1.1-5 1-7.5-.1-2.8 1.7-3.3 3.6-5.4 1.9-2.1 3.7-3.7 6-5.2m-3.9-32.7c2 3.3.9 7.3 2.3 10.6m13.5-25.1c1.4 4 0 8.2.2 12.3m-5.8-15.9c.2 1.4.4 2.8.5 4.2.1 2.4-.7 5.1-.3 7.5m-7.3-16.5c1.5 3 .9 8.2.8 11.4m29.6-2.4c1.1 2.3 1.1 4.9 1.6 7.3.3 1.7 1.7 4.3 1.4 5.8m-8.8-9.8c-1 4.2-.6 8.3-.6 12.5m-4.4-8.1c.8 2.1-2.2 7.9-.2 9.2m12.3 10c.4 3.7.9 7.5 1.2 11.2m1.3 2.3c1.7 2.9.4 8.4.2 11.7m-151-87.5c-.3-5.3 5.2-11.9 8.7-15.4M69 67.3c1.3-2.8 5.4-10.6 7.5-11m-8.3 1.8c.8-2.5 5.3-6.3 7.7-6.9m2.7 21.1c-.5-2.4 6-11.8 6.9-11.4m-2.5 12c2.5-4.5 6.5-10 10.8-12.9m-1 8.3c.8-1.8 3.2-3.3 4.5-4.6 2.1-2 5.1-5 8-5.8m-.5 7.1c3.6-1.9 6-6 9.4-8.3m.4 7.2c6.5.6 12.2-4.1 17.7-6.7m-2.5 7.2c2.3-.8 4.5-1.9 6.7-3.1 3.5-1.8 7.4-2.7 10.8-4.4m-4.4 7.7c6.6-1.3 12.6-4.8 19.6-2.1m-6.7 4.8c2.9.2 5.9-.6 8.8-1.1 3-.5 9-2.7 11.8-.4m-11.2 7.7c4.4 0 8 .3 12.3 1.7m-10.4 5.2c2.8 1.4 7.6 2.1 9.2 5m-6.1-.6c2.4 6.7-5 30.1-5 37.1 16.3 12.5 8.3 31.1 6.7 43.9M72.8 46.9c-.1-.5 6.5-3.7 7.7-4.7 4.6-3.7 10.2-6.7 16.2-7.1 3.7-3.7 5.3-7.9 10.6-8.1 2.3-.1 4 0 6-1.2 1.6-1 3.3-2.4 5.1-3 2-.7 3-.1 4.9.5 2.8 1 5.6.4 8.6.6 4.1.2 6.6 2.5 10.3 3.7 3.8 1.3 8 2 12 2.5m-1.1-3.2c1.9 1.6 4 3.1 6.4 3.8 3.2.9 6.6.2 9.7 1.6 2.5 1.1 5.2 1.8 7.7 2.9 3.8 1.7 6.4 6.1 9.6 8.7m18.2 16c1.8-3.9 5.7-6 9.8-7.3"/><path class="st1" d="M192.1 45.6c.9 1.6 2.8 2 4.3 2.9 1.7 1.1 3 2.2 4.2 3.9 1.3 1.9 2 4.7 3.5 6.3 2.1 2.3 5.1 2.1 6.7 5.1 1 1.8 1.2 3.8 2.4 5.6 1.1 1.7 5.2 4.2 5.2 5.7m3.9 1.5c3.4 4.2 6 7.2 7.3 12.7 1.1 4.6 2 9.2 2.6 13.9 1.3 9.7 2.4 19.4.2 29-.9 3.9-1.8 9.5-2.7 13.5-1.1 4.7-2.5 9.4-3.6 14-.8 3.1-1.3 6.5-3.4 9-2 2.5-5.1 5.4-6.6 9.3M200 198c-.1 2.5-2.2 6.1-2.1 8.8.2 5.7-4 13-6.1 18.4M80 258.5c.3 2.4.4 5.4.6 7.4.3 2.8.8 5.4.6 8.3-.2 3.6-.3 7.4-.6 11m51.9 44c5-3.4 9.3-8.4 14.1-12.3 2.8-2.2 6.2-4.2 8.4-7.1 2.5-3.3 4.5-7.1 7-10.4 3.9-5.2 8.5-9.6 12.3-14.8 1.2-1.7 2.1-3.6 3-5.5 1.1-2.5 2.4-5 3.8-7.3 6-9.6 17.6-18.5 31.2-18.7 2.9-.1 5.9 1.5 8.5 2.5 4.5 1.8 9.4 2.4 13.9 4.5 4.5 2.2 7.5 7 11.1 10.4M71.5 256c-2.3.7-5.5 1-7.9 1.8-3.8 1.2-7.2 2.7-10.7 4.7-3.4 2-6.8 3.8-10.2 5.8-3.9 2.2-7.7 5.8-11.9 7.4"/><path class="st1" d="M80 258.5c-3 1.4-7 7.1-8.4 9.9-1.5 2.9-1.9 6-3.2 9.1-3.6 8.9 10.1 8.7 15.7 8.4 5.9-.3 12.1-.1 18 .4 5.8.4 11.6.2 17.4 1.1 6.3.9 11.8-1.3 17.6-3.4 6.5-2.3 13.6-2.5 20.1-5 6.3-2.4 10.5-7.8 16.6-10.4 4-1.7 8-3.5 11.2-6.6 2.7-2.6 4.6-4.2 7.7-6.4 2.1-1.5 6-6.6 6 .1M50.2 264c-1.8-1.8-6.8-2.8-9.2-2.2-4.2 1.1-8 3.5-12.2 4.8-4.2 1.3-8.8 2.3-13.1 3.1-2 .3-2.8.8-4.8 1.1"/><path class="st1" d="M9.3 288c5.2-.8 6.9-4.4 12-6.2 3.8-1.3 7.8-2.2 11.6-3.7 4.1-1.5 7.9-3.5 12.1-4.5 5.9-1.4 11.3-2.2 17-4.3 3.7-1.4 8-1.6 11.8-4.4m-5.9 15.2c0 6.6-1.2 14.2 2.2 20 1.4 2.4 3.1 5.2 5.6 6.3 4.8 2.2 10.8.7 15.8.5 11.8-.6 23.9 1.5 35.6-.3 8.1-1.3 16.3-3.5 23.8-6.9 4.4-2 9.6-3.5 14.4-4.5m-95.6-21.6c-2.1.9-3.5 2.7-5 4.3-4 4.1-8.3 7.8-12.4 11.9-3.4 3.3-5.8 7.4-8.9 10.8-3.1 3.4-6.5 6.6-9.8 9.9-5.3 5.5-10.3 10.1-16.6 14.4-4.6 3.1-3.3 2.2-7.6 5.8m28.4-49.2c-1.5 2.1-2.2 4.8-3.4 7.1-2 3.8-4.8 8-7.6 11.3-3.7 4.3-8 8.2-11.9 12.4-2.1 2.3-3.5 4.4-5.8 6.6m100.1 22.7c4.6-2.3 17.2-7.2 22-9 5.1-2 9.8-5 14.9-7.2 5-2.2 9.9-2.7 15.2-2.7 5.1 0 10.6-1.1 15.5-2.5 4-1.2 8.3-1.7 12.5-2 3.2-.3 6.4-1.2 9.6-1.3 3.2-.1 12.2 1.2 15.3 1.6m-37.5-38.4c.9-3 5.4-4.5 8.2-5.3 3.8-1 6.4.2 10.2.8 7.7 1.4 17.7-2.2 23.4 4.9 3.4 4.2 6.6 6.7 11.6 9 4.2 2 7.8 5 12.3 6.6"/><path class="st1" d="M18 341.7c.8-4.9 2.4-6.5 4.4-10.6 2.6-5.3 5.9-11.2 9.2-16.1 1.9-2.8 3.5-5.7 5.7-8.3 1.7-2 5.2-4.9 6.7-7m70 14.9c-3.2 3.6-5.2 9.3-7.5 13.6-3.9 7.1-3.6 7-8.5 13.4m154.4-36c-2.8.3-5.5.7-8.3.8-3 0-5.6 1.2-8.5 1.8-7.3 1.4-14.4 2.4-19.5 8.3-1.5 1.8-3.2 3.2-4.1 5.3-1.1 2.4-3 6.5-2.3 9 .6 2.3.6 5.7 1 8.1m-17.2-6.7c-2.8 2.7-2 4.8 1.9 4.4 2.4-.2 5.8-1 7.1-3.3 1.7-3-7.3-2.7-9-1.1z"/><path class="st1" d="M139.7 323.1c2.9-2.8 7.9-3.8 10.1-4.4 3.3-.9 6.4-1.6 9.8-1.9 7.4-.7 14.9-1.8 22.3-3.1 9-1.5 18.5-3.5 27.6-4 2.7-.1 5.3-.1 7.9 0 1.3.1 5.6.3 7.5.9m-49.3-102.8c.2.5.3 1.1.2 1.7M154 226.9c.2.5.3 1.1.2 1.7"/></g></svg>