<svg id="Layer_1" xmlns="http://www.w3.org/2000/svg" viewBox="0 0 260 344" enable-background="new 0 0 260 344"><style>.st0{fill:#fff;fill-opacity:0}.st1{filter:url(#Adobe_OpacityMaskFilter)}.st2{fill:#fff}.st4{fill:none;stroke:#000;stroke-width:2}</style><title>2</title><g id="Page-2.4-_x28_venue_x2B_photos_x29_"><g id="home" transform="translate(-424 -1507)"><g id="speakers" transform="translate(133 1394)"><g id="_x32_" transform="translate(291 90)"><g id="Mask"><path id="path-1_1_" class="st0" d="M0 23h260v344H0z"/></g><defs><filter id="Adobe_OpacityMaskFilter" filterUnits="userSpaceOnUse" x=".3" y="47" width="260" height="320"><feColorMatrix values="1 0 0 0 0 0 1 0 0 0 0 0 1 0 0 0 0 0 1 0"/></filter></defs><mask maskUnits="userSpaceOnUse" x=".3" y="47" width="260" height="320" id="mask-2_1_"><g class="st1"><path id="path-1_2_" class="st2" d="M0 23h260v344H0z"/></g></mask><g transform="translate(-50 25)" id="Page-1" class="st3"><path id="Stroke-1" class="st4" d="M119.3 141.9c-.6-3.7-4.7-8.8-8.9-7.7-7.5 12-5.8 29 .3 41.3 2 3.9 4.5 6.3 9.1 6.4 0 8.8 1.9 16.2 4.7 24.5 3 8.7 4.5 16.2 12 21.9 8.5 6.4 16.6 11.6 25.9 17 6.7 3.9 14.6 8.4 22.7 9.4 13.1 1.5 21.9-2.4 32.3-9.9 8.7-6.3 16.7-14.6 22.2-23.7 5-8.3 5.5-18.7 6.8-28 1.6-11.8 2.5-23.6 4.7-35.3 2.2-11.8 1.1-24.3 2.3-36.2.5-5 1.1-10.9.4-16-.5-3.3-2.5-4.2-2.5-7.6"/><path id="Stroke-3" class="st4" d="M133.2 225.8c0 8.8-1.3 21.4 3.2 28.9 5 8.3 13.4 16.2 21.2 22.1 4.5 3.4 9.2 6.4 13.5 9.7 4.3 3.3 9.8 4.5 14.8 3.1 10.9-3.1 22.1-10.7 29.1-19.8 3.4-4.5 6.3-11.2 8.7-16.3 2.2-4.6 2.5-9.2 2.5-14.7"/><path id="Stroke-5" class="st4" d="M252.3 139.7c2.3-.7 3.8-2.8 6.4-2.5 2.4 7.6-1.2 18-1.7 26-.4 7.6-3.4 14.8-9 19.6"/><path id="Stroke-7" class="st4" d="M109.5 156.9c0-3.4-.6-14.6 5.1-12.8.2 2.7 2.1 3.8 3.2 5.9 1.6 3.4 1.3 5.7-.1 9.3-1 2.5-2.6 4.2-1.7 6.9.7 2.2 3.1 3.4 3.9 5.8"/><path id="Stroke-9" class="st4" d="M256.4 138c0-9.3.5-17.8 1.7-26.8 1-7.3 2.3-14.4.1-21.8-1.9-6.5-2.1-13.5-5.5-19.2-3.1-5.3-7.2-6.6-12.5-8.2-4.8-1.4-8-2.5-12.7-3.6 5.9-2.4 6.9-6.2 7.4-9.7.9-6.1-2.8-12.3-7.7-15.7-9.3-6.5-29.8-8.3-36.1-9.1"/><path id="Stroke-11" class="st4" d="M217.6 57.5c5.2-2.2 8.5-7.8 7.8-13.5-1.1-7.9-7.4-11.2-14-14.1-10.4-4.6-18.2-6.3-29.6-6.8-6-.3-20.2.3-28.7 4.3"/><path id="Stroke-13" class="st4" d="M174 300.7c0 3.9-.1 7.8 0 11.7.1 3.6-.2 4.6 3 5.6 2.5.8 7.8 2.4 10.4 1.3 3.1-1.3 1.9-7.6 1.9-10.9 0-7.5-.9-8.4-8.3-8.4-2.1 0-5.5 1.1-7.3.6-1.9-.5-3.7-2.9-5.4-4-1.9-1.2-4.1-2.2-6.3-3-6.3-2.2-12.5-4.5-18.7-6.8-2.5-.9-5.5-3.4-8.3-2.9-.8 5.5-2.9 11.6-5.4 16.4-1.3 2.4-2.8 5.8-2.6 8.7 7.7.2 14.7 0 22.4 1.5 1.9.4 16.5.9 15.2 4.5-.8 2.2-14.6.1-16.9-.2-4.6-.6-9.6-.9-13.9-1.9-2.9-.7-4.9-2.4-6.8-4.7-.9 5.2 3.5 8.5 4.5 12.9.6 2.4.7 9.1 2.9 10.2 2.7 1.2 10.6-4.2 13.6-5 5.1-1.4 10.3-2.6 15.4-4.2 3.9-1.2 9.2-2.7 12.8-4.4"/><path id="Stroke-15" class="st4" d="M227.3 236.4c0 2.2-.5 4.9.1 7 .4 1.4 1.8 2.4 2.2 3.6.8 2.2.2 6 .4 8.3.1 3 .5 5.7.9 8.6.8 5.4 2.2 10.8 2.4 16.2.2 4.5-1.8 8.7-1.8 13.1"/><path id="Stroke-17" class="st4" d="M132.7 225.3c-1.3 4.1-4 8.8-5 12.7-1.5 5.7-3.1 11.8-4.2 17.6-2.3 11.5-2.3 24.1 1.2 35.1 1.2 3.9 2.1 8.4 3.7 11.9"/><path id="Stroke-19" class="st4" d="M188.2 301.7c5.9-.9 10.9-4.4 16-7 4.9-2.5 10-4.6 15.1-6.8 2.6-1.1 7-3.9 9.7-1.9 3.3 2.5 2.3 11 2.6 14.7.4 3.7.6 8 .4 11.7-12 .7-25.5-4.5-37.1-.9-1.2.4-4 1.1-4.7 2.3-1.8 3.1 2.8 2.1 4.9 2.1 7.8 0 15.4-1.8 23-3.7 4.2-1.1 9.7-4 13.9-3.8.4 4.2-.2 7.4-2.1 11.9-1.2 2.8-1.8 7.6-3.9 9.9-1.4 1.5-1.9 1.5-4.5 1.2-7.7-.8-14.4-3.8-20.9-7.6-3.6-2.1-8.4-3.2-11.7-5.3"/><path id="Stroke-21" class="st4" d="M211.3 56.3c4.8-2.5 6.6-9.4 5.3-14.3-1.1-4.1-3.9-7-7-9.5-4.5-3.7-9.5-5.5-14.8-7.1-2.5-.7-5.2-1.6-8.5-2"/><path id="Stroke-23" class="st4" d="M202.6 55.9c5.6-2.6 6.1-11.1 5.3-15.3-.8-4.5-4.4-7.7-7.5-10.8-5.3-5.2-13-5.8-20.1-6.5-3.8-.4-9.7-.1-14.3.6"/><path id="Stroke-25" class="st4" d="M193.3 55.3c6.2-2.5 5.7-12 3.2-15.9-3.8-5.9-7.8-10.1-14.4-11.9-10.5-2.8-24.8-3.9-34.1 2.5-4.2 2.9-10.6 7.9-13 12.3"/><path id="Stroke-27" class="st4" d="M188.6 52c4.4-11-7.6-21.1-17.9-22.2-11.9-1.4-22.5 2-31.8 8.8-2.9 2.1-6.3 6.1-7.4 9.6"/><path id="Stroke-29" class="st4" d="M180.6 51.6C181 37.6 164 31.5 152 34c-9.7 2-18.7 6.5-21.3 16.3-1.6 5.9-2.3 10.8-2.6 17.1"/><path id="Stroke-31" class="st4" d="M174.3 51c-5.6-11-22.1-14.4-32.5-9.2C135.4 45 130.3 53 128.6 60c-.8 3.2-.4 8.6-.4 11.9"/><path id="Stroke-33" class="st4" d="M165.7 53.3c-3-4.1-9.2-5.5-14-5.7-7.8-.2-11.5 3.4-16.4 8.9-5.1 5.7-7.3 11.8-7.3 19.8"/><path id="Stroke-35" class="st4" d="M130.3 52c-1.5 6.3-8.9 13.4-11.7 19.3-3.2 6.6-4.9 11-4.9 18.4 0 11.2-1.8 22.7-.7 33.9.4 4.1 2 7.4 2 11.7"/><path id="Stroke-37" class="st4" d="M158.7 55.3c-4.5.5-6.3-.9-10.9 1.1-3.9 1.6-6.9 3.1-9.9 5.7-4.3 3.6-7.7 9.4-9.8 14.2-2 4.8-6.5 8.4-7.4 13.7-1 5.4-.2 11.4-.4 16.9-.5 11.5-1.2 21.9-1.2 33.5"/><path id="Stroke-39" class="st4" d="M229.3 57.5c-2.3 1.2-4.9 2.2-8.1 3.3 4.6 5.3 8.9 9.2 13.9 13.3 3.5 2.9 5.9 6.7 9.5 9.5 4.7 3.6 6.6 9 6.6 14.4"/><path id="Stroke-41" class="st4" d="M162.7 322.5c0 6.4.3 12.8.6 19.1"/><path id="Stroke-43" class="st4" d="M189 318.6c-.2 7.3.6 15.1 1.3 22.9"/><path id="Stroke-45" class="st4" d="M124.8 247.2c-3.2-.4-6.7 3.6-9.5 5.1-4.3 2.2-8.9 1.4-13.8 1.4-7.2 0-15.9 0-22.7 2.4-9.7 3.4-18.7 9-28.2 12.2"/><path id="Stroke-47" class="st4" d="M230.8 252.2c3.4 1.3 6.7 4 10.3 5 5 1.4 10.2 2 15 3.8 6.1 2.4 9.5 8.9 15.6 11.1 8.9 3.2 20.3-1.5 29.6.4 3.3.7 6 2.4 8.3 4.6"/><path id="Stroke-51" class="st4" d="M269.4 282c0 17-.6 35.2-4.6 51.7-.6 2.6-1.3 5.2-1.9 7.6"/><path id="Stroke-53" class="st4" d="M77 280.9c-.3 8.4 3.7 16.9 6.2 24.9 3.2 10.5 8.1 20.1 12.7 30.1.9 2 1.9 3.8 3 5.7"/><path id="Stroke-55" class="st4" d="M107.2 340.5c-.1-6.2 2.4-11.5 4-17.4 2.2-7.9 2.9-15.4 2.9-23.5"/><path id="Stroke-65" class="st4" d="M153.8 199.2c5.8 0 11 .5 16.7-1.2 4.2-1.3 8.6-3.5 13.2-2.5 1.6.3 2.7 1.5 4.3 1.8 2 .3 3.5-.4 5.3-.7 3.5-.5 7 1.7 10.3 2.5 5.4 1.2 10.4.1 15.9.2"/><path id="Stroke-67" class="st4" d="M157.7 131.5c-6.9-.7-12 3-17.6 5.9 3.6 2.6 9.1 5.1 15.3 5.5 5.3.3 12.4-2.4 15.7-3-2.9-4.2-8.1-7.8-13.4-8.4z"/><path id="Stroke-69" class="st4" d="M224.7 133.4c-3.1-.6-6.2-.7-9.2-.1-4.1.8-6.7 3.1-9.9 5.3 2.9 3.1 9.4 4.9 13.7 5.1 3.2.2 6.4 0 9.9-.5 2.7-.4 5.1-1.1 8.1-2-3.8-2.9-7.7-6.9-12.6-7.8z"/><path id="Stroke-71" class="st4" d="M155.5 199.4c2.5-.1 5.8 1.3 8.4 1.8 2.2.4 4.3.4 6.5.4 4.8 0 9.5.6 14.4.7 4.7 0 9.4-.2 14.2-.2 3.7 0 6.4-.9 9.8-2 2.6-.8 5.7-.4 8.5-.4"/><path id="Stroke-73" class="st4" d="M151.3 132.1c-1.6.5-2.1 4-1.8 5.4.5 2.6 3.5 3.9 6.1 4.1 3.2.2 7.3-2.3 5.8-6.7-.5-1.5-2.2-3.4-4.8-3.4"/><path id="Stroke-75" class="st4" d="M216.6 133.1c-1.9 1-2.3 5.2-.7 6.9 1.1 1.2 4.6 1.7 6.2 1.7 4.8 0 5.8-6.9 1.8-8.4"/><path id="Stroke-77" class="st4" d="M154.4 199.2c2.2.1 5.4 2.7 7.5 3.5 2 .8 4 1.7 6 2.4 6.1 2.2 11.2 4.1 17.6 4.4 5.6.3 10.1 1.5 15.5-.4 3.7-1.2 6.9-4 10.3-5.8 2.5-1.3 5-3 7.5-3.9"/><path id="Stroke-79" class="st4" d="M224.1 190c2.1 1.8 3.8 4.5 4 7.3.4 6-1.5 9.4-4.4 14.3"/><path id="Stroke-81" class="st4" d="M152.7 195.7c-2.9 1.9-3.2 9.5-1.1 12.1"/><path id="Stroke-83" class="st4" d="M194.2 129.1c0 8.2.2 16.4.2 24.6 0 5.4.9 10.7.9 16"/><path id="Stroke-85" class="st4" d="M172.4 170.2c-2.3.9-2.8 3.4-2.9 5.6-.1 3.5 1.7 4.7 4.2 6.7"/><path id="Stroke-87" class="st4" d="M199.9 182c4 .2 7.3-1.6 7.3-5.9 0-3.4-4.4-4.4-4.4-7.5"/><path id="Stroke-89" class="st4" d="M174.9 180.3c-.9-3.6 5.6-2.4 7-1.1"/><path id="Stroke-91" class="st4" d="M188.9 183.4c4.6.3 3.8-2.7 6.4-5.1 1.6-1.5 7.8-1.7 5.3 1.5"/><path id="Stroke-93" class="st4" d="M168.8 114.2c-2.7-1.3-7.3-.6-10.2-.9-7.4-.7-16.6-4.3-22.7 1.3-2.5 2.3-7.2 7.2-7.8 10.7 1.8.3 3.4-.8 5.2-1.2 1.9-.4 3.9-.6 5.8-.9 5.6-.8 10.9-2 16.6-2 6.2 0 13.1-.3 19 1.1-.8-2.1-3.8-7.1-5.9-8.1z"/><path id="Stroke-95" class="st4" d="M246.4 122.1c-3-7.3-11.3-8.6-18.4-8.6-2.4 0-4.7.2-7.1.5-2.5.2-5.1-.1-7.3 1.2-1.9 1.1-6.7 4-7.6 5.8 0 3 .4 3.2 3.6 3.3 3.1.1 6.3-.8 9.4-1.1 4.3-.4 8.4-1.3 12.8-1.1 4 .2 6.8 2.7 10 4.9 2.3 1.7 5.7 3.9 6.5 6.8-.8-3.7-.4-8-1.9-11.7z"/><path id="Stroke-97" class="st4" d="M181.7 219.6c5 .2 10.1-1.7 15.2-1.7"/></g></g></g></g></g></svg>