<svg id="Layer_1" xmlns="http://www.w3.org/2000/svg" viewBox="0 0 260 344"><style>.st0{opacity:0}.st1{fill:#fff}.st2{fill:none;stroke:#000;stroke-width:2}</style><title>lavrenyuk</title><g id="speakers" transform="translate(-717 -1840)"><g transform="translate(718 1816)" id="lavrenyuk"><g id="bg" class="st0"><path id="Rectangle-path" class="st1" d="M-1 24h260v344H-1z"/></g><g id="Layer_11" transform="translate(0 25)"><path id="Shape" class="st2" d="M178 51.7c1.8 23.7-25.2 36.2-44.3 40.7"/><path id="Shape_1_" class="st2" d="M170.8 59.4c-2 .9-3.4 3.8-4.9 5.6-2.8 3.4-6.4 6-10.4 8-5 2.5-10.4 4.4-15.3 7.2-6.7 3.9-12.3 10-17.8 15.4"/><path id="Shape_2_" class="st2" d="M89 51.7c7.5-1.1 14.3-4.6 22-5.3 4.8-.5 9.3-.6 13.9-2 9.9-3 18-9.5 28.1-12.1 11.8-3 18.9.5 25 10.2 10.8-1.1 17.3 8.1 22 12.4 8.3 7.5 11.6 14.8 13.9 25.7 1 4.8 3.7 9.2 4.7 13.9 1.1 5.4.5 11.6-.2 16.9-1.1 7.6-3.3 15-4.3 22.5-.9 6.3-1.5 9.1-2.5 15.5"/><path id="Shape_3_" class="st2" d="M166.3 50.9C157 59.8 144 63 132.9 69c-4.9 2.7-9.2 5.9-13.3 9.7-5.4 4.9-9.3 10.6-14.5 15.6"/><path id="Shape_4_" class="st2" d="M146.2 55.7c-11.3 3.2-22.5 4-32.5 11.3-11.5 8.3-14.9 20-23.5 30.6"/><path id="Shape_5_" class="st2" d="M110.4 59.4c-16 5.9-25.4 26-36.6 37.5"/><path id="Shape_6_" class="st2" d="M90.2 63.8c-3.7 4-6.8 8.5-10.1 12.8-6.5 8.5-16 15.9-21.3 25"/><path id="Shape_7_" class="st2" d="M74.1 97.2c-.5 5.6.8 11.6.8 17.3 0 6 .4 11.9.4 17.9 0 9.8-3.8 18.5-5 28-.3 2-2.5 3-4.1 1.7-5.8-4.7-3-18.9-9.1-23.4-13-9.9-17.7 13.5-15.8 21.6 1.5 6.3 5.4 12.9 7.7 19.1 2.2 5.9 4.4 13.2 10.1 16.6 6.4 3.9 9.9.1 12.2-4.9.4-.9 1.7-.8 2 .1 5 17.5 12.4 40.9 30.4 47 4.3 1.5 8.9 2.8 13.1 4.5 4.3 1.8 7.9 4.6 12.4 6 8 2.5 17.1 1.7 25.2.3 6-1.1 12.2-4.1 16.7-8 7.6-6.5 14.7-11 18.9-20.6 5-11.4 7.6-23.3 10-35.6 2.2-10.9 7.8-25 5.7-36.2-.8-4.3-3.3-8-3.6-12.5-.4-5 .3-9.5 1.6-14.2 5.5-19.9-2.9-36.5-3.7-38.3-1.8-3.9-4.1-7.6-6.5-11.2-2.5-3.8-5.6-7.1-9-10.2-2.5-2.3-5.7-6.8-6.6-10.4"/><path id="Shape_8_" class="st2" d="M158.3 31.2c-9.9-3.3-21.4-4.9-31.8-6.5C113 22.6 101 28.9 89.7 36c-15.4 9.7-27.6 22.2-36.6 37.9-7.3 12.8-9.7 29.3-10.8 43.9-.4 5.6.1 11.4.4 16.9.1 2 .8 6.2 1 8.2"/><path id="Shape_9_" class="st2" d="M54.4 143.1c-6.8-2.9-6.7 20-6 23.9 1.9 9.4 14 5.3 18.8 12.4"/><path id="Shape_10_" class="st2" d="M206.3 154.2c1.7-2.9 6.4-6.7 9.1-4.9 4.4 2.9.3 9.8-1.1 14.4-1.6 5.2-3 10.1-3.8 15.4-.3 2-7.3 22.5-11.9 14.5"/><path id="Shape_11_" class="st2" d="M56.9 194.2c-.1 7.4-.4 18.3 1.1 22.9 1.4.1 2.8-.2 4-.8 1.4 1.3 1.9 3.7 2.1 5.6 2.4-.3 2.5 1.3 4.2-.5"/><path id="Shape_12_" class="st2" d="M159.9 252.7c-.1 6.3-4.6 13.3-6 19.6-.9 3.8-1.3 7.7-2.3 11.5-1.4 5.3-4.6 10.8-5.4 16.1"/><path id="Shape_13_" class="st2" d="M69.9 194.2c.5 11.6-.9 24.8-2.9 36.3-1.2 7-7.3 19-12.2 23.3"/><path id="Shape_14_" class="st2" d="M90.2 127.4c4.3-3.2 7.5-6 12.1-7.9 4.1-1.7 8.3-2.1 12.5-2.9 6.4-1.2 16.7-1.4 22.5 2.1 2.8 1.7 3.8 4.7 3.8 7.8 0 1.4-1.2 2.5-2.6 2.4-9-1-18.1-6.4-27.1-3.8-5 1.4-9.8 4.5-14.9 5.7-1.1.2-5.9 1.7-7.1.8-2.2-1.8-.7-3 .8-4.2z"/><path id="Shape_15_" class="st2" d="M160.2 127.3c-1.3.2-2.4-.8-2.2-2.1 2-12.2 24.3-8.9 31.6-3.8 1.9 1.3 8.7 9 3.9 10-1.2.3-4.4-2.8-5.6-3.3-3.1-1.2-6.7-.8-10-1.2-5.8-.5-12.5-.5-17.7.4z"/><path id="Shape_16_" class="st2" d="M54.8 253.9c1.1.4 11.6 8.3 13.8 10.1 6 4.8 9.8 12.7 14 19 8.7 13 18.7 25.2 30.2 35.8 9.6 8.8 22.9 20.7 36.7 21.7 9.2.7 14.5-9.5 15.3-17.9.4-4.8.2-10.1-1.4-14.5-.8-2.2-1.3-4.6-2.6-7-3.7-6.3-.4-16.3 1.3-23.2 1.7-7 4.9-13.7 7.2-20.5 1.9-6 6.4-13.3 6.4-19.5"/><path id="Shape_17_" class="st2" d="M159.9 284.9c13.9 7.4 24.8 17.9 32.8 31.4 8.5 14.2 6.4 12.5 16.6 25.8"/><path id="Shape_18_" class="st2" d="M179.9 321.2c4.2 15.3 6.8 11.6 12.5 20.8"/><path id="Shape_19_" class="st2" d="M189.3 311.1c2.5 3.1 9 5 12.5 7.1 4.1 2.4 6.8 6.4 9.6 10.2 6.7 9 8.1 3.3 12.3 13.7"/><path id="Shape_20_" class="st2" d="M54.8 253.9c-4.5 1-9 2.7-13.7 3.8-4.6 1.1-9.4 4-13.3 6.7"/><path id="Shape_21_" class="st2" d="M209.6 325.8c3.2-.7 10.8 1.4 14.4 2.1 6.4 1.2 22.7 8.9 26.5 14.2"/><path id="Shape_22_" class="st2" d="M62.4 341.9c-1.5-10.6-7.4-17.6-11.9-27.1-4.6-9.6-9.2-17.3-15.7-25.8-4.5-5.9-11.5-11.1-15.4-17.4"/><path id="Shape_23_" class="st2" d="M-.5 270.5c2.8-1.9 3.6-1.8 9.8-1.8 4.7-3.6 10.9-7.1 17-4.9 4.5 1.6 7.5 5.8 10 9.7 3.3 5.2 6.9 10.1 10.3 15.2 8.6 13.2 22.8 33.3 22.8 52.5"/><path id="Shape_24_" class="st2" d="M170 342c6.2-6.9 11.6-13.3 9.6-22.1-1.4-6.3-7.1-13.5-10.5-19-2.8-4.6-7.7-9.5-9.3-14.3"/><path id="Shape_25_" class="st2" d="M41.1 257.7c8.1 3.3 17 8.8 21.5 16.3 6.8 11.4 12.7 23 21.1 33.4 8.7 10.8 29.9 25 40.1 34.6"/><path id="Shape_26_" class="st2" d="M98.7 139c4.1 5 12 6.5 18.1 6.2 2.4-.1 13.9-2.8 13.9-4.8 0-1.1-4.6-5-5.6-5.8-3.8-3.3-7.4-5.2-12.4-4-4.9 1.2-11.1 4.3-14 8.4z"/><path id="Shape_27_" class="st2" d="M188.3 141.6c-1.6 3-9.3 3.7-12.6 3.6-5.1-.1-9.7-2.9-13.9-5.6-.1-.1-.1-.3 0-.3 1.4-1 2.1-1.6 3.2-2.5 1.1-.8 2.3-1.5 3.5-2.1 2.6-1.3 5.4-2.2 8.4-1.9 5.3.5 8.9 5.3 11.4 8.8z"/><path id="Shape_28_" class="st2" d="M110 131.5c-2.2 1.5-3.2 5.2-1.9 7.6 1.6 3.1 6 3.6 9 3.1 3.3-.6 4.5-2.7 4.8-5.9.2-1.7-.2-4.2-2.4-5.3"/><path id="Shape_29_" class="st2" d="M173.8 132.9c-2.6.4-3.2 3.4-3.2 4.5-.1 3.1 1.8 4.3 4.5 4.6 2.9.3 5.4 0 6.4-3.1.5-1.5.7-3.6-1.7-5.3"/><path id="Shape_30_" class="st2" d="M132.5 203.5c.8-.6 2-.5 3-.6 2.1-.2 4.1-.6 6.2-.9 3-.4 6.1-.7 9.2-.8 4.4-.2 8.2 1.2 12.4 1.9"/><path id="Shape_31_" class="st2" d="M119.7 203.3c6.6 0 13.3 6.5 19.4 8.5 8.1 2.7 19.1 1.5 26.5-2.6 1.3-.7 2.5-1.5 3.8-2.3.4-.2 1.8-.9 2.7-1.3.4-.2.4-.6.1-.8-1.5-1-3.1-2.8-4.6-3.9-1.8-1.3-10.4-8.1-12.1-8.1-1.8 0-3.5 3.1-6.2 3.1-3.2.1-3.7-3.2-6-3.1-1.8.1-5.2 2.4-7 3.6-4.6 3.1-10.8 7-16.6 6.9"/><path id="Shape_32_" class="st2" d="M137.7 220.5c1.1.4 2.3-.6 3.4-1 2.3-.7 4.9-1.1 7.3-1.1 3.7-.1 7.8.8 10.7 2.1"/><path id="Shape_33_" class="st2" d="M167.7 175.4c1 1.3 1 1.3 1.5 1.9 1.2 1.3 2.2 2.9 3.1 4.3 2.6 3.8 4.6 8.1 6.6 12.3"/><path id="Shape_34_" class="st2" d="M124.1 178.4c-.2.9-1 1.6-1.6 2.3-2.5 3.2-5 6.2-6.8 9.9"/><path id="Shape_35_" class="st2" d="M204.5 167.4c.5-3.6 5.7-11.4 9.4-12.4"/><path id="Shape_36_" class="st2" d="M151.3 230.4c1.7 3.2 1.9 8.5.4 11.8"/><path id="Shape_37_" class="st2" d="M154.9 131.2c0 6.9 3.2 13.1 3.2 19.9 0 5.5 3.9 8.6 5.9 13.5.9 2 1.5 4.9 1.4 7.1"/><path id="Shape_38_" class="st2" d="M134.2 164.6c-3.2.7-6 5.6-6.1 8.7-.1 2.9 3 5.7 5.4 7.1 1.8 1 4.8 1.7 5.8-.6.9-2-1.7-5.1 1.5-5.4 2.6-.2 4.3 3.2 5.9 5 2.8 3.2 7.4 2.1 9.5-.6 1-1.3 3.1-7.2 5.1-4.5 1.1 1.5 0 3.8-1 5.1"/><path id="Shape_39_" class="st2" d="M93.3 202.2c.1.4.3.7.6 1 .3-.3.5-.5.5-.9-.3-.1-.3.2-.5.2"/></g></g></g></svg>