<svg id="Layer_1" xmlns="http://www.w3.org/2000/svg" viewBox="0 0 260 344"><style>.st0{opacity:0}.st1{fill:#fff}.st2{fill:none;stroke:#000;stroke-width:2}</style><title>tomasz</title><g id="speakers" transform="translate(-134 -1831)"><g transform="translate(134 1816)" id="tomasz"><g id="bg" class="st0"><path id="Rectangle-path" class="st1" d="M0 15h260v344H0z"/></g><g id="Layer_9" transform="translate(0 16)"><path id="Shape" class="st2" d="M70.1 157.2c-.5 4.5-.2 8-.1 10.9.2 4.4.7 8.5 1.1 12.8.4 4.6.3 9.3 1.1 13.8.9 4.9 3.5 9 5.4 13.5 6 14.4 19.1 21.7 28.6 33.3 5.7 6.9 12.1 9.7 21.1 10 9.1.3 17.8-1 25.9-5.5 9.6-5.4 17.7-13.7 24.1-22.6 3.3-4.5 6.9-8.5 9.6-13.4 2.6-4.8 4.9-9.7 6.8-14.9 2.2-6.1 3.1-11.5 3.7-18 .5-6-.7-12.4-.7-18.5 0-6.2-.9-12.3-1.2-18.5-.2-5.6-.4-11.3-1.2-16.9-.2-1.9-.1-6.5-.7-8.3"/><path id="Shape_1_" class="st2" d="M85.8 141.7c1.2-2.9 6.3-5.5 9.3-6.2 3.8-1 8.4-1.1 11.9.8 1.8 1 3.1 2.3 4.4 3.7.3.3.2.8-.2 1-1.6.6-3.2.9-5.3 1.1-2.2.2-4.4.4-6.7.4-2.4 0-4.8.1-7.3 0-2 0-4.7-.5-6.1-.8z"/><path id="Shape_2_" class="st2" d="M147 139.8c-.3-.2-.3-.7 0-.9 1.7-.9 5-2.6 6-3 2.4-.9 4.9-1.6 7.6-1.4 4 .3 8.9 2.5 11.7 5.5.4.4.2 1-.3 1.1-3.8.9-7.6 2-12 1.7-3.5-.2-9.7-1-13-3z"/><path id="Shape_3_" class="st2" d="M99.8 134.7c-5.1 0-6.2 7.5-1 7.9 2.4.2 5.7-.7 6.7-3.1.9-2.3-.5-4.7-3-4.7"/><path id="Shape_4_" class="st2" d="M158 134.5c-2.6.2-3.8 2.9-3.6 5 .2 2.6 2.2 3.3 4.9 3.3 4.2-.1 8.3-5.7 3-8.1"/><path id="Shape_5_" class="st2" d="M74.8 130.2c-3 .8-2.1 7.1-1.9 9.4.3 3.4 1 7.3 4.1 9.5 6.3 4.7 18 3.5 25.6 3.8 4.2.2 8.2.8 11.7-1.1 3.4-2 4.4-7.1 5.2-10.8.9-4 1.6-6.9-1.7-9.9-3.4-3.2-9.9-2.7-14.3-2.9-6-.3-12.3-.7-18.4-.4-4.3.2-8.6.3-11.7 3.3"/><path id="Shape_6_" class="st2" d="M135.1 132.6c-1.7 3 .3 8.5 1.2 11.4.9 3.2 1.8 6.4 4.3 8.9 3 3 7 3.1 11 3.3 5.4.2 10.8.1 16.2-.1 3.2-.1 8.9-.4 11.7-2.2 2.8-1.8 2.4-6.5 2.4-9.6 0-3.6.8-7.5-1.7-10.2-3-3.3-8.3-4-12.7-4.3-7.4-.6-15-1.4-22.5-.9-2.7.1-8.8 1.6-10.3 4.1"/><path id="Shape_7_" class="st2" d="M72.6 132.6c-3 0-6-.3-9-.2-.4 2.4-.1 5.7 1.9 6.7 2 .9 5.9.5 7.7.5"/><path id="Shape_8_" class="st2" d="M181.5 135.7c3.8 1.1 9 .1 13.1.3.3 2 .6 4 .5 6.1-4 .2-9.1-.8-12.9.5"/><path id="Shape_9_" class="st2" d="M119.8 134c2.6-.2 5.3.4 7.9.5 2 .1 4.8-.4 6.4.2"/><path id="Shape_10_" class="st2" d="M106.2 171.3c.1 2.6-1.8 6-2.7 8.4s-2.2 4.7-3.7 6.7c-1.4 1.8-3.4 3-4.6 5-.8 1.5-2.4 6.4-.5 7.3"/><path id="Shape_11_" class="st2" d="M148.5 163.4c1.8 2.5 3.7 5 5.4 7.7 2.3 3.5 3.6 7.7 6.1 11.2 1.1 1.7 3 3.5 3.8 5.5 1.2 3.1-1.8 5.3-2.2 8.4"/><path id="Shape_12_" class="st2" d="M156 195.9c.4 0 .6.4.5.8-1.4 3.7-5.1 7.7-8 9.9-7.3 5.6-15.6 9.1-24.8 7.8-10.1-1.5-14.1-10.1-19.3-17.2-.1-.2-.1-.5.1-.6 1.2-.6 5.2-2.7 12.2-7.5 3-2.1 6.7-4.2 10.4-3.5 1.6.2 2.7.8 4.3.5 1.5-.2 2.9-1.2 4.6-1.2 3.2 0 6.4 2.9 8.7 4.9 2.6 2.3 7.1 6.2 11.3 6.1z"/><path id="Shape_13_" class="st2" d="M71.5 186.9c-6.5 2.4-11.3-6.5-9.4-12"/><path id="Shape_14_" class="st2" d="M108.6 194.4c6-2.6 18.9-4.5 25.5-4.2 4.5.2 8.1.9 12.2 2.4 1.8.6 5 2.5 6.9 2.7"/><path id="Shape_15_" class="st2" d="M122.2 222.1c4.3-.9 10.3-3.8 14.3-.7"/><path id="Shape_16_" class="st2" d="M112.9 160.1c-2 1.9-6.1 10.5-.7 11.7 3.1.7 5-3 6.2-4.1 3-2.3 6.2-.6 5 3.3"/><path id="Shape_17_" class="st2" d="M135.8 151.3c-.7 1.8-.4 5.4.2 7 4.5.3 10.1 5.3 9.6 9.7-.4 3.2-3.1 3.5-5.6 2.1-2.4-1.4-3.4-4.2-6.7-3.4-3.6.8-3 4 0 5"/><path id="Shape_18_" class="st2" d="M87.1 222.3c1 4.5 2.4 8.6 2.6 13.3.2 4.9.5 9.6 1 14.3.8 8.9 1.5 18.4 1.5 26.8"/><path id="Shape_19_" class="st2" d="M193.4 195.8c.1 4.3-.8 8.6-.9 12.9-.1 5.2-.2 10.5-.2 15.7 0 8 .8 16.2 2.4 24"/><path id="Shape_20_" class="st2" d="M85.6 221.1c-2.1.5-4 2.4-5.7 3.6-3 2.1-6.2 4.3-9 6.7-4.3 3.6-7.8 8.5-11 13-3.3 4.6-5.3 8.2-10.1 11.5-5.3 3.6-6.7 7-8.1 13-1 4.4-5.6 7.8-9.5 9.6-2.1.9-6.8 3.1-7.5 5.5-.4 1.4.5 3.5.8 4.8.5 2.4.8 5.2 1.7 7.6 2.3 6.5 8.3 9.6 14.3 11.9 7.1 2.7 12 7.1 17.7 12 2.6 2.2 5.2 4.5 7.4 7.1 1.8 2.1 5.8 7.4 5.7 9"/><path id="Shape_30_" class="st2" d="M192.8 206.5c7.1 4.7 11.5 15.7 12.6 26.1.6 6 .6 12.6-.8 18.5-1.9 7.3-5.6 14.1-8.7 20.8-2.5 5.2-4.9 10.4-7.3 15.7-2.4 5.3-5.6 9.8-9.3 14.4-5.8 7.5-13.6 12.3-18.5 20.5-3.1 5.3-7.1 10.4-9.1 16.2"/><path id="Shape_22_" class="st2" d="M91.2 257.3c-.4 6.9-5.8 15.6-8.9 21.4-5 9.3-5.6 19.3-6.5 29.6-.7 7.8-2.7 15.4-3.3 23.2-.6 7.4-.2 2-.7 9.4"/><path id="Shape_23_" class="st2" d="M201.2 216.1c2.4 1.9 5.5 7.6 7 10.4 1.6 3 2.8 6.5 3.6 9.9.7 2.9 1 7.2 3.4 9.4 2.1 1.9 3.8 2.3 5.3 5 1.5 2.8 4.4 5.8 5 8.9 1 5.1-2.3 10.6-4.3 15.1-1.6 3.5-4 6.8-5.6 10.2-2.3 4.6-5 8.8-7.9 13.1-4.1 6-7.9 14.3-12.6 19.1"/><path id="Shape_24_" class="st2" d="M218.6 256.3c0 10.7-5.7 23.5-12 32.1-6.3 8.7-16.7 13.1-23.7 21"/><path id="Shape_25_" class="st2" d="M49.8 312.6c.3 10.5-5.5 19.4-9 29.3"/><path id="Shape_26_" class="st2" d="M85.8 272.3c.2 9.4-.2 19.1 5.8 27 5.1 6.7 10.3 13.1 18.2 16.5 7.7 3.4 17.2 6.7 25.8 6.4 7.3-.2 15.8-4.8 22.5-7.7 3.4-1.6 6.7-3.1 10.2-4.4 2.3-.8 6.9-3 8.8-5.7"/><path id="Shape_27_" class="st2" d="M79.4 285.7c2.1 16.8 10.9 30.7 25.4 36.9 7.3 3.1 14.1 4.4 22.1 4.7 6.7.3 13.7.6 20.4 0 3.7-.4 10.3-1.6 13.4-4.8"/><path id="Shape_21_" class="st2" d="M225.7 283.3c-2.4 3.8-3 9.1-4.2 13.5-1.5 5.7-3.5 11.2-4.7 17-1.2 6.2-2.6 12.4-4.3 18.5-1.1 4.2-2 5.2-2.6 9.5"/><path id="Shape_29_" class="st2" d="M225.4 259.7c1 1.4 4.6 3.8 5.6 4.6 3 2.1 16.2 9.1 25.1 11.2"/><path id="Shape_31_" class="st2" d="M41.6 268.8c-8.2 5.8-19.3 11.7-28.6 14.7-5.1 1.6-5.9 3.5-10.8 5.4"/><path id="Shape_33_" class="st2" d="M119.1 267.5c-.1 3.2.7 6.7 1 9.8.5 4.4 1.8 11.2 6.1 13.6"/><path id="Shape_34_" class="st2" d="M69.6 187.4c-2.5 6.1-7.4 8.8-13.5 10.3"/><path id="Shape_35_" class="st2" d="M72.1 194c-.4-.2-1.2 2.8-2.1 4.2-2.2 3.4-5.5 5.6-9.5 6.5"/><path id="Shape_36_" class="st2" d="M74.6 201.4c2.8 5.3-4 10.2-6.9 14"/><path id="Shape_37_" class="st2" d="M78.7 210.3c-1.2 3.8-.8 7.3-4.4 10.3"/><path id="Shape_38_" class="st2" d="M196.4 184.7c2.3 1.8 7.7 3.8 10.2 2.1 3.2-2.3 3.3-9 3.3-12.5"/><path id="Shape_39_" class="st2" d="M66.5 92.2c9.9-.3 16.7 10.7 25.5 13.5 5.9 1.9 11.2 4.4 15.8 8.6 6.5 6 14.1 8.2 22.9 9.6"/><path id="Shape_40_" class="st2" d="M49.2 98.5c-2.3 3.2-5.1 6-7.1 9.7-3.2 6-4 12.5-2.7 19.2 1 5.8-1 15.9 3.4 19.6 3.1 2.6 4.1 4 4.8 8.2.6 3.5.4 5.4 2.8 7.9 1.2 1.4 1.7.6 2.3 2.7.5 1.9-.6 4.1-.2 5.9.4 1.8 1.8 3.1 2.2 5 .9 4.7-2.8 14.2-7.4 16"/><path id="Shape_41_" class="st2" d="M69.8 139.6c1.7 4.8.9 14.7-.1 19.4-1.2 6.2-4.6 11.4-8 16.7"/><path id="Shape_42_" class="st2" d="M58.9 155.2c.9 2.4.2 6.4.3 9.4.1 3.3.7 6.4.6 9.7-.2 6.5-1.2 14.4-5.3 19.8"/><path id="Shape_43_" class="st2" d="M53 106.4c3.4 3.2 6.1 8.3 9.7 12 5.6 5.6 12.8 6.2 20.4 7.2"/><path id="Shape_44_" class="st2" d="M68.7 70.3c7.1 4.2 15.4.2 21.8 7.5 3 3.3 4.8 7.6 7.2 11.3 3.1 4.9 7.8 7.8 11.4 12.3 3.4 4.2 5.7 8.8 10.2 12.1 4.6 3.3 10.4 5.9 15.5 8.2 4.7 2.1 9.7 3.2 14.7 3.7 3.7.3 6.9.3 10.6-.2 5.4-.7 12.3-.5 17.3-2.5"/><path id="Shape_45_" class="st2" d="M100 77.6c2.3 1.2 5.1 2.4 6.9 4.4 3.1 3.5 4.4 8.5 7.6 12.2 6.9 7.9 15.1 12.5 24.5 16.8 8 3.6 13.8 6.8 23 6.8 9.3-.1 18-2.2 27.3-1.6"/><path id="Shape_46_" class="st2" d="M90.6 63.1c11 0 19.8 2 28.6 8.7 5 3.8 8.5 8.7 12.5 13.5 3.8 4.6 9.1 8.2 14.1 11.3 4.3 2.7 8.8 6.2 13.7 7.8 5.4 1.8 11.3.9 16.7 2.8 4.8 1.8 9.3 4.7 14 6.4 8 3 18 3.8 26.5 3.5"/><path id="Shape_47_" class="st2" d="M99.3 20.2c-.3 4.8-.1 9.8-3 13.7-3.4 4.8-6.4 4.5-11.4 6.3-6.3 2.4-7.8 9.4-9.9 15-2.4.9-3.5.1-5.3 2.4-3.1 4.2-.6 7.6-.9 12.1-2.6.9-5.8 2.3-8.2 3.7-3.7 2.3-4.1 4.5-6.2 8.1-2.4 4.1-6.8 6.9-6.2 12.3.6 7.5 8.5 9.1 14.8 10.1 5.7.9 10 2.9 14.3 6.5 9.1 7.4 20.1 9.1 31.4 11.2"/><path id="Shape_48_" class="st2" d="M102.5 30.6c1.8-8.9 13.8-7.3 18.8-12.9"/><path id="Shape_49_" class="st2" d="M113.8 29.2c3.5-1.8 7.9-2.3 11.1-4.7 4.2-3.1 8.1-7.5 10.2-12.2"/><path id="Shape_50_" class="st2" d="M131.6 26.1c3.3-1.6 6.9-3.4 10.6-4.4 5.4-1.5 8.5-.3 13.6 1.7 5.4 2.1 10.5 4.4 16.3 4.7 7.6.3 15.9-.4 23.4-1.6"/><path id="Shape_51_" class="st2" d="M180.5 34c2.5 1 4.9 1.9 7.7 2.2 5.4.8 12.4-.7 17.4 1.6"/><path id="Shape_52_" class="st2" d="M188.3 40.6c16 7.1 19.2 28.5 37.6 31.9"/><path id="Shape_53_" class="st2" d="M214 75.6c6.1 5.2 10.3 14 15.4 20.4"/><path id="Shape_54_" class="st2" d="M221.2 98.2c2.5 4.4 4.8 11.1 5.8 16.2.6 3 .8 5.5 1 8.5.6 6.8 2.8 13.6 2.8 20.4"/><path id="Shape_55_" class="st2" d="M224.6 135.8c2.8 4.6.1 15.4-.7 20.8-1.1 7.7-.6 20.7-6.5 26.2"/><path id="Shape_56_" class="st2" d="M212.8 123.9c4.1 17.7 5 33.3 4.1 41.3-.4 3.3-1.2 9.8-2.1 13-1.7 6.1-8.7 16-10.1 22.1"/><path id="Shape_57_" class="st2" d="M202.7 189.3c-5.4 8.8-2.1 18.5-1.5 27.9"/><path id="Shape_58_" class="st2" d="M92.8 48.4c4.3-2.5 11.7-2.3 16.3-1.4 6.4 1.4 12.6 5.3 17.5 9.5 11.5 9.9 21 25.1 35.8 30.1"/><path id="Shape_59_" class="st2" d="M135.4 41.2c3.4-.5 11.6 5.3 14.1 7.5 8.9 7.5 10 16.1 10 27.3"/><path id="Shape_60_" class="st2" d="M158.6 44.9c4 3.5 6.9 8 10 12.3 6.2 8.7 6.3 16.7 6.3 27.2"/><path id="Shape_61_" class="st2" d="M179.5 91.6c10.1 5.3 25.9 4 36.7 1.9"/><path id="Shape_62_" class="st2" d="M190.2 86c6.8 1 13.1-.4 19.8-2.2"/><path id="Shape_63_" class="st2" d="M180.5 43.7c11.2 5.3 14.9 18.3 16.3 29.4"/><path id="Shape_64_" class="st2" d="M172 47.7c4.5 5.6 5.9 12.8 9.4 18.8"/><path id="Shape_65_" class="st2" d="M116 39c4-1 8-2.2 12.1-3 7.9-1.8 21.3-3 28.7.5"/><path id="Shape_66_" class="st2" d="M108 202.5c2.1 3.3 4.7 4.2 6.9 5.1 3.1 1.4 7.9.4 11.3.4 4.9 0 9.6-.9 14.2-2.2 3.8-1 7.9-1.6 11-4.2 1.9-1.5 3.5-3 4.9-5.1"/><path id="Shape_67_" class="st2" d="M122.1 191.1c-.2 2.3-.1 4.9-.2 7.7-.1 3.2 1.2 4.7 4.1 4.2 2.6-.5 3.4-.8 3.8-3.7.3-2.6.3-6 .3-8.7"/><path id="Shape_68_" class="st2" d="M138.4 191.3c-.2 2.9-.3 6.8-.1 9.6 2.3.9 5.2.7 5.2-1.4 0-1.9.3-5.7 0-7.5"/><path id="Shape_69_" class="st2" d="M116.1 192.1c-.1 3.2-.7 8.2.5 11.1 1 .2 5.3.6 5.3-3.4"/><path id="Shape_70_" class="st2" d="M129.8 199.2c-.3 4.3 7.5 3.2 8.5 1.5"/><path id="Shape_71_" class="st2" d="M143.5 200.1c4.1 3.1 6.7-1.1 6.1-6"/><path id="Shape_72_" class="st2" d="M115.7 203.4c.1 0-3.5.3-4.5-.9-1.1-1.5-1.2-6.4-1.1-8.2"/><path id="Shape_73_" class="st2" d="M199.7 128.9c.4 17.2 10.3 26.6 10.3 47.2"/><path id="Shape_74_" class="st2" d="M199.9 156.4c1.5 5.7 2.8 11.5 4 17.5"/></g></g></g></svg>