<svg xmlns="http://www.w3.org/2000/svg" viewBox="0 0 260 344"><style>.st0{opacity:0}.st1{fill:none;stroke:#000;stroke-width:2;stroke-miterlimit:10}</style><path class="st0" d="M0 0h260v344H0z" id="Layer_2"/><g id="Layer_3_1_"><path class="st1" d="M54.1 147.6c-1.7-4.8-4.2-14-5.2-18.9-.7-3.6-2.4-6.9-2.8-10.6-.4-3.5-.4-7-.4-10.6 0-13.2 2.5-25.1 6.2-37.5 2.9-9.8 10.7-17.9 17.5-25.4 9.1-10 21.8-14.5 33.7-20.2 5.9-2.8 10.5-6 17.1-7.1 4.8-.8 9.8-1.1 14.7-1.2 7.8 0 17.2-.6 24.5 2.1 8.2 3 14.2 7.6 19.5 14.5 4 5.2 7.2 12.1 7.9 18.5"/><path class="st1" d="M115.9 50.1c3.4 8.7 1.5 16.6-3.1 24.9-4 7.1-12.4 15.6-20.3 17.9m25.6-16.1c.3 7.1-7.8 13.4-13.5 16.1M98 69.1c-5.2 10.4-16.1 18.2-26 23.4m8.8 3.3c0 9.4-1 20.3-5 28.9-1.3 2.7-3 5.8-3.6 8.6-.3 1.7-.3 3.5-.6 5.3-.6 3.9-3.1 7.1-3.9 10.8-1.1 5.1-.2 11.4-.2 16.6m57.9-100.9c5.7 10.1 12.4 28.3 2.2 38"/><path class="st1" d="M134.9 64c4.9 6.4 7 14.9 7.3 22.9.3 8.9-3.4 13-9.2 18.8m14.7-38.1c6.4 15.7 4.8 36.5-9.1 47.9m17.9-50.8c4.5 8.2 8.5 17.8 6.5 27.4-.8 3.8-2.5 7.9-4.6 11.2-.8 1.3-2.4 2.9-2.6 3.8m10.9-59.2c9.9 7.1 15.7 21.3 14.6 33.4-.8 9-7.8 15.2-11.7 22.9m-.7-31.8c2.6 5.3 5.1 12.3 2.6 18.3m16.4-29.3c.9 4.1 3.2 7.8 3.6 12.2.6 6.2-2.2 10.9-4.4 16.3m-1-57.4c3.6 2.7 6.8 6.1 10.3 8.9 4.1 3.2 9.3 4.4 13.3 7.7 3.9 3.2 5.8 7 8.7 11 3.6 4.9 8.9 10.5 10.9 16.2 3.3 9.6-.1 22.8.3 32.7.2 7.5-1 15.5-.3 22.8m-31.5-51.4c5 7.2 8 11.9 8.8 21 .8 9.4 1 18.7 1.4 28.1.6 12.9 1.5 25.6 1.5 38.6m16.1-42c0 8.6-2.2 16.1-6.1 23.7-2.3 4.3-5 8.4-6.3 13.2m-154-28.1c.1 10.7 4.7 20.6 4.8 31.1 0 4.4 2.3 12 2.8 16.4.3 2.6 1.2 5.2 1.6 7.9.5 3.6 4.5 18.9 6 22.8 4.8 12.3 10.3 25.2 20.6 34.6 7.5 6.8 16.2 11.9 24.8 16.5 8.5 4.5 18.5 6.2 28 4.9 12.7-1.8 20.3-9.7 28.4-16.8 7.5-6.6 15.1-14.2 20-22.8 4.8-8.4 6.6-15.3 8.2-24.6 1.2-6.8 5.1-26.3 5.1-36.7"/><path class="st1" d="M203 64.9c3.6 3.7 7.1 6.9 9.1 11.8 1.2 2.9 1.6 5.9 1.9 9 .2 2.2-.3 6.1.6 7.9m5.4-8.1c.1 1.3.7 2.4 1.1 3.7.9 3.4.8 6.9.8 10.3v14.7m-6-1.2c-.4 4.1.5 8.6.5 12.7v13.5M73.3 68.5c-6.8 12.3-11.6 26.7-11.6 40.8m8.1-4.1c.3 5.2-2.6 9.9-3 14.9m-.5 59.5c-4 1.3-7.9.4-9.7-3.7-1.3-3.1-.4-6.8-.4-10.1.1-4.5-.8-8.9-1.7-13.3-.6-2.9-1-8.2 1.4-12.3m160.6 15c-.9 2.5.1 7.6 0 10.3-.1 3.7 0 7.5-.3 11.1-.3 4.5-4.1 9.4-8.7 10.5m-83.7-6.1c-1.6 3.2-1.1 8 .1 11.2 1 2.7 2.2 4 5 4.5 1.9.4 2.8-1.4 4.9-.5 2 .8 3.6 2.7 5.3 3.9 2.6 1.8 6.4 2.5 9.6 1.6 2.6-.8 4-2.5 5.9-4.4 1.5-1.4 3.8-1.2 5.7-1.7 5.9-1.5 4.8-12.4.5-15.3m-42.3 4.9c-4.7 7.7-10.5 16.2-20.1 18.1m68.4-14.3c2.9 2 5.5 5.3 8.2 7.7 2.4 2.3 4.9 4.2 7.8 5.9M93.4 151c2.6-1.7 4.9-4.2 7.7-5.5 3.5-1.6 6.6-2.3 10.5-1.9 2.8.3 6 .9 8.5 2.4 2.6 1.5 4.7 3.7 7.2 5.4-2.7 1-5.8 1.2-8.7 1.4-3.3.2-6.5.8-9.8.8-3.8 0-7.7.1-11.5-.7-1.2-.3-3.1-.8-3.9-1.9zm67 3.3c3.6-4.9 12.7-6.8 18.4-6.7 5.8.1 9.6 3.2 14.4 5.9-1.6 1.9-4.4 2.7-6.7 3.5-3.6 1.3-7.7 1.5-11.5 1.1-4.9-.5-10-2.4-14.6-3.8zm-76.7-12.5c.7-1.9 4-2.9 5.5-4 1.7-1.2 3.3-2.4 4.9-3.7 1.9-1.4 4.4-2.9 6.8-3 3.3-.2 7 1.2 10.2 1.6 2.9.4 5.9.8 8.7 1.7 2.3.7 4.7 1.7 6.6 3.1 1.1.8 4.4 2.6 2.4 4-1.1.8-3.4 0-4.6 0-1.7-.1-3.1-.1-4.7-.4-6.8-1.4-14.3-1.7-21.1-.2-3.6.8-7.3 2.5-10.9 3-1 0-4.6.2-3.8-2.1zm71.8.6c2.6-3.1 8.1-5.3 11.6-6.8 3.9-1.7 8.7-1.7 12.9-2 3.5-.3 5.7 1.1 8.9 2.6 2.6 1.3 5.1 2.7 7.1 4.7 1.2 1.2 5.2 3.9 4.1 6.1-1.2 2.4-5.4.1-7-.7-6.6-3.2-14.9-3.9-22.2-3.4-4.2.3-8 1.6-12.1 2.2-1.1.2-3.2.4-3.8-.7-.2-.6.2-1.5.5-2z"/><path class="st1" d="M105.6 144.3c-1.6 2.6-.4 6.2 2.2 7.8 2.6 1.6 7.8 1.1 8.5-2.5.3-1.7-.1-3.9-1.1-5.3m56.7 3.9c-3.8 1.4-2.7 7.4.4 8.4 1.5.5 4 1.2 5.5.8 2-.5 2.9-2.7 2.9-4.5.1-1.9-.3-4.2-2.1-5.3M106.1 214c1.3-1 2.6-2.9 4-3.6 1.8-.8 5.4 1.1 7.2 1.6 2.6.6 5.1 1.3 7.7 2 14.1 3.8 24.5 2.4 36.4-.3 1.8-.4 4.9-1.8 6.6-2.6 3-1.4 3.3-2.1 5.6 1.1m-44.2 27.5c3-1.2 7-1.4 10.2-1.3 4 .1 7.2 1.2 11 2"/><path class="st1" d="M114.9 211.2c5-.1 15.6-.1 20.6.1 1.8.1 5.2 1.7 7.1 1.6 2.8-.2 5.3-1.4 8.2-1.6 3.2-.2 11.7.9 17.8-.4"/><path class="st1" d="M111.2 210.3c4.7 3.8 7.5 8.8 12.5 12.4 4.5 3.2 15.2 5.3 20.6 5 10.7-.5 22.5-10.9 25.8-16.7"/><path class="st1" d="M114.9 211.2c5.1 4.7 14.8 7.8 21.5 8.7 8.4 1.2 18.8-.5 22.8-2.1 2.3-1 10.6-6 12.4-7.5m-37.1 6v2.4m7.6-1.8c.1.6-.2 2.3 0 3.2m7.5-3.7c0 .7.1 2.9.3 3.5m7.2-5c-.1.7 0 2.3.1 3m-31.9-3.4v2.4m-45.5 9.5c-.4 8.2 2.5 26.2-1.6 36.3m113.6-26.8c.4 6.5-1.6 11.3-2.5 17.7-1 8.8-2.3 16.8-7 24.5-4.6 7.4-10.6 14.4-15.7 21.6-2.2 3.3-4.9 6.6-6.7 10.1-1.6 3.2-3.5 7.7-5.3 9.8-3.2 3.5-2.6 8.5-4.8 12.6-2.4 4.7-4.1 3.8-5.5 9.3"/><path class="st1" d="M79.8 226.4c-5.4-.7-10.7 8.4-12.2 12.2-4 9.6-9 18.9-11.5 28.9-2 7.9-4.8 16-6.2 24-.9 5.4 1.2 5.9 5.4 9.2 4 3.1 7.9 6.5 12 9.4 4-8.2 4.8-18.1 6-27 1.1-8.2 3.5-16.3 6.2-24-.1-.6 1 1.2.7 1.3-.5 6 4.8 13.1 6.9 18.6 3.4 8.5 8.7 16 13.9 23.5 5.8 8.3 10.9 16.6 16.3 25.2 1.9 3.1 4 6.2 5.7 9.4m73.1-107.7c-.2 4.6 1.1 8.8 1.7 13.7.5 4.4 1.9 9 1.7 13.4-.1 1.8-.9 3.8-.6 5.6.4 2.3 2.4 4.7 3.4 6.9 1.7 4 4.3 7.7 5.8 11.7 1.6 4.3 1.5 5.8-1.7 8.8-4.1 3.7-9.5 6.3-13.4 10.1-2.6 2.4-1.2 4-1.7 7.2-.9 6.1-7.7 7.8-12.3 10.5-11 6.4-22.5 13.2-28.9 24.4"/><path class="st1" d="M67.2 310c.8.5.7 2 1.2 3.3.9 1.9 2.1 3.3 3.9 4.6 5.1 4 10.9 7.4 16.6 10.4 10.6 5.5 13.8 2.6 21 12.4m78.2-78c0 7.5 1 17.7 2.1 25.2.7 5 1.5 10.8 1.4 15m6.4-77c5.8 2.2 6.8 3.6 8.5 9.9.6 2.2.5 5.7 3 5 1.4-.4 3-3.7 4.7-4.4 1.9-.9 3.9-.6 5.8.1 3.2 1.1 4 4.3 6.5 5.7 3.4 1.8 5.1-2.8 8.3-3.5 1.7-.4 3.6.5 5.1.9 3.9 1.1 8.1 1.2 12 2.4M69 235.7c-1.7 3.1-11.3 8.5-14.7 8.4-3-.1-5.7-1.3-9-1-3.6.4-6.7 1.9-10 3.4-4 1.6-6.7 2.2-11 2.7-3.4.4-5.2 1.6-7.1 4.3-1.9 2.6-8.6 5.4-11.6 6.5m25.7-7.4c5.6 6.2 9.7 14.2 14.2 21.2 2.1 3.3 4.7 7.1 5.8 10.8m3.8 16.2c4.1 7.7 5.3 15.5 6 22.7.5 4.5 1 9 1.3 13.6m-46.9-72.5c4.3-1.5 13 8.4 16 11 2.4 2.1 5 4.2 7 6.7 1.1 1.4 3.1 6.2 4.1 6.1m162.7 10.3c-.7 9.7-2.8 19.4-2.9 29.3 0 5.4-.5 8.4-.1 13.8m46.2-80.1c-2.6 3.1-3.7 7.7-5.1 11.3-2.7 7.2-4.6 14.6-5.6 22.2-1.8 12.6-1.9 27.9-1.9 39.1m7.2-82.7c-9.6 11.1-22.1 19.2-27.7 33.2m3.8-36.9c-5.9 8.3-9.9 18.9-13.5 27.2m-89.4 15.7c0 5 3.2 10.5 4.4 15.2 1.5 6.3 2 12.9 3.6 19.2m13.4-175.3c1.1 5.8 2.3 11.4 2.3 17.4 0 5.1-.7 10.1-.8 15.1"/></g></svg>