<svg id="Layer_1" xmlns="http://www.w3.org/2000/svg" viewBox="0 0 260 344"><style>.st0{opacity:0}.st1{fill:#fff}.st2{fill:none;stroke:#000;stroke-width:2.0059}</style><g id="speakers" transform="translate(-715 -254)"><g transform="translate(716 234)" id="shmyrov"><g id="bg" class="st0"><path id="Rectangle-path" class="st1" d="M-1 20h259.9v343.9H-1z"/></g><g id="Layer_3" transform="translate(0 20.94)"><g id="Group"><g id="Shape"><path class="st2" d="M103.2 130.3c0 10.7-4.3 18.6-6.7 28.6m12.6 15.5c.7-3.8 5.7-4 8.3-2.4 2.9 1.7 3.3 5.6 7.6 3.6 6.2-2.9 3.9-13.3.1-15.9M102 175.3c-3.6-.6-5.6-3.5-6.3-6.7m-3.4-7.2c-5.3 4.2-7.4 16.8 2.9 15.5m34-42c6.6-2.7 11.5-4.4 18.8-3.4 4 .5 19.1 2.7 20.8 0m-58.4-26c-.2 4.1.6 12.6 3.4 14.7m-11.8-8.8c0 3.1.2 7.2-.8 9.7m22.1 2.5c-1.7-1-3.7-2.3-3.3-4.5 3.5-1.6 7.6-1.8 11.4-2.6 4.8-1 9.5-2.3 14.2-3 5.7-.8 15.8 1.6 21.2 3.5 2.7.9 4.9 3.6 6.2 5.5.7 1 0 2.3-1.2 2.3-5.1 0-15.8-2.8-23.1-2.8-8.8-.1-16.7 1.2-25.4 1.6zm-26.8-1.3c-2.8-3.8-24.1-9.5-31.9-3.3-.8 2.4-.6 5.3-.4 7.8 5.5.9 12.3-2.9 18.2-2.9 2.6.1 17 2.4 14.1-1.6zM83 176.9c-6.4 4.4-10.7 18.6-8 24.8m58.9-34.8c4.8 6.6 8.8 14.5 15.1 20.2m-64.3 12.1c2.4 4.1 8.4 1.3 11.5-.3 2.1-1.1 3.7-2.5 6.2-2.2 1.8.2 3.5 2.7 5.1 2.6 1.3-.1 2.9-2.7 5-3 2.4-.3 3.9.5 5.9 1.3 4.3 1.6 7.3 3.6 12 3.8 5.4.2 9.3-.8 13.3 3.2-.3-.2-.6-.5-.9-.7"/><path class="st2" d="M63.8 124c-3-4.8-.8-12.4-.6-17.7.3-6.8-.3-11.8.2-18.5.5-6.1-1.6-11.3-2.6-16.8-.8-4.4 2.7-11.8 4.7-15.5 3.4-6.1 7-11.9 13.6-13.5-4.2 1-7.5 1.4-11.6.4 4.7 1.2 8.4-4.5 12.6-7.5s7.6-4 12.6-4.2c9.8-.3 15.2-7.9 24.3-9.3 9.2-1.4 19.5.6 27.8 4.6 4.8 2.3 9.4 2.3 14.3 4.1 4.9 1.8 10.1 4.5 14.6 7.3 6.5 4 10.6 8.3 15.6 14.1 5.1 5.9 11.5 9.8 14.8 17.5 1.6 3.6 4.3 8.3 5.2 12.1.7 3.3-.3 7.6-.1 10.9.4 8.9-1.7 17-1 25.7.3 3.3.2 6.7 0 10-.3 3.8-.8 4.6-3.9 7.1-2.9 2.4-3.8 3.3-4.6 6.7-.5 2.1-.5 4.9-1.4 6.9-.3.7-1.4.8-1.7 0-2.8-5.4-3.5-11.1-4.8-17.3-1.4-6.6-2.7-13.5-6.6-19.1-1.5-2.1-3.7-3.2-4.7-5.5-1.3-2.9-.3-7.3.5-10.3 2.1-7.2 1.1-8.9-3.9-14.5-4.8-5.4-8.8-14.4-8.4-21.9.3-5.2-4.2-3.2-7.6-3.8-3.8-.6-6.6-2.6-10.3-3.2-12.2-1.9-6.3 18.7-5.4 19.4-2.6-2.3-5.4-6.3-6.2-10.6-.6-2.8-.7-12.4-3.7-8.6-2.7 3.6-7.2 8.3-7.6 10.8.9-5.4-.5-9.9-6.8-9.2-6.8.8-9.1 7.3-14.4 10.3-4.1 2.3-8.9-4.7-14.3-5.2-6.1-.7-8.1 2.6-11.4 6.9-2.9 3.8-6.3 5.3-8.4 8.7-7.1 11.1-3.1 27-7.1 39.5-3.2 10.3 0 19.6-2.2 30.3-3 14.8-1.3 27.4 1.7 42 1.6 7.8 3.7 14.8 6.6 22.3 2.6 6.9 5.7 11.1 8.8 17.7 2.8 5.9 6.5 11.9 11.1 16.6 3.6 3.6 14.2 7 18.3 7.6 7.1 1.1 15.7-1.4 22.1-3.1 8.2-2.2 16.7-7.8 23-13.2 8.3-7 16.5-15.6 24-23.4 10.6-11 14.4-28.2 20-45.1"/><path class="st2" d="M136.8 201.7c-7.2 0-16.3 2.1-24.4 1.7-6.5-.3-17.1-.1-23.1-1.7 4.3 6.1 6.2 10.5 15.1 11.3 8.3.8 16 .3 23.2-4.4 3.5-2.3 7.4-6.9 12.6-6.5m66.5-69.3c10.3-3.8 12.5 10.1 9.3 17.4-2 4.7-3.7 9.6-4.9 14.6-1.2 4.9-1.5 11.4-4.7 15.2-3.5 4.3-8.9 5.7-11.9.3"/><path class="st2" d="M202.4 145c-.1-3.1 4.4-6.7 7.4-6.3 4.1.5 3.2 4.7 3.2 8m-83.8-16.8c6.9-2.4 10.4-2.2 17.3-.8 5.6 1.1 13-.2 17.7.4m-96.7 7.6c7.2-8.9 22.2-11.1 29.1-1.2.3.4.1.9-.4 1.1-2 .5-4.1.3-6.2.5-2.9.3-5.8.9-8.7 1.3-4.9.7-8.9.4-13.2-.2-.7-.2-1-1-.6-1.5zM88.1 240c-3.4 9.1 1.9 20.2 6 28.1 2.8 5.4 7.4 9.5 10.7 14.6 3.2 5.1 5.3 10.7 8.7 15.6 2.8 4.2 6.6 7.5 9.6 11.4-4.1.4-7.7-1.1-12.1-.2-4.8.9-8 3.6-12.3 5.9-6.2 3.3-11.5 4.7-17.6 8m104.1-120c-1.6 12.6-2.1 24.8-2.1 37.2 0 5.2.7 10.3.4 15.5-.3 6.2-4 11.2-7.6 16.3-7.9 11.4-14.5 24.8-25 34-3.3 2.9-9.1 5.8-13.5 5.9-5.4.1-5.7-2.7-9.1 2.5-4.1 6.2-7.4 13.2-10.6 19.8-1.9 4-2.5 3.8-3.9 7.5"/><path class="st2" d="M82.8 232.1c.3 4.1-.9 7.4-1.8 11.3-1.1 4.7-1.4 9.5-2.2 14.2-1.4 8.7-1.3 16.9-1.3 25.6.2 16.9 3.1 33.1 3.8 50 .2 5.2-.2 5-.6 8.8m-7.4-128.2c-.2 3-5.1 7.8-7 10.2-4.8 5.8-10.6 9.6-16.7 13.8-7 4.8-14.6 8.2-21.6 13-4.7 3.2-8.8 7.1-13.3 10.4-2.4 1.8-6.9 2.8-8.2 5.5-1 2.2.3 6.5.4 8.8.2 4.5.7 8.4 1.8 12.8 1.6 6.2 4.1 13.2 7.4 18.7 1.2 2 2.7 4.2 4.2 5.9.9 1 3.4 2.4 4 3.6 1 1.9 0 5.5.3 7.6.4 3.7 3 14.3 3.7 18M184.6 209c3.8 3.9 10.8 11 14.9 16.1 5.9 7.5 12.1 14.5 17.7 22.3 4.5 6.3 11.2 10.4 17.3 14.9 3 2.2 9.3 6.6 12.1 9m-63.5-34.9c.3 11.4 1.2 21 4 30.5 3.5 11.5 9.6 22.6 15 33.3 4.5 9 12.7 14.3 20.6 19.9 4.5 3.2 13.8 8.1 16.3 13.2 1.7 3.3-.7 4.6-2.8 8.7m-14.4-21.8c-6.3 6.2-10.9 14.3-15 22.4"/><path class="st2" d="M24.5 316c3.5-.5 11.2-6.7 14.7-8.8 7-4.2 13.3-9.2 18.9-15.2 8.3-9 13.5-20.1 20.1-30m45.4 48.3c0 5-.6 11.6-2 16.2m21.9-15.6c1.3 1.8 4.2 2.2 6.4 3.8 3.1 2.2 5.7 5.1 8.8 7.2s6.7 4.5 10 6.3c1.5.8 2.9 1.5 4.8 2.2m14.2-61.6c.1 2.9 1.1 4.8-.3 8.1-2.4 5.8-3.6 11.9-5.2 17.9-2.2 8.5-5.7 17.3-6.8 25.9-.9 7.2-2.1 14.8-3.4 22M81 129.5c-4.3 3.1-2.4 8.5 2.5 8.4 5-.1 8.5-6.5 2.6-8.5m97.8 87.7c5 4.8 9.5 11.6 14.3 16.8 6.5 7.1 12.8 14.4 19.4 21.4 5.9 6.3 11.8 12.9 19.2 17.7 3.3 2.2 6.9 5.2 9.2 6.5m-26.5-29.2c6.2 2 19.6 1.9 26.2 3.6m-44.4-90.3c.6 3.9 4.1 1.4 5.3-.5 1.6-2.6 3.3-6.4 3.8-9.3"/></g><path id="Shape_1_" class="st2" d="M138.7 318.8c-.3-1.8-4.7-1.8-5.8-1-2.3 1.6-1.1 6.7 1.2 7.6.9.4 2 .3 2.9.4.9 0 3.1.4 3.9-.4.6-.6.6-2.2.5-3-.2-1.3-1.4-3.7-2.8-4"/><path id="Shape_2_" class="st2" d="M75.8 220.8c-1.4.8-2.6 4-3.8 5.4-1.9 2.2-3.7 4.7-5.9 6.7-5.8 5.3-11.9 10.4-18.1 15.1-6.7 5.2-14.2 9.2-21.4 13.7-4.8 3.1-9.6 6.2-14.5 9.1-1.8 1-3.6 3.1-4.9 3.8"/></g></g></g></g></svg>