<svg xmlns="http://www.w3.org/2000/svg" viewBox="0 0 260 344"><style>.st0{opacity:0}.st1{fill:none;stroke:#000;stroke-width:2;stroke-miterlimit:10}</style><path class="st0" d="M0 0h260v344H0z" id="Layer_3"/><g id="Layer_2"><path class="st1" d="M65.8 204.4c1.4 3 8.6 15.3 10.6 18 2.3 3.1 4 6.4 6.5 9.3 5.3 6.4 10.8 12.3 17.7 17 7.8 5.4 15.7 8.6 25.4 8.6 4.5 0 8.8-.3 12.9-2.2 4.9-2.3 9.1-5.6 13.9-8 4.4-2.2 8.5-7.2 12.4-10.2 2.3-1.8 8.7-10.7 8.7-14.7m-98-81.3c2.7-2.4 3.8-5.1 7.5-6.5 3.3-1.3 7.7-2.3 11.1-1.9 5.5.8 12 5.9 14.7 10.6-5.1 2.2-10.5 2.7-16.2 2.7-4.2-.1-14.9-.3-17.1-4.9zm65.2 2.1c4.3-5.1 12.8-9.7 19.6-7.8 4.7 1.4 9.6 3.9 12.6 7.7-5.2 3.6-12.6 3.9-18.8 3.3-3.8-.4-9.7-3-13.4-3.2zm-68.4-22.5c6.4-3.8 10.5-5.8 18.2-6 8.6-.3 14.1 2.1 19 8.7.3.5.2 1.1-.4 1.4-2.6 1.3-6 .5-8.6.5-2.6 0-4.7-2.6-7.4-3.4-3.1-.9-6.6-1.2-9.8-1.2-4.2 0-8.2 1-11.5 3.2m105.1-.3c-7.7-5.6-16-5-25.3-3.8-3.5.4-8.8.4-11.4 3.2-2.9 3.1 1.9 6.5 5.4 6.2 6.6-.4 11.4-4.7 18.3-5.1 5.6-.3 10.3.6 13.4 4.8m-71.1 42.4c-3.4 2.2-5 10.7-.7 12.6 2.5 1.2 4.3.1 6.6-.8 2.1-.8 3.3.3 4.8 1.7 3.7 3.5 7.7 5.8 11.9 1.7 1.4-1.4 2.5-2.1 4.6-2.2 3-.2 5.4 1.3 8.3-.4 2.8-1.6 2.5-5.2 1.8-7.8-.6-2.2-1.8-7.1-4.2-8m-26.1-30.3c2.7 2.1 2.5 7 1.5 9.9.1-.1.2-.1.3-.2m21.3-9.1c-3.3 2.9-3.3 7.1-.9 10.5m-39.7 55.7c2.6 2.5 7.3 2.9 10.6 3.4 3.8.6 7.6 1.1 11.4 1.5 3.1.3 6 1 9.1.5 3.7-.5 7.5-.6 11.1-1.2 2.7-.4 5.2-1 7.9-1.6 2.3-.5 4.8-1.7 7.2-1.7"/><path class="st1" d="M153.5 205.3c-4.3-.4-10.4-1.2-14.8-1.6-3.3-.3-6.3-.3-9.5.6-1.5.4-2.9.8-4.4.5-1.9-.3-3.6-1.2-5.5-1.4-6.9-.9-13.5 2.3-20.3 2.3 4 6.5 13.1 13.6 20.8 15 4.4.8 9.2 1.1 13.6-.2 4.9-1.5 9.6-4.9 13.3-8.3.9-.7 6.2-5.7 6.8-6.9m-68.2 28.8c1.3 5.5.2 11.6 0 17.3-.2 5.6-.3 15-.3 19.8m6.5-138.7c-3.3 3.3-2.9 10 2.5 10.7 2.5.3 5-1 6.3-3.2 1-1.6.7-3.3.7-4.8m54-.4c-1.6 1.4-2.4 4.4-2.1 6.5.3 2.4 2.1 3.6 4.6 3.7 4.1.3 7.7-4.4 6.3-8.3"/><path class="st1" d="M125.4 60.8c-12.6-11.5-32.8-1.3-40.8 10.4-9.9 14.4-10.4 37-12.4 53.8-2.4 19.8-6.5 39.7-7.4 59.7-.9 19.4 4.5 36.9 7.5 55.9 2.9 18.7 1.9 37.4 2.8 56.3.6 11.7 1.2 34.4 1.3 46.2m34.3-80.8c3.1 8 3.7 19.4 3.7 27.9m18.3-228.5c5.9-5.7 25.7 14.5 29.6 18.3 12.9 12.9 14.4 31.8 15.3 49.1 1 18.4.2 37.4-1.3 55.8-2.2 25-2.4 50.1-4.7 75.1-2.7 28-4.9 55.1-4.9 83.3"/><path class="st1" d="M126.8 53.8c-12.2-7.1-30-3.5-40.8 4-7.2 5-9.7 11.7-13.8 19.1-4.6 8.4-8.1 17.2-10 26.6-5.3 26-5 54.9-3.7 81.2 1.5 28.8 7 57.5 6.9 86.4-.1 29.3 3.2 41.5-.2 72.4"/><path class="st1" d="M70.7 231.5c1.6 9 8 22.7 10.2 29 3.6 10 8.1 19.1 9.4 29.7 1.5 12.4.9 24.9 1.5 37.3.3 4.5.3 9 .5 13.5m39.5-286.6c9.1-2.8 23.3 4.9 28.1 12.5 3.8 5.9 8.8 10.5 12.6 16.3 4.2 6.5 6.5 14.4 8.9 21.8 8.4 25.4 4.4 55.3 1.9 81.5-2.6 27.8-2 56.1-3.2 84-1.1 27.5.7 44 .7 71.5"/><path class="st1" d="M126.8 48c-9.4-5.5-20.4-3.6-31.4.2-16.5 5.7-27.3 20.7-33.2 36.5-7.7 20.5-10.6 40-10.5 61.9.1 13.9 1.5 27.9 2.2 41.8 1 18.7-.2 37.6-.8 56.3-.7 21-.3 42.2 0 63.3.1 13.9 2.7 22-1.4 35.4m80.1-295c3.9 0 12.9 1.1 16.5 3.1 4.9 2.7 9.2 7.2 13.3 11.1 11 10.7 21.4 21 26.1 36.1 7.3 23.2 6.3 48.3 5.5 72.2-1 29.8-2.3 59.6-2.3 89.4 0 17-.1 34 0 50.9 0 8.7.7 23.3 1.2 32"/><path class="st1" d="M130 42.4c-6.8-9.6-30.2-4.6-38.6-.5C77.5 48.7 65 63.1 59.1 77.4c-9.1 21.8-13 47.4-14.4 70.9-.9 15.5-.7 31.1-1.7 46.7-1.1 17.2-2.3 34.4-2.3 51.6 0 20.5.6 41.1-.7 61.5-.6 10.3-2.2 24.5-3.1 34.7m97.2-299.9c8.8-6.4 24.9 8.8 30.8 13.4 13.1 10.1 23.5 24 30.2 39.1 5.2 11.8 4 24.7 4.6 37.3.8 16.2-.2 32.3-.1 48.5.1 27.3 2.9 55.3 7.3 82.3 2.5 15.2 4.9 30.1 5.5 45.5.3 8.4.5 25.8.5 34.2"/><path class="st1" d="M129 36.5c-6.5-17.5-24-10.1-35.6-1.9-15.9 11.1-28.5 23.4-37.3 41-11.2 22.5-14.7 49.1-15.9 73.9-1.6 33.3-5.9 66.4-5.9 99.9 0 20.7-.5 41.3-2.2 61.9-.6 7.4-1.1 24.8-1.6 32.3M134.1 36.9c12.9-5.6 26.5 4.1 34.6 10.2 11.4 8.5 21 24.9 27.5 37.4 11.8 22.7 9 50.1 11.4 75.2 1.6 16.9 3.8 33.6 5.7 50.4 2.1 18.2 6.9 35.7 9.5 53.8 2.3 16 2.7 32.7 3.6 48.8.8 12.7 3.1 19.5 3.7 30.9"/><path class="st1" d="M129 36.5c2-5.1 15.3-9 20-8.2 7.9 1.5 14.7 8.2 21.2 12.5 18.5 12.1 34.1 33.4 41.4 54 12.2 34 16.7 71.5 22.2 107.1 4.4 28.4 11.3 55.6 13.3 84.3.9 12.8 1.7 25.6 3.8 38.3.9 5.8 2.1 11.7 3.7 17.5M32.9 301.6c-4.6 2.9-12.5 5.8-17.7 9.6-4.4 3.3-11.3 4.8-14.1 9.5m246.8-24.2c6.7 2 2.9 1.6 10.7 4"/></g></svg>